<svg width="24" height="24" viewBox="0 0 24 24" fill="none"
  xmlns="http://www.w3.org/2000/svg">
  <path fill-rule="evenodd" clip-rule="evenodd" d="M9.40087 3.0034C10.5554 1.00229 13.4435 1.00229 14.598 3.0034L21.9523 15.7509C23.1062 17.7509 21.6627 20.2501 19.3538 20.2501H4.6451C2.33612 20.2501 0.892695 17.7509 2.04654 15.7509L9.40087 3.0034ZM11.9996 8.25C12.4138 8.25 12.7496 8.58579 12.7496 9V12.75C12.7496 13.1642 12.4138 13.5 11.9996 13.5C11.5854 13.5 11.2496 13.1642 11.2496 12.75V9C11.2496 8.58579 11.5854 8.25 11.9996 8.25ZM11.9996 16.5C12.4138 16.5 12.7496 16.1642 12.7496 15.75C12.7496 15.3358 12.4138 15 11.9996 15C11.5854 15 11.2496 15.3358 11.2496 15.75C11.2496 16.1642 11.5854 16.5 11.9996 16.5Z" fill="black" fill-opacity="0.85"/>
</svg>
