<svg xmlns="http://www.w3.org/2000/svg" width="16" height="17" viewBox="0 0 16 17" fill="none">
    <path fill-rule="evenodd" clip-rule="evenodd" d="M1.5 8.5C1.5 4.91015 4.41015 2 8 2C11.5899 2 14.5 4.91015 14.5 8.5C14.5 12.0899 11.5899 15 8 15C4.41015 15 1.5 12.0899 1.5 8.5ZM10.4069 7.29062C10.5674 7.06591 10.5153 6.75364 10.2906 6.59313C10.0659 6.43263 9.75364 6.48467 9.59313 6.70938L7.4362 9.72909L6.35355 8.64645C6.15829 8.45118 5.84171 8.45118 5.64645 8.64645C5.45118 8.84171 5.45118 9.15829 5.64645 9.35355L7.14645 10.8536C7.25037 10.9575 7.39476 11.0104 7.54124 10.9983C7.68772 10.9862 7.82144 10.9102 7.90687 10.7906L10.4069 7.29062Z" fill="#2ADE57"/>
</svg>