<svg width="16" height="16" viewBox="0 0 16 16" fill="none"
  xmlns="http://www.w3.org/2000/svg">
  <path d="M1.99524 2.97852C1.86529 3.23355 1.80659 3.51708 1.77808 3.86605C1.75 4.20974 1.75 4.63821 1.75 5.18869V5.2V10.8V10.8113C1.75 11.3618 1.75 11.7903 1.77808 12.134C1.80659 12.4829 1.86529 12.7664 1.99524 13.0215C2.21095 13.4448 2.55516 13.789 2.97852 14.0048C3.23355 14.1347 3.51708 14.1934 3.86605 14.2219C4.20974 14.25 4.6382 14.25 5.18868 14.25H5.2H10.8H10.8113C11.3618 14.25 11.7903 14.25 12.134 14.2219C12.4829 14.1934 12.7664 14.1347 13.0215 14.0048C13.4448 13.789 13.789 13.4448 14.0048 13.0215C14.1347 12.7664 14.1934 12.4829 14.2219 12.134C14.25 11.7903 14.25 11.3618 14.25 10.8113V10.8V5.2V5.18868C14.25 4.6382 14.25 4.20974 14.2219 3.86605C14.1934 3.51708 14.1347 3.23355 14.0048 2.97852C13.789 2.55516 13.4448 2.21095 13.0215 1.99524C12.7664 1.86529 12.4829 1.80659 12.134 1.77808C11.7903 1.75 11.3618 1.75 10.8113 1.75H10.8H5.2H5.18869C4.63821 1.75 4.20974 1.75 3.86605 1.77808C3.51708 1.80659 3.23355 1.86529 2.97852 1.99524C2.55516 2.21095 2.21095 2.55516 1.99524 2.97852Z" fill="#BFBFBF" stroke="#BFBFBF" stroke-width="0.5" stroke-linecap="round" stroke-linejoin="round"/>
  <path d="M5 8L7 10L11 6" stroke="white" stroke-width="1.33" stroke-linecap="round" stroke-linejoin="round"/>
</svg>
