<svg width="14" height="13" viewBox="0 0 14 13" fill="none"
  xmlns="http://www.w3.org/2000/svg">
  <path d="M6.9987 5.66667C10.681 5.66667 13.6654 4.42187 13.6654 2.88802C13.6654 1.35417 10.681 0.109375 6.9987 0.109375C3.31641 0.109375 0.332031 1.35417 0.332031 2.88802C0.332031 4.42187 3.31641 5.66667 6.9987 5.66667ZM6.9987 10.1094C4.45443 10.1094 2.20443 9.4974 0.785156 8.55208C0.496094 8.86458 0.332031 9.20052 0.332031 9.55469C0.332031 11.0885 3.31641 12.3333 6.9987 12.3333C10.681 12.3333 13.6654 11.0885 13.6654 9.55469C13.6654 9.20052 13.5013 8.86458 13.2122 8.55469C11.793 9.4974 9.54297 10.1094 6.9987 10.1094ZM6.9987 6.77604C4.45443 6.77604 2.20443 6.16406 0.785156 5.21875C0.496094 5.53125 0.332031 5.86719 0.332031 6.22135C0.332031 7.75521 3.31641 9 6.9987 9C10.681 9 13.6654 7.75521 13.6654 6.22135C13.6654 5.86719 13.5013 5.53125 13.2122 5.22135C11.793 6.16406 9.54297 6.77604 6.9987 6.77604Z" fill="#262626"/>
</svg>
