<svg width="24" height="24" viewBox="0 0 24 24" fill="none"
  xmlns="http://www.w3.org/2000/svg">
  <path fill-rule="evenodd" clip-rule="evenodd" d="M10.9713 6.22965C9.50581 4.19493 6.72222 3.88671 4.88416 5.52731C3.00737 7.20247 2.89188 10.2062 4.6413 12.0336L11.9996 19.4522L19.3578 12.0336C21.1073 10.2063 20.9918 7.20248 19.115 5.52732C17.2769 3.8867 14.4934 4.19493 13.0279 6.22966L12.7299 6.64343C12.5607 6.87826 12.289 7.01742 11.9996 7.01742C11.7102 7.01742 11.4384 6.87826 11.2693 6.64343L10.9713 6.22965ZM11.9996 4.64197C14.1671 2.24086 17.8388 1.97551 20.3136 4.18442C22.9571 6.54392 23.1084 10.7269 20.6513 13.2854L20.6412 13.2958L13.1696 20.8287C12.5259 21.4921 11.4733 21.4921 10.8296 20.8287L3.35797 13.2958L3.34781 13.2854C0.890834 10.7269 1.04205 6.54393 3.68555 4.18443C6.16033 1.9755 9.8321 2.24086 11.9996 4.64197Z" fill="black" fill-opacity="0.9"/>
</svg>
