<svg xmlns="http://www.w3.org/2000/svg" width="16" height="17" viewBox="0 0 16 17" fill="none">
    <path fill-rule="evenodd" clip-rule="evenodd" d="M1.5 8.5C1.5 4.91015 4.41015 2 8 2C11.5899 2 14.5 4.91015 14.5 8.5C14.5 12.0899 11.5899 15 8 15C4.41015 15 1.5 12.0899 1.5 8.5ZM7.30416 7.53897C8.06832 7.15689 8.92873 7.84709 8.72152 8.67593L8.24884 10.5666L8.2765 10.5528C8.52349 10.4293 8.82383 10.5294 8.94732 10.7764C9.07082 11.0234 8.97071 11.3237 8.72372 11.4472L8.69606 11.4611C7.9319 11.8431 7.07149 11.1529 7.2787 10.3241L7.75138 8.43339L7.72372 8.44722C7.47673 8.57072 7.17639 8.47061 7.0529 8.22362C6.9294 7.97663 7.02951 7.67629 7.2765 7.5528L7.30416 7.53897ZM8 6.5C8.27614 6.5 8.5 6.27614 8.5 6C8.5 5.72386 8.27614 5.5 8 5.5C7.72386 5.5 7.5 5.72386 7.5 6C7.5 6.27614 7.72386 6.5 8 6.5Z" fill="white"/>
</svg>