<svg xmlns="http://www.w3.org/2000/svg" width="16" height="17" viewBox="0 0 16 17" fill="none">
    <path fill-rule="evenodd" clip-rule="evenodd" d="M6.26749 2.50251C7.03715 1.16843 8.96257 1.16843 9.73223 2.50251L14.6351 11.0008C15.4043 12.3342 14.4421 14.0003 12.9027 14.0003H3.09698C1.55766 14.0003 0.595374 12.3342 1.3646 11.0008L6.26749 2.50251ZM8 6.00024C8.27614 6.00024 8.5 6.2241 8.5 6.50024V9.00024C8.5 9.27639 8.27614 9.50024 8 9.50024C7.72386 9.50024 7.5 9.27639 7.5 9.00024V6.50024C7.5 6.2241 7.72386 6.00024 8 6.00024ZM8 11.5002C8.27614 11.5002 8.5 11.2764 8.5 11.0002C8.5 10.7241 8.27614 10.5002 8 10.5002C7.72386 10.5002 7.5 10.7241 7.5 11.0002C7.5 11.2764 7.72386 11.5002 8 11.5002Z" fill="#FF6D59"/>
</svg>