<svg width="24" height="24" viewBox="0 0 24 24" fill="none"
  xmlns="http://www.w3.org/2000/svg">
  <path fill-rule="evenodd" clip-rule="evenodd" d="M2.09961 12.0001C2.09961 6.53248 6.53199 2.1001 11.9996 2.1001C17.4672 2.1001 21.8996 6.53248 21.8996 12.0001C21.8996 17.4677 17.4672 21.9001 11.9996 21.9001C6.53199 21.9001 2.09961 17.4677 2.09961 12.0001ZM12.9996 16.5001C12.9996 17.0524 12.5519 17.5001 11.9996 17.5001C11.4473 17.5001 10.9996 17.0524 10.9996 16.5001C10.9996 15.9478 11.4473 15.5001 11.9996 15.5001C12.5519 15.5001 12.9996 15.9478 12.9996 16.5001ZM13.5246 6.9388C13.0083 6.69576 12.4367 6.58124 11.8643 6.60262C11.2919 6.624 10.7309 6.78084 10.2355 7.06288C9.73985 7.3451 9.32287 7.74555 9.03273 8.23235C8.74215 8.7199 8.59085 9.27441 8.6 9.84094L10.3998 9.81186C10.3961 9.58711 10.4556 9.36079 10.5789 9.1539C10.7027 8.94627 10.8886 8.76235 11.1261 8.62711C11.364 8.49169 11.6415 8.4122 11.9315 8.40137C12.2214 8.39054 12.5065 8.44904 12.758 8.5674C13.0092 8.68565 13.2135 8.85713 13.3572 9.05758C13.5004 9.25735 13.5801 9.48056 13.5964 9.70518C13.6128 9.9296 13.566 10.1574 13.4555 10.368C13.3456 10.5776 13.1739 10.767 12.949 10.9118C12.4019 11.2475 11.9406 11.7009 11.608 12.2407C11.2733 12.7839 11.0798 13.3973 11.0486 14.0308L11.0475 14.0529V14.3751H12.8475V14.0993C12.8664 13.7827 12.9649 13.4698 13.1404 13.1849C13.32 12.8935 13.5767 12.6375 13.8955 12.4429L13.9029 12.4383L13.9103 12.4336C14.391 12.1272 14.7863 11.706 15.0495 11.2043C15.3131 10.7018 15.4328 10.1398 15.3917 9.57458C15.3506 9.00958 15.1509 8.47025 14.82 8.00876C14.4896 7.54794 14.0412 7.18194 13.5246 6.9388Z" fill="black" fill-opacity="0.9"/>
</svg>
