<svg width="40" height="40" viewBox="0 0 40 40" fill="none"
  xmlns="http://www.w3.org/2000/svg">
  <path fill-rule="evenodd" clip-rule="evenodd" d="M3.5 20.0002C3.5 10.8875 10.8873 3.50024 19.9999 3.50024C29.1126 3.50024 36.4999 10.8875 36.4999 20.0002C36.4999 29.1128 29.1126 36.5001 19.9999 36.5001C10.8873 36.5001 3.5 29.1128 3.5 20.0002ZM21.6666 27.5002C21.6666 28.4207 20.9204 29.1669 19.9999 29.1669C19.0795 29.1669 18.3333 28.4207 18.3333 27.5002C18.3333 26.5797 19.0795 25.8335 19.9999 25.8335C20.9204 25.8335 21.6666 26.5797 21.6666 27.5002ZM22.5416 11.5647C21.681 11.1597 20.7284 10.9688 19.7744 11.0044C18.8204 11.0401 17.8854 11.3015 17.0598 11.7715C16.2337 12.2419 15.5387 12.9093 15.0552 13.7206C14.5709 14.5332 14.3187 15.4574 14.3339 16.4016L17.3335 16.3531C17.3275 15.9786 17.4267 15.6013 17.6322 15.2565C17.8384 14.9105 18.1482 14.604 18.5441 14.3786C18.9405 14.1529 19.4031 14.0204 19.8863 14.0023C20.3696 13.9843 20.8448 14.0818 21.2639 14.279C21.6827 14.4761 22.023 14.7619 22.2625 15.096C22.5013 15.429 22.6341 15.801 22.6613 16.1753C22.6885 16.5494 22.6106 16.929 22.4264 17.2801C22.2432 17.6293 21.9571 17.945 21.5822 18.1864C20.6704 18.7459 19.9016 19.5014 19.3472 20.4011C18.7894 21.3064 18.4669 22.3288 18.415 23.3848L18.4131 23.4216V23.9585H21.4131V23.4989C21.4447 22.9711 21.6087 22.4497 21.9013 21.9749C22.2006 21.4892 22.6283 21.0625 23.1597 20.7382L23.1722 20.7306L23.1845 20.7227C23.9856 20.2121 24.6444 19.51 25.0831 18.6738C25.5224 17.8363 25.7219 16.8996 25.6534 15.9577C25.5849 15.016 25.2521 14.1171 24.7006 13.348C24.15 12.58 23.4025 11.97 22.5416 11.5647Z" fill="#595959"/>
</svg>
