<svg width="24" height="24" viewBox="0 0 24 24" fill="none"
  xmlns="http://www.w3.org/2000/svg">
  <path fill-rule="evenodd" clip-rule="evenodd" d="M12.2273 4.46467C12.1018 4.33143 11.8982 4.33143 11.7727 4.46467L6.21429 10.3647V19.2941C6.21429 19.4825 6.35819 19.6353 6.53571 19.6353H9.42857V15.8822C9.42857 14.9401 10.1481 14.1763 11.0357 14.1763H12.9643C13.8519 14.1763 14.5714 14.9401 14.5714 15.8822V19.6353H17.4643C17.6418 19.6353 17.7857 19.4825 17.7857 19.2941V10.3647L12.2273 4.46467ZM19.0714 11.7295L19.9026 12.6117C20.1536 12.8782 20.5607 12.8782 20.8117 12.6117C21.0628 12.3452 21.0628 11.9132 20.8117 11.6467L13.1364 3.49965C12.5088 2.83345 11.4912 2.83345 10.8636 3.49965L3.18829 11.6467C2.93724 11.9132 2.93724 12.3452 3.18829 12.6117C3.43934 12.8782 3.84637 12.8782 4.09743 12.6117L4.92857 11.7295V19.2941C4.92857 20.2362 5.64811 21 6.53571 21H17.4643C18.3519 21 19.0714 20.2362 19.0714 19.2941V11.7295ZM13.2857 19.6353H10.7143V15.8822C10.7143 15.6938 10.8582 15.541 11.0357 15.541H12.9643C13.1418 15.541 13.2857 15.6938 13.2857 15.8822V19.6353Z" fill="black" fill-opacity="0.9"/>
</svg>
