<svg xmlns="http://www.w3.org/2000/svg" width="20" height="20" viewBox="0 0 20 20" fill="none">
  <path fill-rule="evenodd" clip-rule="evenodd" d="M8.71827 2.9488C5.53202 2.9488 2.94904 5.53177 2.94904 8.71803C2.94904 11.9043 5.53202 14.4873 8.71827 14.4873C10.3116 14.4873 11.753 13.8422 12.7977 12.7975C13.8425 11.7528 14.4875 10.3113 14.4875 8.71803C14.4875 5.53177 11.9045 2.9488 8.71827 2.9488ZM1.66699 8.71803C1.66699 4.82371 4.82396 1.66675 8.71827 1.66675C12.6126 1.66675 15.7696 4.82371 15.7696 8.71803C15.7696 10.4341 15.1559 12.0078 14.137 13.2302L18.1459 17.2391C18.3962 17.4895 18.3962 17.8953 18.1459 18.1457C17.8956 18.396 17.4897 18.396 17.2394 18.1457L13.2305 14.1368C12.0081 15.1556 10.4344 15.7693 8.71827 15.7693C4.82396 15.7693 1.66699 12.6123 1.66699 8.71803Z" fill="black" fill-opacity="1"/>
</svg>