<svg width="58" height="58" viewBox="0 0 58 58" fill="none"
  xmlns="http://www.w3.org/2000/svg">
  <g filter="url(#filter0_d_176_4145)">
    <rect x="2" y="1" width="54" height="54" rx="27" fill="black"/>
    <path d="M37.8426 33.1449C37.5099 33.9135 37.1161 34.6211 36.6598 35.2715C36.0379 36.1583 35.5286 36.7721 35.1362 37.113C34.5278 37.6724 33.876 37.959 33.178 37.9753C32.6769 37.9753 32.0726 37.8327 31.3691 37.5434C30.6634 37.2555 30.0148 37.113 29.4218 37.113C28.7998 37.113 28.1328 37.2555 27.4193 37.5434C26.7047 37.8327 26.1291 37.9834 25.689 37.9984C25.0196 38.0269 24.3525 37.7322 23.6865 37.113C23.2615 36.7422 22.7298 36.1067 22.0929 35.2063C21.4096 34.2449 20.8478 33.13 20.4077 31.8589C19.9363 30.486 19.7 29.1565 19.7 27.8694C19.7 26.3951 20.0186 25.1235 20.6567 24.0578C21.1582 23.2019 21.8254 22.5267 22.6604 22.0311C23.4954 21.5354 24.3977 21.2828 25.3693 21.2666C25.901 21.2666 26.5981 21.4311 27.4645 21.7543C28.3285 22.0786 28.8832 22.243 29.1264 22.243C29.3083 22.243 29.9245 22.0507 30.9692 21.6674C31.9571 21.3119 32.7909 21.1647 33.474 21.2226C35.3249 21.372 36.7155 22.1017 37.6403 23.4162C35.9849 24.4192 35.1661 25.824 35.1824 27.6262C35.1973 29.03 35.7065 30.1981 36.7074 31.1256C37.1609 31.5561 37.6675 31.8888 38.231 32.1251C38.1088 32.4795 37.9798 32.819 37.8426 33.1449ZM33.5976 16.4404C33.5976 17.5406 33.1956 18.5679 32.3944 19.5188C31.4275 20.6492 30.258 21.3024 28.9898 21.1993C28.9737 21.0673 28.9643 20.9284 28.9643 20.7824C28.9643 19.7261 29.4241 18.5958 30.2407 17.6715C30.6483 17.2036 31.1668 16.8145 31.7955 16.5041C32.4229 16.1983 33.0164 16.0292 33.5745 16.0002C33.5908 16.1473 33.5976 16.2944 33.5976 16.4404V16.4404Z" fill="white"/>
  </g>
  <defs>
    <filter id="filter0_d_176_4145" x="0" y="0" width="58" height="58" filterUnits="userSpaceOnUse" color-interpolation-filters="sRGB">
      <feFlood flood-opacity="0" result="BackgroundImageFix"/>
      <feColorMatrix in="SourceAlpha" type="matrix" values="0 0 0 0 0 0 0 0 0 0 0 0 0 0 0 0 0 0 127 0" result="hardAlpha"/>
      <feOffset dy="1"/>
      <feGaussianBlur stdDeviation="1"/>
      <feColorMatrix type="matrix" values="0 0 0 0 0.0627451 0 0 0 0 0.0941176 0 0 0 0 0.156863 0 0 0 0.05 0"/>
      <feBlend mode="normal" in2="BackgroundImageFix" result="effect1_dropShadow_176_4145"/>
      <feBlend mode="normal" in="SourceGraphic" in2="effect1_dropShadow_176_4145" result="shape"/>
    </filter>
  </defs>
</svg>
