<svg width="24" height="24" viewBox="0 0 24 24" fill="none"
  xmlns="http://www.w3.org/2000/svg">
  <path fill-rule="evenodd" clip-rule="evenodd" d="M18.3776 2.90012C17.996 2.77613 17.5849 2.77613 17.2033 2.90012C16.9312 2.98855 16.7208 3.13897 16.5507 3.28339C16.3947 3.41582 16.2236 3.58698 16.0437 3.76683L16.0227 3.78789L2.80713 17.0035V21.1929H6.99658L20.2121 7.97735L20.2332 7.95631C20.413 7.77649 20.5842 7.60536 20.7166 7.44935C20.8611 7.27924 21.0115 7.06888 21.0999 6.79671C21.2239 6.41511 21.2239 6.00405 21.0999 5.62245C21.0115 5.35029 20.8611 5.13993 20.7166 4.96981C20.5842 4.81381 20.4131 4.64269 20.2332 4.46288L19.5372 3.76685C19.3574 3.587 19.1862 3.41583 19.0302 3.28339C18.8601 3.13897 18.6497 2.98855 18.3776 2.90012ZM17.7197 4.63641C17.7588 4.59735 17.8221 4.59735 17.8611 4.63641L19.3636 6.13886C19.4027 6.17791 19.4027 6.24123 19.3636 6.28028L6.25099 19.3929H4.60712V17.749L17.7197 4.63641Z" fill-opacity="0.85"/>
</svg>
