<svg width="24" height="24" viewBox="0 0 24 24" fill="none"
  xmlns="http://www.w3.org/2000/svg">
  <path d="M3 7.8C3 6.11984 3 5.27976 3.32698 4.63803C3.6146 4.07354 4.07354 3.6146 4.63803 3.32698C5.27976 3 6.11984 3 7.8 3H16.2C17.8802 3 18.7202 3 19.362 3.32698C19.9265 3.6146 20.3854 4.07354 20.673 4.63803C21 5.27976 21 6.11984 21 7.8V16.2C21 17.8802 21 18.7202 20.673 19.362C20.3854 19.9265 19.9265 20.3854 19.362 20.673C18.7202 21 17.8802 21 16.2 21H7.8C6.11984 21 5.27976 21 4.63803 20.673C4.07354 20.3854 3.6146 19.9265 3.32698 19.362C3 18.7202 3 17.8802 3 16.2V7.8Z" fill="black" fill-opacity="0.85"/>
  <path d="M2.88148 4.41103C2.67609 4.81413 2.58593 5.25771 2.54253 5.78889C2.49999 6.30955 2.5 6.95652 2.5 7.77779L2.5 7.8V16.2L2.5 16.2222C2.5 17.0435 2.49999 17.6905 2.54253 18.2111C2.58593 18.7423 2.67609 19.1859 2.88148 19.589C3.21703 20.2475 3.75247 20.783 4.41103 21.1185C4.81413 21.3239 5.25771 21.4141 5.78889 21.4575C6.30954 21.5 6.95651 21.5 7.77778 21.5H7.8H16.2H16.2222C17.0435 21.5 17.6905 21.5 18.2111 21.4575C18.7423 21.4141 19.1859 21.3239 19.589 21.1185C20.2475 20.783 20.783 20.2475 21.1185 19.589C21.3239 19.1859 21.4141 18.7423 21.4575 18.2111C21.5 17.6905 21.5 17.0435 21.5 16.2222V16.2V7.8V7.77778C21.5 6.95651 21.5 6.30954 21.4575 5.78889C21.4141 5.25771 21.3239 4.81413 21.1185 4.41103C20.783 3.75247 20.2475 3.21703 19.589 2.88148C19.1859 2.67609 18.7423 2.58593 18.2111 2.54253C17.6905 2.49999 17.0435 2.5 16.2222 2.5L16.2 2.5H7.8L7.77779 2.5C6.95652 2.5 6.30955 2.49999 5.78889 2.54253C5.25771 2.58593 4.81413 2.67609 4.41103 2.88148C3.75247 3.21703 3.21703 3.75247 2.88148 4.41103Z" stroke="black" stroke-opacity="0.85" stroke-linecap="round" stroke-linejoin="round"/>
  <path d="M7.5 12L10.5 15L16.5 9" stroke="white" stroke-width="2" stroke-linecap="round" stroke-linejoin="round"/>
</svg>
