<svg width="24" height="24" viewBox="0 0 24 24" fill="none"
  xmlns="http://www.w3.org/2000/svg">
  <path fill-rule="evenodd" clip-rule="evenodd" d="M4.75541 10.0589C5.82748 6.0579 9.94 3.68353 13.941 4.75559C15.262 5.10955 16.4038 5.79374 17.3036 6.69528L19.2067 8.59835H16.023C15.6088 8.59835 15.273 8.93414 15.273 9.34835C15.273 9.76256 15.6088 10.0984 16.023 10.0984H21.0156C21.2145 10.0984 21.4053 10.0193 21.546 9.87864C21.6866 9.73797 21.7656 9.54717 21.7656 9.34824V4.35575C21.7656 3.94153 21.4298 3.60575 21.0156 3.60575C20.6014 3.60575 20.2656 3.94153 20.2656 4.35575V7.53591L18.3653 5.63561C17.2841 4.55253 15.9116 3.73071 14.3292 3.3067C9.52803 2.02023 4.593 4.86947 3.30653 9.67067C3.19932 10.0708 3.43676 10.482 3.83686 10.5892C4.23696 10.6964 4.64821 10.459 4.75541 10.0589ZM20.1629 13.4108C19.7628 13.3036 19.3515 13.5411 19.2443 13.9412C18.1722 17.9422 14.0597 20.3165 10.0587 19.2445C8.73774 18.8905 7.59594 18.2063 6.69609 17.3048L4.7942 15.4017H7.97702C8.39123 15.4017 8.72702 15.0659 8.72702 14.6517C8.72702 14.2375 8.39123 13.9017 7.97702 13.9017L2.98438 13.9017C2.57016 13.9017 2.23438 14.2375 2.23438 14.6517V19.6443C2.23438 20.0585 2.57016 20.3943 2.98438 20.3943C3.39859 20.3943 3.73438 20.0585 3.73438 19.6443V16.4632L5.63444 18.3645C6.71564 19.4477 8.08796 20.2693 9.67048 20.6934C14.4717 21.9798 19.4067 19.1306 20.6932 14.3294C20.8004 13.9293 20.563 13.5181 20.1629 13.4108Z" fill="black" fill-opacity="0.85"/>
</svg>
