<svg width="24" height="24" viewBox="0 0 24 24" fill="none"
  xmlns="http://www.w3.org/2000/svg">
  <path fill-rule="evenodd" clip-rule="evenodd" d="M15.2194 6.2678C15.3679 5.8811 15.8017 5.68795 16.1884 5.83639L22.1297 8.11703C22.3154 8.18832 22.4651 8.33045 22.546 8.51217C22.627 8.69388 22.6324 8.90029 22.5611 9.08599L20.2804 15.0273C20.132 15.414 19.6982 15.6071 19.3115 15.4587C18.9248 15.3102 18.7316 14.8764 18.8801 14.4897L20.5118 10.2388L19.4253 10.7226C16.9721 11.8148 15.1036 13.6756 13.975 15.8961C13.8662 16.1103 13.6614 16.2593 13.4241 16.297C13.1869 16.3347 12.946 16.2565 12.7761 16.0866L9 12.3105L2.78033 18.5302C2.48744 18.8231 2.01256 18.8231 1.71967 18.5302C1.42678 18.2373 1.42678 17.7624 1.71967 17.4696L8.46967 10.7196C8.61032 10.5789 8.80109 10.4999 9 10.4999C9.19891 10.4999 9.38968 10.5789 9.53033 10.7196L13.1363 14.3256C14.4369 12.2044 16.3711 10.4405 18.8152 9.35227L19.9017 8.86852L15.6508 7.23676C15.2641 7.08832 15.071 6.6545 15.2194 6.2678Z" fill="black" fill-opacity="0.9"/>
</svg>
