<svg width="49" height="48" viewBox="0 0 49 48" fill="none"
  xmlns="http://www.w3.org/2000/svg">
  <path d="M42.5521 29.9531C42.5775 26.2484 34.5059 23.1896 24.5237 23.1213C14.5415 23.0529 6.42874 26.0008 6.40337 29.7055C6.37799 33.4103 14.4496 36.469 24.4318 36.5374C34.414 36.6057 42.5267 33.6579 42.5521 29.9531Z" fill="#F2C477"/>
  <path d="M42.612 23.2542L40.0406 23.2358C36.9038 21.2601 31.142 19.917 24.5607 19.8724C17.9795 19.8278 12.2088 21.0918 9.03696 23.0229L6.49099 23.0056L6.48916 23.371C6.47239 23.2497 6.46385 23.1274 6.4636 23.005C6.49 19.2992 14.6029 16.3516 24.5853 16.4208C34.5678 16.49 42.6388 19.5504 42.612 23.2542Z" fill="#D8B16C"/>
  <path d="M9.03652 23.023C8.27007 23.4571 7.59719 24.0387 7.05673 24.7342C6.75969 24.3326 6.56475 23.8648 6.48872 23.3711L6.49055 23.0057L9.03652 23.023Z" fill="#D8B16C"/>
  <path d="M42.6124 23.2542C42.5947 23.879 42.3789 24.482 41.9962 24.9762C41.4654 24.2731 40.8009 23.6816 40.041 23.2358L42.6124 23.2542Z" fill="#D8B16C"/>
  <path d="M42.612 23.254L42.5615 30.1511L6.43009 29.9026L6.47626 23.3693C6.55229 23.863 6.74722 24.3308 7.04427 24.7324C7.58472 24.0369 8.2576 23.4553 9.02406 23.0213L40.0277 23.2341C40.7876 23.6799 41.452 24.2714 41.9829 24.9745C42.3699 24.4823 42.5902 23.8797 42.612 23.254Z" fill="#F2C477"/>
  <path d="M41.9954 24.9761L41.8948 25.1081C41.6931 25.3626 41.4679 25.5975 41.2222 25.8098C41.1854 25.8447 41.1462 25.878 41.1049 25.9117C40.8097 26.1603 40.4972 26.3877 40.17 26.5923L39.9598 26.7219L39.7733 26.834L39.5723 26.947L39.3644 27.0573C39.2962 27.0924 39.2264 27.13 39.1537 27.1639C39.0116 27.2374 38.8647 27.3077 38.7137 27.3789C38.5628 27.4501 38.4644 27.4915 38.329 27.5468C37.9863 27.6948 37.6268 27.8393 37.2505 27.9803C37.165 28.0127 37.0786 28.0411 36.9906 28.0719C36.8166 28.1332 36.6357 28.1917 36.4533 28.2526L35.9227 28.4151L35.612 28.5047L35.374 28.5709C34.8099 28.7235 34.2244 28.8638 33.6134 28.9927L33.1569 29.0874L32.6439 29.1832L32.0891 29.2794L31.5693 29.3621L31.0212 29.4401C30.6522 29.4915 30.2774 29.5356 29.8979 29.5766L29.4052 29.6284L29.3288 29.6443C29.1766 29.6591 29.0244 29.6739 28.8714 29.6846L28.6798 29.7013L28.3122 29.7293L28.0727 29.7475C27.9048 29.7571 27.7373 29.7688 27.569 29.7765L27.1107 29.8023L26.8316 29.8119C26.6617 29.822 26.4905 29.826 26.3198 29.8321C26.149 29.8381 25.9654 29.8427 25.7853 29.8443C25.6053 29.846 25.445 29.852 25.275 29.8516L24.9463 29.8547L24.4972 29.8535L24.0472 29.8482L23.7184 29.8409C23.548 29.8385 23.3768 29.8321 23.2079 29.8272C23.0391 29.8224 22.8505 29.8133 22.6749 29.8056C22.4992 29.798 22.3319 29.7908 22.1619 29.7799L21.8842 29.7661L21.4268 29.7352C21.2567 29.7243 21.0903 29.7106 20.9238 29.6968L20.6824 29.6756L20.3148 29.6428C20.2531 29.6388 20.1886 29.6312 20.1241 29.6236C19.9725 29.611 19.8202 29.5943 19.6698 29.5773L19.5904 29.5686L19.0981 29.5112C18.7191 29.464 18.3456 29.4128 17.9776 29.3577C17.7937 29.3308 17.6114 29.3015 17.429 29.2617L16.9092 29.1723L16.3566 29.0772C16.184 29.0438 16.0133 29.0099 15.8463 28.9732L15.4065 28.8757C14.7995 28.7401 14.2148 28.5914 13.6527 28.4297L13.4157 28.3593L13.1049 28.2665L12.5545 28.0806C12.374 28.0195 12.1955 27.9579 12.0207 27.8935L11.7618 27.7983C11.3882 27.666 11.0306 27.5094 10.6883 27.3559C10.559 27.2989 10.4362 27.2425 10.3125 27.1822C10.1888 27.1218 10.0153 27.034 9.87506 26.9645L9.66562 26.8549L9.45936 26.7403L9.26115 26.6241L9.06738 26.5091L8.85938 26.376C8.53493 26.1667 8.22546 25.9351 7.9332 25.6829C7.89226 25.6473 7.85375 25.6134 7.81725 25.579C7.57615 25.3658 7.35534 25.1307 7.15766 24.8767C7.1231 24.8314 7.09096 24.7878 7.05841 24.7421C7.59886 24.0465 8.27174 23.4649 9.0382 23.0309C12.204 21.101 17.9803 19.8337 24.562 19.8803C31.1436 19.927 36.895 21.2701 40.0418 23.2437C40.8004 23.6874 41.4642 24.276 41.9954 24.9761Z" fill="#C59D57"/>
  <path d="M42.5894 26.7053C42.5626 30.4091 34.4497 33.3567 24.4673 33.2875C14.4848 33.2183 6.4082 30.1612 6.44064 26.4542C6.45806 25.8299 6.67403 25.2274 7.0572 24.7342C9.08579 27.6172 16.1163 29.7775 24.4923 29.838C32.8682 29.8984 39.9259 27.8304 41.9958 24.9762C42.3727 25.4747 42.5807 26.0805 42.5894 26.7053Z" fill="#F2C477"/>
  <path d="M35.7813 25.7222C35.7672 24.5096 30.8436 23.5839 24.7842 23.6545C18.7249 23.7251 13.8242 24.7653 13.8383 25.9778C13.8525 27.1904 18.7248 28.648 24.7842 28.5774C30.8436 28.5068 35.7954 26.9347 35.7813 25.7222Z" fill="#9B774A"/>
  <path d="M23.8833 12.118C23.5011 12.1973 23.2558 12.9362 23.0074 12.7192C22.4992 12.2918 21.8979 12.3053 21.9938 12.9903C22.1377 14.0281 21.1223 12.0655 20.8092 13.5191C20.746 13.8112 21.3494 14.758 20.8119 14.7961C15.7094 15.1454 8.77332 28.0246 25.1354 27.2573C42.8662 26.4242 30.5716 13.9633 26.9304 14.299C26.459 14.3422 26.6315 14.1827 26.7305 13.4363C26.8296 12.69 25.9659 12.1769 25.5543 12.6503C25.1428 13.1237 24.8934 11.9316 23.8833 12.118Z" fill="#FCF3E7"/>
  <path d="M25.6485 13.6797C25.6485 13.6797 25.3195 14.4297 25.8936 14.9525C26.4677 15.4753 26.6641 15.5121 26.6641 15.5121" stroke="#EBD8BD" stroke-miterlimit="10" stroke-linecap="round"/>
  <path d="M21.4196 16.0358C21.4196 16.0358 22.1841 15.7367 22.1451 14.9623C22.1062 14.188 21.9983 14.0216 21.9983 14.0216" stroke="#EBD8BD" stroke-miterlimit="10" stroke-linecap="round"/>
  <path d="M22.6892 16.4855C22.6892 16.4855 23.452 16.1888 23.4147 15.4121C23.3773 14.6353 23.2678 14.4713 23.2678 14.4713" stroke="#EBD8BD" stroke-miterlimit="10" stroke-linecap="round"/>
  <path d="M24.641 14.4571C24.641 14.4571 24.3124 15.2091 24.8881 15.7295C25.4639 16.2499 25.6571 16.2916 25.6571 16.2916" stroke="#EBD8BD" stroke-miterlimit="10" stroke-linecap="round"/>
</svg>
