<svg width="49" height="48" viewBox="0 0 49 48" fill="none"
  xmlns="http://www.w3.org/2000/svg">
  <path d="M44.4212 20.3424C44.4212 23.7706 44.4212 33.8666 24.7438 33.8666C5.1951 33.8666 5.06641 23.7706 5.06641 20.3424C5.06641 16.9142 13.8755 14.1333 24.7438 14.1333C35.612 14.1333 44.4212 16.9124 44.4212 20.3424Z" fill="#161616"/>
  <path d="M42.4272 19.5741C42.4191 19.9014 42.3168 20.2194 42.1325 20.4899C40.618 22.8754 33.4353 25.1267 24.8089 25.1267C16.1826 25.1267 8.99989 22.8754 7.49098 20.4899C7.30668 20.2194 7.20435 19.9014 7.19629 19.5741C7.19629 16.8864 15.084 14.7061 24.8164 14.7061C34.5488 14.7061 42.4272 16.8864 42.4272 19.5741Z" fill="#262626"/>
  <path d="M42.4272 19.5741C42.4191 19.9014 42.3168 20.2194 42.1325 20.4899C40.618 22.8754 33.4353 25.1267 24.8089 25.1267C16.1826 25.1267 8.99989 22.8754 7.49098 20.4899C7.30668 20.2194 7.20435 19.9014 7.19629 19.5741C7.19629 16.8864 15.084 14.7061 24.8164 14.7061C34.5488 14.7061 42.4272 16.8864 42.4272 19.5741Z" fill="#848484"/>
  <path d="M42.3696 20.8182C42.3616 21.1458 42.2586 21.464 42.073 21.734C40.5585 24.1196 33.3777 26.3708 24.7495 26.3708C16.1213 26.3708 8.93482 24.1196 7.42032 21.734C7.23356 21.4642 7.12864 21.1462 7.11816 20.8182C7.11816 18.1306 15.0059 15.9502 24.7383 15.9502C34.4707 15.9502 42.3696 18.1306 42.3696 20.8182Z" fill="#FCF9EB"/>
  <path d="M38.0892 21.1427C37.1249 21.249 37.2219 20.3183 36.4105 20.5291C35.5992 20.7399 36.1251 19.5145 35.3082 19.8595C34.4913 20.2046 34.6498 19.645 34.1723 19.8502C33.6948 20.0553 33.1316 20.3836 33.1316 20.3836C33.1316 20.3836 31.7868 20.2195 31.3895 20.4302C30.9699 20.615 30.5181 20.7158 30.0597 20.7268C29.9327 20.7444 29.8113 20.79 29.7042 20.8603C29.5971 20.9307 29.507 21.0239 29.4404 21.1334L31.2608 21.3069C32.1113 21.3871 33.3423 20.6578 33.9672 21.4039C34.592 22.1499 34.8997 23.2988 35.9685 22.7971C37.0372 22.2954 38.1265 22.7654 38.4939 22.8512C38.8613 22.937 39.1523 22.1667 39.1523 22.1667C39.1523 22.1667 38.6506 21.0812 38.0892 21.1427Z" fill="#0E5110"/>
  <path d="M37.311 21.7545C37.311 21.7545 34.5524 20.475 33.4557 20.7771C32.359 21.0793 31.667 21.2024 31.667 21.2024C31.667 21.2024 34.2782 21.0812 34.9758 21.2528C35.6733 21.4243 37.311 21.7545 37.311 21.7545Z" fill="#377C37"/>
  <path d="M44.4215 20.0626C44.4205 20.2167 44.4011 20.3701 44.3636 20.5196H42.1255C42.311 20.2495 42.414 19.9314 42.422 19.6038C42.422 16.9161 34.5324 14.7357 24.8019 14.7357C15.0714 14.7357 7.18925 16.9161 7.18925 19.6038C7.19973 19.9318 7.30465 20.2498 7.49141 20.5196H5.25322C5.21637 20.3701 5.19759 20.2166 5.19727 20.0626C5.1954 16.793 13.9765 14.1333 24.8094 14.1333C35.6422 14.1333 44.4215 16.793 44.4215 20.0626Z" fill="#262626"/>
  <path d="M37.22 22.7132C36.2538 22.6479 36.4739 21.7433 35.6532 21.8086C34.8326 21.8739 35.5078 20.7567 34.6535 20.9525C33.7993 21.1483 34.0343 20.6242 33.5344 20.7417C33.1614 20.8375 32.7935 20.952 32.4321 21.0849C32.4321 21.0849 31.1265 20.6821 30.705 20.8201C30.2583 20.9302 29.7939 20.9492 29.3397 20.876C28.948 20.8275 28.6738 20.4042 28.6738 21.167C28.6738 21.9298 29.7817 21.057 30.4495 21.6613C31.2104 22.3514 32.3874 22.0697 32.9021 22.9184C33.4169 23.767 33.7769 24.2762 34.8941 23.9703C36.0113 23.6644 37.0316 24.321 37.3822 24.4702C37.7329 24.6194 38.1283 23.9106 38.1283 23.9106C38.1283 23.9106 37.7832 22.7524 37.22 22.7132Z" fill="#0E5110"/>
  <path d="M36.3676 23.1813C36.3676 23.1813 33.8198 21.4206 32.6951 21.5325C31.5704 21.6444 30.8691 21.635 30.8691 21.635C30.8691 21.635 33.4636 21.9764 34.1313 22.2692C34.799 22.562 36.3676 23.1813 36.3676 23.1813Z" fill="#377C37"/>
  <path d="M35.4681 23.2728C34.502 23.2056 34.722 22.3029 33.8995 22.3682C33.077 22.4335 33.7559 21.3144 32.9016 21.5121C32.0474 21.7098 32.2806 21.1819 31.7826 21.3013C31.2846 21.4207 30.6821 21.6426 30.6821 21.6426C30.6821 21.6426 29.3765 21.2416 28.955 21.3796C28.5075 21.4888 28.0427 21.5078 27.5878 21.4356C27.198 21.3871 26.9238 20.9637 26.9238 21.7266C26.9238 22.4894 28.0299 21.6165 28.6976 22.2208C29.4604 22.9109 30.6355 22.6274 31.1521 23.4779C31.6688 24.3285 32.025 24.8358 33.1441 24.5299C34.2632 24.224 35.2797 24.8805 35.6304 25.0298C35.981 25.179 36.3764 24.4702 36.3764 24.4702C36.3764 24.4702 36.0276 23.3064 35.4681 23.2728Z" fill="#0E5110"/>
  <path d="M34.6069 23.7577C34.6069 23.7577 32.0591 21.997 30.9325 22.107C29.806 22.217 29.1084 22.2096 29.1084 22.2096C29.1084 22.2096 31.701 22.5528 32.3687 22.8456C33.0364 23.1384 34.6069 23.7577 34.6069 23.7577Z" fill="#377C37"/>
  <path d="M20.2693 25.2775C20.2693 26.4824 16.304 25.1264 14.2411 25.1264C12.1783 25.1264 13.0083 23.0636 13.8886 22.2746C17.4548 19.0833 21.0191 20.803 23.082 20.803C25.1448 20.803 20.2693 24.0726 20.2693 25.2775Z" fill="#E55110"/>
  <path d="M21.2937 21.7284C20.7845 21.6277 17.9793 24.9514 17.6697 25.3058C17.4161 25.5986 17.4123 25.1976 17.4198 25.0353C17.4198 25.2088 17.472 25.4083 17.6697 25.1733C17.9793 24.8115 20.7845 21.4934 21.2937 21.5941C21.4411 21.6221 21.5828 21.4654 21.6127 21.3013C21.6667 21.499 21.4802 21.7638 21.2937 21.7284Z" fill="#E04E0E"/>
  <path d="M21.6155 21.3012C21.5857 21.4653 21.4439 21.622 21.2966 21.594C20.7837 21.4933 17.9785 24.8114 17.6689 25.1733C17.4712 25.4008 17.4245 25.2087 17.4189 25.0352C17.4189 25.0017 17.4189 24.9793 17.4189 24.9793C17.5085 24.4496 20.1794 21.3329 21.0504 21.1333C21.4272 21.0438 21.5857 21.1539 21.6155 21.3012Z" fill="#F95A0B"/>
  <path d="M20.5624 21.4448C20.0514 21.3459 17.2462 24.6603 16.9347 25.024C16.6829 25.315 16.6792 24.914 16.6848 24.7536C16.6848 24.927 16.737 25.1266 16.9347 24.8897C17.2462 24.5298 20.0514 21.221 20.5624 21.3105C20.7098 21.3403 20.8515 21.1818 20.8833 21.0195C20.9299 21.221 20.7508 21.4821 20.5624 21.4448Z" fill="#E04E0E"/>
  <path d="M20.883 21.0192C20.8513 21.1815 20.7096 21.34 20.5622 21.3102C20.0512 21.2207 17.246 24.5295 16.9345 24.8894C16.7368 25.1188 16.692 24.9267 16.6846 24.7533C16.6846 24.7197 16.6846 24.6973 16.6846 24.6973C16.7722 24.1676 19.445 21.0509 20.316 20.8514C20.6928 20.7618 20.8513 20.87 20.883 21.0192Z" fill="#F95A0B"/>
  <path d="M21.8973 20.9372C22.067 21.4967 19.6591 25.1953 19.3905 25.6001C19.1798 25.9321 19.5267 25.8705 19.6647 25.837C19.5155 25.8575 19.3402 25.837 19.5062 25.5777C19.7673 25.1692 22.1827 21.4744 22.0129 20.9148C21.9967 20.834 22.0076 20.7502 22.0441 20.6763C22.0805 20.6024 22.1404 20.5426 22.2144 20.5063C22.1636 20.5098 22.1142 20.5244 22.0696 20.5489C22.0249 20.5734 21.9862 20.6073 21.956 20.6483C21.9259 20.6893 21.905 20.7364 21.8948 20.7863C21.8847 20.8362 21.8855 20.8877 21.8973 20.9372Z" fill="#E04E0E"/>
  <path d="M22.2147 20.5083C22.1407 20.5446 22.0808 20.6043 22.0444 20.6782C22.0079 20.7521 21.997 20.836 22.0132 20.9168C22.1829 21.4763 19.775 25.1731 19.5064 25.5797C19.3404 25.8389 19.5064 25.8594 19.665 25.8389L19.7135 25.824C20.1574 25.6375 22.4198 22.1254 22.4515 21.1107C22.4683 20.6799 22.3471 20.5195 22.2147 20.5083Z" fill="#F95A0B"/>
  <path d="M22.0211 22.1107C21.5082 22.0099 18.703 25.3243 18.3934 25.6974C18.1397 25.9902 18.136 25.5892 18.1434 25.4288C18.1434 25.6004 18.1956 25.8018 18.3934 25.5649C18.703 25.205 21.5082 21.885 22.0211 21.9857C22.1666 22.0155 22.3102 21.857 22.34 21.6929C22.3867 21.8813 22.2076 22.1536 22.0211 22.1107Z" fill="#E04E0E"/>
  <path d="M22.3392 21.6832C22.3093 21.8474 22.1657 22.0059 22.0202 21.9761C21.5073 21.8753 18.7021 25.1953 18.3925 25.5553C18.1948 25.7828 18.1482 25.5907 18.1426 25.4191C18.1426 25.3856 18.1426 25.3632 18.1426 25.3632C18.2321 24.8335 20.903 21.7168 21.774 21.5172C22.1508 21.4258 22.3093 21.5359 22.3392 21.6832Z" fill="#F95A0B"/>
  <path d="M19.7392 21.4316C19.2282 21.3328 16.423 24.6471 16.1115 25.0108C15.8597 25.3018 15.856 24.9008 15.8616 24.7404C15.8616 24.9138 15.9138 25.1134 16.1115 24.8765C16.423 24.5166 19.2282 21.1985 19.7392 21.2973C19.8866 21.3272 20.0283 21.1686 20.06 21.0063C20.1066 21.2022 19.9276 21.4689 19.7392 21.4316Z" fill="#E04E0E"/>
  <path d="M20.0608 21.0065C20.0291 21.1688 19.8873 21.3273 19.74 21.2975C19.2289 21.1986 16.4237 24.5167 16.1122 24.8767C15.9145 25.1061 15.8698 24.914 15.8623 24.7405C15.8623 24.707 15.8623 24.6846 15.8623 24.6846C15.9556 24.1493 18.6283 21.0345 19.4994 20.833C19.8705 20.7491 20.0291 20.8573 20.0608 21.0065Z" fill="#F95A0B"/>
  <path d="M12.0996 19.4173C12.32 19.1291 12.5843 18.8773 12.883 18.6713C13.1834 18.4567 13.51 18.2812 13.8547 18.149C14.2098 18.0064 14.5917 17.9427 14.9738 17.9625C15.1916 17.9729 15.4005 18.0519 15.5707 18.1882C15.6413 18.256 15.7039 18.3317 15.7572 18.4139C15.8096 18.4705 15.867 18.5223 15.9288 18.5687C16.1936 18.7701 16.5126 18.9417 16.8129 19.1618C16.9727 19.2689 17.1176 19.3969 17.2437 19.5423C17.3846 19.7041 17.4586 19.9135 17.4507 20.1279C17.4244 20.3265 17.3386 20.5125 17.2045 20.6614C17.0839 20.8017 16.9467 20.927 16.7961 21.0344C16.5037 21.246 16.1914 21.4284 15.8635 21.579C16.1573 21.3775 16.4371 21.1563 16.7009 20.9169C16.8274 20.8005 16.9411 20.6711 17.0404 20.5308C17.1298 20.4091 17.1817 20.2639 17.1896 20.113C17.1896 19.8277 16.9098 19.5982 16.6301 19.4136C16.3503 19.2289 16.022 19.0685 15.7124 18.841C15.6299 18.7811 15.5537 18.713 15.4849 18.6377C15.4405 18.5703 15.3893 18.5078 15.3319 18.4512C15.2192 18.3736 15.0879 18.3273 14.9514 18.3169C14.789 18.3024 14.6253 18.3093 14.4646 18.3374C14.2968 18.3629 14.131 18.4003 13.9685 18.4493C13.292 18.656 12.6587 18.984 12.0996 19.4173Z" fill="#E5E2DF"/>
  <path d="M11.8892 18.9549C11.6579 19.0668 11.3539 19.4678 11.4528 19.7308C11.5516 19.9938 12.0123 20.0181 12.2455 19.9043C12.4786 19.7905 12.9524 19.5592 12.7453 19.0985C12.5868 18.7479 12.1186 18.8411 11.8892 18.9549Z" fill="#EFD460"/>
  <path d="M15.9497 23.9106C16.1363 23.1906 19.4077 21.0438 19.7677 20.8032C20.0587 20.6055 19.8218 20.4153 19.7248 20.3481C19.8237 20.4377 19.9113 20.5869 19.6875 20.7417C19.3294 20.9823 16.0486 23.1272 15.8695 23.8472C15.8192 24.0561 15.6588 24.168 15.5469 24.1344C15.642 24.2855 15.8845 24.1754 15.9497 23.9106Z" fill="#E04E0E"/>
  <path d="M15.5465 24.1345C15.6584 24.168 15.8189 24.0561 15.8692 23.8472C16.0557 23.1273 19.3291 20.9824 19.6872 20.7418C19.9166 20.5869 19.8233 20.4377 19.7245 20.3482L19.689 20.3277C19.3328 20.1971 16.2348 22.26 15.7107 23.3119C15.4813 23.7633 15.4719 24.0188 15.5465 24.1345Z" fill="#F95A0B"/>
  <path d="M14.2319 23.7929C14.4184 23.0767 17.7141 20.9952 18.076 20.7583C18.3707 20.5718 18.1338 20.3704 18.0368 20.3032C18.1357 20.3946 18.2233 20.5457 17.9976 20.6949C17.6377 20.9299 14.3382 23.0114 14.1517 23.7276C14.0995 23.9347 13.9372 24.0447 13.8271 24.0074C13.9223 24.1622 14.1629 24.0559 14.2319 23.7929Z" fill="#E04E0E"/>
  <path d="M13.833 24.0076C13.943 24.0449 14.1053 23.9349 14.1575 23.7279C14.344 23.0116 17.6435 20.9301 18.0035 20.6951C18.2329 20.5459 18.1415 20.3948 18.0426 20.3034L17.9979 20.2885C17.6435 20.1505 14.5287 22.1537 13.9934 23.1982C13.7658 23.6458 13.7546 23.8957 13.833 24.0076Z" fill="#F95A0B"/>
  <path d="M15.3863 23.8564C15.5728 23.1364 18.8443 20.9896 19.2042 20.749C19.4971 20.5625 19.2602 20.3611 19.1613 20.2939C19.2602 20.3835 19.3479 20.5346 19.1259 20.6875C18.7659 20.9281 15.4851 23.0749 15.3061 23.7948C15.2557 24.0019 15.0953 24.1156 14.9834 24.0802C15.0785 24.2313 15.3247 24.1212 15.3863 23.8564Z" fill="#E04E0E"/>
  <path d="M14.9832 24.08C15.0951 24.1155 15.2555 24.0017 15.3059 23.7947C15.4924 23.0747 18.7657 20.9279 19.1257 20.6873C19.3533 20.5344 19.26 20.3833 19.1612 20.2938L19.1257 20.2751C18.7695 20.1427 15.6715 22.2074 15.1473 23.2594C14.9179 23.7089 14.9105 23.97 14.9832 24.08Z" fill="#F95A0B"/>
  <path d="M35.248 16.5412C32.1406 14.7339 29.6525 18.2199 30.143 18.5686C30.6336 18.9174 32.2693 20.1466 32.5491 20.1018C32.8289 20.057 36.8389 17.4663 35.248 16.5412Z" fill="#D32E18"/>
  <path d="M33.5925 15.7897C32.7737 15.2749 30.5859 18.649 30.6922 18.774C30.7985 18.8989 31.1455 19.3895 31.2835 19.2776C31.4215 19.1657 34.0103 16.0546 33.5925 15.7897Z" fill="#FF3608"/>
  <path d="M34.7425 15.6253C33.9087 15.1366 31.1371 19.4731 31.236 19.6186C31.3348 19.7641 31.6594 20.2826 31.8235 20.1278C31.9876 19.973 35.1696 15.8827 34.7425 15.6253Z" fill="#FF3608"/>
  <path d="M32.7551 15.1816C31.8803 14.8366 30.1439 18.7627 30.267 18.8784C30.3901 18.994 30.7929 19.4043 30.916 19.2514C31.0391 19.0985 33.2027 15.357 32.7551 15.1816Z" fill="#E03114"/>
  <path d="M35.5505 16.1251C34.603 15.504 31.7382 19.5309 31.8613 19.6932C31.9844 19.8554 32.363 20.4392 32.5365 20.2975C32.7099 20.1557 36.028 16.4422 35.5505 16.1251Z" fill="#E03114"/>
  <path d="M36.5274 16.6495C35.6825 15.9053 32.5546 18.9828 32.6516 19.1694C32.7486 19.3559 33.0582 19.9322 33.2391 19.8445C33.4201 19.7569 36.9601 17.03 36.5274 16.6495Z" fill="#FF3608"/>
  <path d="M29.9568 14.7617C30.7775 15.2821 30.3392 18.7326 30.1956 18.6953C30.0519 18.658 29.5577 18.5517 29.5297 18.3764C29.5017 18.201 29.5372 14.5062 29.9568 14.7617Z" fill="#E03114"/>
  <path d="M31.3351 15.4035C30.4343 15.2412 29.4868 19.0499 29.6248 19.1338C29.7628 19.2177 30.2254 19.5161 30.3149 19.3651C30.4044 19.214 31.7958 15.4855 31.3351 15.4035Z" fill="#FF3608"/>
  <path d="M16.7666 15.7038C23.2238 14.3702 23.8262 17.7107 23.1081 17.9793C22.39 18.2479 19.9224 19.1711 19.5643 19.0984C19.2062 19.0256 14.4053 16.185 16.7666 15.7038Z" fill="#994F25"/>
  <path d="M18.4951 15.0097C19.3531 14.7449 20.9478 17.6489 20.8266 17.7366C20.7053 17.8243 20.295 18.1339 20.1738 18.0276C20.0525 17.9212 18.0419 15.1459 18.4951 15.0097Z" fill="#C1682D"/>
  <path d="M17.7348 15.0769C18.6282 14.9911 19.7473 18.1731 19.6148 18.2365C19.4824 18.2999 19.031 18.52 18.9322 18.3913C18.8333 18.2626 17.2759 15.1217 17.7348 15.0769Z" fill="#C1682D"/>
  <path d="M15.6978 15.8923C16.5707 15.6256 18.1654 18.5315 18.0423 18.6098C17.9192 18.6882 17.5126 19.009 17.397 18.9008C17.2814 18.7926 15.2595 16.0284 15.6978 15.8923Z" fill="#B25724"/>
  <path d="M16.7965 15.3047C17.6918 15.2599 18.6953 18.4922 18.5591 18.5463C18.423 18.6004 17.966 18.8037 17.8727 18.6694C17.7795 18.5351 16.3358 15.327 16.7965 15.3047Z" fill="#C1682D"/>
  <path d="M22.9154 14.7582C22.0388 15.0212 22.0388 17.9197 22.1899 17.9178C22.341 17.9159 22.8371 17.9178 22.8856 17.7872C22.9341 17.6567 23.3631 14.6239 22.9154 14.7582Z" fill="#994F25"/>
  <path d="M20.5997 14.7897C21.5062 14.8344 21.965 18.1246 21.8195 18.1637C21.6741 18.2029 21.1798 18.3596 21.1089 18.2178C21.038 18.0761 20.1334 14.7654 20.5997 14.7897Z" fill="#C1682D"/>
  <path d="M21.6441 14.5695C22.5394 14.6273 23.2594 17.9548 23.1195 17.9939C22.9796 18.0331 22.5058 18.1804 22.4256 18.0406C22.3454 17.9007 21.1853 14.5415 21.6441 14.5695Z" fill="#B25724"/>
  <path d="M19.9408 14.5919C20.8491 14.6367 21.3061 17.9268 21.1606 17.9679C21.0151 18.0089 20.5209 18.1544 20.45 18.0201C20.3791 17.8858 19.4764 14.5677 19.9408 14.5919Z" fill="#B25724"/>
  <path d="M12.5791 17.2743C11.2585 17.3191 9.82237 18.3934 9.18076 18.8765C8.53915 19.3596 7.3156 20.3518 8.12322 21.2882C8.93083 22.2245 10.9023 22.5938 11.958 22.9668C13.0137 23.3398 14.4909 21.8477 15.388 21.4747C16.2851 21.1016 17.2755 20.6092 17.49 19.4976C17.8612 17.5802 14.4964 17.2072 12.5791 17.2743Z" fill="#E5E2DF"/>
  <path d="M17.3241 18.9233C17.0129 18.6588 16.6548 18.4551 16.2685 18.3227C15.8892 18.1822 15.4977 18.0773 15.099 18.0093C14.7032 17.9372 14.302 17.8991 13.8997 17.8956C13.5106 17.8783 13.1215 17.9308 12.7508 18.0504C12.6697 18.079 12.5926 18.1179 12.5214 18.166C12.4519 18.2204 12.3893 18.2831 12.3348 18.3525C12.1903 18.523 12.0227 18.6724 11.8368 18.7964C11.4862 19.0314 11.1374 19.2366 10.8241 19.4809C10.508 19.7167 10.255 20.0268 10.0873 20.3837C9.93272 20.7583 9.86882 21.1641 9.90081 21.568C9.7898 21.1584 9.79367 20.726 9.91201 20.3184C10.0527 19.9071 10.3013 19.5412 10.632 19.259C10.9507 18.9931 11.2832 18.744 11.6279 18.5129C11.7119 18.4532 11.7846 18.3917 11.863 18.3264C11.9301 18.266 11.9925 18.2006 12.0495 18.1306C12.122 18.0309 12.2073 17.9413 12.3031 17.8638C12.4001 17.7939 12.5062 17.7374 12.6183 17.696C13.035 17.5633 13.4727 17.5095 13.909 17.5374C14.3314 17.5573 14.7507 17.6198 15.1605 17.724C15.5696 17.8219 15.9663 17.9658 16.3431 18.1529C16.7233 18.3335 17.0585 18.5967 17.3241 18.9233Z" fill="#F4F4F4"/>
  <path d="M17.2983 18.1602C17.5538 18.2963 17.8821 18.7607 17.7627 19.0517C17.6433 19.3427 17.1211 19.3483 16.8655 19.2121C16.61 19.0759 16.0822 18.7924 16.3321 18.2795C16.5205 17.8972 17.0446 18.024 17.2983 18.1602Z" fill="#EFD460"/>
  <path d="M16.8319 19.0181C16.5194 18.7568 16.1616 18.5552 15.7763 18.4231C15.3965 18.2843 15.0051 18.1795 14.6068 18.1098C14.2109 18.0392 13.8097 18.0017 13.4075 17.9979C13.0185 17.98 12.6294 18.0318 12.2586 18.1508C12.1778 18.1809 12.1008 18.2203 12.0292 18.2683C11.9593 18.3222 11.8966 18.3849 11.8427 18.4548C11.6946 18.6201 11.5253 18.765 11.3391 18.8857C10.9884 19.1188 10.6396 19.3258 10.3244 19.5702C10.0108 19.8073 9.76035 20.118 9.59514 20.4748C9.44026 20.8493 9.37634 21.2552 9.40863 21.6592C9.29761 21.2495 9.30149 20.8171 9.41982 20.4095C9.56191 20 9.81117 19.6361 10.1416 19.3557C10.4587 19.0666 10.8187 18.8446 11.1395 18.6096C11.2234 18.5518 11.2962 18.4903 11.3745 18.4231C11.4412 18.3623 11.5035 18.2969 11.561 18.2273C11.6306 18.1327 11.7114 18.0469 11.8016 17.9717C11.8988 17.9011 12.0056 17.8446 12.1187 17.8039C12.5347 17.6712 12.9718 17.6174 13.4075 17.6453C13.8299 17.6649 14.2493 17.7274 14.659 17.8319C15.0685 17.9312 15.4658 18.0757 15.8434 18.2627C16.2249 18.438 16.5626 18.6961 16.8319 19.0181Z" fill="#F4F4F4"/>
  <path d="M16.806 18.2554C17.0596 18.3915 17.3898 18.856 17.2704 19.1451C17.151 19.4342 16.6269 19.4435 16.3732 19.3073C16.1196 19.1712 15.5899 18.8877 15.8379 18.3747C16.0282 17.9924 16.5504 18.1192 16.806 18.2554Z" fill="#EFD460"/>
  <path d="M11.0781 18.7963C11.2349 18.4906 11.4641 18.2281 11.7459 18.0316C12.0266 17.829 12.3384 17.6734 12.6691 17.5709C13.0046 17.4604 13.3568 17.4093 13.7099 17.4198C13.8951 17.4251 14.0782 17.4598 14.2526 17.5224C14.4509 17.589 14.6211 17.7204 14.7357 17.8954L14.801 18.0092C14.8196 18.039 14.8327 18.0707 14.8551 18.1006C14.8987 18.1654 14.946 18.2277 14.9968 18.2871C15.0994 18.4046 15.2206 18.5165 15.3363 18.6359C15.5889 18.8732 15.809 19.1429 15.9909 19.4379C16.1699 19.7406 16.2813 20.0785 16.3173 20.4283C16.3474 20.7675 16.3235 21.1093 16.2465 21.4411C16.2458 21.1111 16.2096 20.7822 16.1383 20.46C16.0623 20.1504 15.9294 19.8576 15.7466 19.5964C15.5554 19.3377 15.3358 19.1012 15.0919 18.8914C14.9688 18.7776 14.8457 18.662 14.7189 18.5296C14.6563 18.4634 14.5983 18.393 14.5454 18.3188C14.5184 18.2804 14.4935 18.2406 14.4708 18.1994L14.4093 18.095C14.3384 17.9895 14.2349 17.9102 14.1146 17.8693C13.9746 17.819 13.8284 17.7883 13.68 17.7779C13.367 17.7585 13.0528 17.7848 12.7474 17.8562C12.1044 17.982 11.519 18.3116 11.0781 18.7963Z" fill="#F4F4F4"/>
  <path d="M11.0966 18.0239C10.9194 18.1601 10.69 18.6245 10.772 18.9155C10.8541 19.2064 11.2215 19.212 11.4081 19.0759C11.5946 18.9397 11.9527 18.6562 11.7811 18.1433C11.6375 17.7609 11.2738 17.8878 11.0966 18.0239Z" fill="#EFD460"/>
  <path d="M15.985 17.6771C15.1953 17.5815 14.3942 17.6546 13.6349 17.8916C13.4507 17.9488 13.2712 18.0199 13.0977 18.1042C12.9288 18.1813 12.7707 18.2804 12.6277 18.3989C12.495 18.5036 12.391 18.6403 12.3256 18.7962C12.3113 18.8322 12.3013 18.8698 12.2957 18.9081C12.2957 18.923 12.2957 18.9585 12.2827 18.9883C12.2696 19.0181 12.2696 19.048 12.2621 19.076C12.2347 19.1802 12.1985 19.2819 12.154 19.38C11.9674 19.7661 11.7492 20.0981 11.5664 20.4487C11.4728 20.6173 11.3929 20.7932 11.3277 20.9747C11.2629 21.1383 11.2474 21.3172 11.2829 21.4895C11.3087 21.5711 11.3512 21.6464 11.4077 21.7106C11.4643 21.7748 11.5336 21.8266 11.6112 21.8625C11.7838 21.9499 11.9677 22.0126 12.1577 22.049C12.5523 22.1213 12.9522 22.1606 13.3533 22.1665C12.9491 22.2225 12.54 22.2338 12.1334 22.2001C11.9225 22.1819 11.7156 22.1316 11.5198 22.0509C11.4097 22.0086 11.3097 21.9438 11.2262 21.8607C11.1427 21.7775 11.0775 21.6777 11.0349 21.5678C10.9675 21.3471 10.9675 21.1114 11.0349 20.8908C11.0925 20.6881 11.1693 20.4913 11.2643 20.3032C11.4508 19.9302 11.656 19.5833 11.8126 19.2326C11.8522 19.1521 11.8852 19.0685 11.9115 18.9827C11.9115 18.9622 11.9115 18.9435 11.9245 18.923L11.9357 18.854C11.9428 18.7904 11.9572 18.7278 11.9786 18.6675C12.0605 18.4458 12.2034 18.2518 12.3908 18.1079C12.7318 17.8451 13.1267 17.661 13.5472 17.5689C13.9511 17.4706 14.3665 17.4273 14.782 17.4402C15.1937 17.4487 15.6008 17.5288 15.985 17.6771Z" fill="#E5E2DF"/>
  <path d="M15.9682 17.0802C16.248 17.0447 16.7423 17.248 16.7721 17.567C16.802 17.8859 16.3581 18.2011 16.0708 18.2366C15.7836 18.272 15.2091 18.341 15.1905 17.7591C15.1849 17.3152 15.6978 17.1175 15.9682 17.0802Z" fill="#EFD460"/>
  <path d="M9.62695 17.847C10.0115 17.7013 10.4187 17.6242 10.83 17.6194C11.2455 17.6065 11.6608 17.6498 12.0647 17.7481C12.4855 17.8394 12.8806 18.0235 13.2211 18.2871C13.4084 18.4312 13.5512 18.6251 13.6333 18.8467C13.6543 18.9071 13.6687 18.9697 13.6762 19.0332L13.6874 19.1041C13.6874 19.1227 13.6874 19.1433 13.7005 19.1638C13.7238 19.2516 13.755 19.3371 13.7937 19.4193C13.9485 19.7699 14.1667 20.1187 14.3402 20.4899C14.4379 20.6753 14.5179 20.8695 14.5789 21.07C14.6463 21.2906 14.6463 21.5263 14.5789 21.747C14.5367 21.856 14.4723 21.9551 14.3897 22.0379C14.3072 22.1207 14.2084 22.1855 14.0996 22.2282C13.9041 22.3094 13.697 22.3591 13.486 22.3756C13.0793 22.4095 12.6701 22.3977 12.2661 22.3401C12.6665 22.3352 13.0658 22.2971 13.4598 22.2264C13.6491 22.1897 13.8324 22.1269 14.0045 22.0398C14.0821 22.0039 14.1514 21.9521 14.2079 21.8879C14.2644 21.8237 14.307 21.7484 14.3327 21.6668C14.3683 21.4945 14.3527 21.3156 14.288 21.152C14.2222 20.9704 14.1431 20.794 14.0511 20.6242C13.8646 20.2754 13.6426 19.9415 13.4617 19.5573C13.4142 19.457 13.3755 19.3528 13.3461 19.2458C13.3461 19.2179 13.333 19.188 13.3256 19.1582C13.3181 19.1283 13.3256 19.0929 13.3125 19.078C13.3067 19.0399 13.2973 19.0024 13.2845 18.9661C13.2185 18.81 13.1147 18.6728 12.9824 18.5669C12.8389 18.4482 12.6802 18.3491 12.5105 18.2722C12.3372 18.1876 12.1576 18.1165 11.9733 18.0596C11.215 17.8236 10.4153 17.7511 9.62695 17.847Z" fill="#E5E2DF"/>
  <path d="M9.64337 17.2594C9.3636 17.224 8.8712 17.4254 8.83949 17.7462C8.80778 18.067 9.25542 18.3804 9.54265 18.4233C9.82988 18.4662 10.4025 18.5277 10.4211 17.9458C10.4267 17.4907 9.91568 17.293 9.64337 17.2594Z" fill="#EFD460"/>
  <path d="M15.3249 18.1231C14.6228 18.0497 13.9132 18.1208 13.2397 18.332C13.0772 18.3819 12.9188 18.4442 12.7659 18.5185C12.6167 18.5856 12.4774 18.6728 12.3518 18.7778C12.2371 18.8702 12.1468 18.9893 12.0889 19.1247C12.0776 19.1556 12.0688 19.1874 12.0627 19.2198C12.0627 19.231 12.0627 19.2646 12.0515 19.2907C12.0404 19.3168 12.0404 19.3466 12.0329 19.3709C12.0072 19.4671 11.9729 19.5607 11.9303 19.6507C11.768 19.9957 11.5573 20.2904 11.4043 20.6C11.3209 20.7488 11.2498 20.9041 11.1917 21.0644C11.1358 21.2074 11.1216 21.3632 11.1507 21.5139C11.1721 21.5853 11.2085 21.6513 11.2573 21.7076C11.3062 21.7639 11.3665 21.8091 11.4342 21.8403C11.5863 21.9172 11.7482 21.9731 11.9154 22.0063C12.2657 22.0717 12.6205 22.1098 12.9767 22.1201C12.6173 22.1728 12.2532 22.1853 11.8911 22.1574C11.7028 22.1419 11.5179 22.0979 11.3428 22.0269C11.2448 21.9883 11.1558 21.93 11.0814 21.8556C11.0069 21.7811 10.9486 21.6921 10.9101 21.5941C10.8503 21.3952 10.8503 21.1831 10.9101 20.9842C10.9613 20.8023 11.0293 20.6256 11.1134 20.4564C11.2738 20.1263 11.4603 19.8148 11.5983 19.507C11.6319 19.4344 11.6588 19.3589 11.6785 19.2814C11.6833 19.2642 11.6871 19.2468 11.6897 19.2291L11.699 19.1676C11.7074 19.1119 11.7205 19.057 11.7382 19.0034C11.8132 18.8036 11.9423 18.6285 12.1112 18.498C12.4171 18.263 12.7713 18.0986 13.1483 18.0168C13.5089 17.9299 13.8799 17.8935 14.2506 17.9086C14.6185 17.9159 14.9823 17.9886 15.3249 18.1231Z" fill="#E5E2DF"/>
  <path d="M15.3117 17.6004C15.5598 17.5706 15.9981 17.7496 16.0261 18.0331C16.0541 18.3166 15.6531 18.5927 15.4087 18.63C15.1644 18.6673 14.644 18.7232 14.6272 18.2047C14.6142 17.8112 15.0637 17.6321 15.3117 17.6004Z" fill="#EFD460"/>
  <path d="M10.4756 22.7673C11.1776 22.8407 11.8873 22.7696 12.5608 22.5584C12.7233 22.5085 12.8817 22.4461 13.0346 22.3718C13.1838 22.3048 13.3231 22.2175 13.4486 22.1126C13.5633 22.0202 13.6536 21.9011 13.7116 21.7657C13.7229 21.7347 13.7317 21.7029 13.7377 21.6706C13.7377 21.6594 13.7377 21.6258 13.7489 21.5997C13.7601 21.5736 13.7601 21.5456 13.7676 21.5195C13.7932 21.4233 13.8276 21.3297 13.8702 21.2397C14.0324 20.8946 14.2432 20.6 14.3961 20.2903C14.4796 20.1416 14.5507 19.9863 14.6088 19.8259C14.6647 19.683 14.6789 19.5271 14.6498 19.3764C14.6284 19.305 14.592 19.239 14.5431 19.1827C14.4943 19.1265 14.434 19.0812 14.3663 19.05C14.2142 18.9731 14.0523 18.9173 13.8851 18.884C13.5348 18.8186 13.18 18.7806 12.8238 18.7702C13.1832 18.7182 13.5473 18.7063 13.9093 18.7348C14.0977 18.7487 14.2828 18.7921 14.4577 18.8635C14.5562 18.902 14.6456 18.9605 14.7204 19.0353C14.7952 19.1101 14.8537 19.1996 14.8923 19.2981C14.9522 19.497 14.9522 19.7091 14.8923 19.908C14.8414 20.09 14.7733 20.2667 14.689 20.4358C14.5286 20.766 14.3421 21.0774 14.204 21.3852C14.1704 21.4578 14.1436 21.5333 14.1238 21.6109C14.119 21.628 14.1153 21.6455 14.1126 21.6631L14.1033 21.7246C14.0949 21.7804 14.0818 21.8353 14.0641 21.8888C13.9892 22.0886 13.86 22.2637 13.6911 22.3942C13.3852 22.6293 13.0311 22.7936 12.6541 22.8754C12.2934 22.9623 11.9225 22.9987 11.5518 22.9836C11.1831 22.9759 10.8186 22.9026 10.4756 22.7673Z" fill="#E5E2DF"/>
  <path d="M10.4882 23.2892C10.2401 23.3191 9.80183 23.14 9.77385 22.8565C9.74587 22.573 10.1469 22.297 10.3912 22.2615C10.6356 22.2261 11.1559 22.1664 11.1727 22.6849C11.1858 23.0859 10.7363 23.2575 10.4882 23.2892Z" fill="#EFD460"/>
  <path d="M10.0391 20.626C10.5968 21.0593 11.2289 21.3873 11.9042 21.594C12.0669 21.6448 12.2335 21.6822 12.4022 21.706C12.5623 21.7337 12.7252 21.7412 12.8872 21.7283C13.0254 21.7184 13.1586 21.672 13.2732 21.594C13.3316 21.5378 13.3835 21.4753 13.428 21.4075C13.4969 21.3323 13.5731 21.2642 13.6556 21.2042C13.9652 20.9785 14.286 20.8312 14.5733 20.6335C14.8605 20.4358 15.1328 20.2194 15.1328 19.9322C15.1243 19.7768 15.0698 19.6275 14.9761 19.5032C14.8752 19.3631 14.7609 19.2332 14.6348 19.1153C14.3703 18.8774 14.0912 18.6563 13.7992 18.4531C14.1276 18.6036 14.44 18.7867 14.7318 18.9996C14.8831 19.1069 15.0209 19.2322 15.1421 19.3726C15.2777 19.5246 15.3648 19.7136 15.3921 19.9154C15.399 20.13 15.3244 20.3393 15.1832 20.5011C15.0629 20.651 14.9222 20.7835 14.7654 20.8946C14.4651 21.111 14.1461 21.2882 13.8813 21.4877C13.8192 21.5337 13.7623 21.5862 13.7116 21.6444C13.6573 21.7259 13.5948 21.8015 13.525 21.8701C13.3541 22.0048 13.1455 22.0831 12.9282 22.0939C12.5461 22.1134 12.1642 22.0498 11.8091 21.9074C11.4644 21.7764 11.1383 21.6008 10.8392 21.3851C10.5333 21.177 10.263 20.9206 10.0391 20.626Z" fill="#E5E2DF"/>
  <path d="M9.82859 21.0906C9.59918 20.9768 9.29329 20.5758 9.39214 20.3147C9.491 20.0535 9.95169 20.0274 10.1848 20.1393C10.418 20.2512 10.8917 20.4863 10.6847 20.9469C10.5262 21.2976 10.058 21.2025 9.82859 21.0906Z" fill="#EFD460"/>
  <path d="M9.94336 19.9431C10.5005 20.3774 11.1327 20.7055 11.8085 20.9111C11.9706 20.9618 12.1365 20.9993 12.3046 21.023C12.4652 21.0517 12.6289 21.0592 12.7914 21.0454C12.9334 21.035 13.07 20.9867 13.1869 20.9055C13.2442 20.8488 13.2955 20.7863 13.3398 20.719C13.4086 20.6431 13.4848 20.5744 13.5674 20.5138C13.877 20.2881 14.1978 20.1408 14.485 19.9431C14.7722 19.7454 15.0446 19.529 15.0446 19.2436C15.0374 19.0874 14.9827 18.9371 14.8879 18.8128C14.7885 18.672 14.674 18.5426 14.5466 18.4267C14.2833 18.1868 14.0041 17.965 13.711 17.7627C14.0393 17.9133 14.3517 18.0963 14.6435 18.3092C14.7942 18.4166 14.9314 18.5419 15.052 18.6822C15.1887 18.8337 15.2748 19.0241 15.2982 19.2268C15.3064 19.4419 15.2323 19.6519 15.0912 19.8144C14.9667 19.9614 14.8238 20.0918 14.6659 20.2023C14.3675 20.4187 14.0486 20.594 13.7837 20.7954C13.7211 20.8408 13.6636 20.8927 13.6121 20.9502C13.5579 21.0317 13.4954 21.1073 13.4256 21.1759C13.2549 21.311 13.0462 21.3893 12.8288 21.3997C12.4466 21.4195 12.0647 21.3559 11.7097 21.2132C11.3644 21.0822 11.0377 20.9067 10.7379 20.691C10.4347 20.4859 10.1664 20.2333 9.94336 19.9431Z" fill="#E5E2DF"/>
  <path d="M9.7294 20.4075C9.49999 20.2955 9.19597 19.8927 9.29295 19.6316C9.38994 19.3704 9.8525 19.3443 10.0875 19.4562C10.3225 19.5681 10.7944 19.8031 10.5874 20.2638C10.4307 20.6145 9.96254 20.5194 9.7294 20.4075Z" fill="#EFD460"/>
  <path d="M11.6787 18.3152C11.8995 18.0274 12.1638 17.7757 12.4621 17.5691C12.7625 17.3545 13.0891 17.179 13.4338 17.0469C13.789 16.9045 14.1708 16.8409 14.5529 16.8604C14.7701 16.871 14.9783 16.95 15.1479 17.0861C15.2183 17.1541 15.2809 17.2298 15.3344 17.3117C15.3857 17.3688 15.4426 17.4207 15.5041 17.4665C15.769 17.668 16.0879 17.8396 16.3882 18.0597C16.5475 18.1647 16.6918 18.2908 16.8172 18.4346C16.9579 18.5966 17.0325 18.8057 17.0261 19.0202C17.0006 19.2229 16.9148 19.4133 16.7799 19.5667C16.6587 19.7072 16.5209 19.8325 16.3696 19.9397C16.0778 20.1527 15.7654 20.3357 15.437 20.4862C15.7299 20.2842 16.009 20.0631 16.2726 19.8241C16.3982 19.7064 16.5125 19.5771 16.6139 19.438C16.7072 19.313 16.7611 19.163 16.7687 19.0072C16.7687 18.7199 16.4889 18.4924 16.2092 18.3059C15.9294 18.1194 15.6011 17.9608 15.2915 17.7351C15.2096 17.6752 15.134 17.6071 15.0658 17.5318C15.021 17.4644 14.9691 17.4018 14.911 17.3453C14.7947 17.2627 14.6579 17.2137 14.5156 17.2036C14.353 17.1908 14.1895 17.1983 14.0288 17.2259C13.861 17.2515 13.6952 17.2889 13.5327 17.3379C12.8604 17.5483 12.2322 17.8795 11.6787 18.3152Z" fill="#E5E2DF"/>
  <path d="M11.4673 17.8526C11.2361 17.9645 10.932 18.3655 11.0309 18.6285C11.1298 18.8915 11.5904 18.9139 11.8236 18.8019C12.0567 18.69 12.5268 18.4569 12.3235 17.9943C12.1649 17.6455 11.6968 17.7388 11.4673 17.8526Z" fill="#EFD460"/>
  <path d="M9.94336 19.9414C10.1632 19.6527 10.4276 19.4009 10.7267 19.1954C11.0265 18.9797 11.3532 18.8041 11.6985 18.6731C12.0538 18.5314 12.4355 18.4678 12.8176 18.4866C13.035 18.4987 13.2434 18.5775 13.4144 18.7123C13.4842 18.7809 13.5467 18.8565 13.6009 18.938C13.6524 18.9956 13.71 19.0475 13.7725 19.0928C14.0374 19.2942 14.3563 19.4658 14.6547 19.6859C14.8126 19.7964 14.9555 19.9268 15.08 20.0739C15.2211 20.2363 15.2952 20.4464 15.287 20.6614C15.2636 20.8641 15.1775 21.0545 15.0408 21.206C14.9202 21.3463 14.783 21.4716 14.6324 21.579C14.3405 21.7919 14.0281 21.975 13.6998 22.1255C13.9929 21.9233 14.2721 21.7014 14.5354 21.4615C14.6629 21.3457 14.7773 21.2162 14.8767 21.0755C14.9712 20.951 15.0258 20.8007 15.0334 20.6446C15.0334 20.3592 14.7536 20.1298 14.4738 19.9452C14.194 19.7605 13.8658 19.6001 13.5562 19.3744C13.4756 19.3136 13.4012 19.2448 13.3342 19.1693C13.2899 19.1019 13.2386 19.0394 13.1813 18.9828C13.0644 18.9016 12.9278 18.8532 12.7859 18.8429C12.6233 18.829 12.4596 18.8365 12.299 18.8652C12.1309 18.889 11.965 18.9264 11.8029 18.9772C11.1293 19.1822 10.4991 19.5091 9.94336 19.9414Z" fill="#E5E2DF"/>
  <path d="M9.7294 19.4771C9.49999 19.589 9.19597 19.9901 9.29295 20.253C9.38994 20.516 9.8525 20.5403 10.0875 20.4284C10.3225 20.3165 10.7944 20.0814 10.5874 19.6208C10.4307 19.2701 9.96254 19.3652 9.7294 19.4771Z" fill="#EFD460"/>
  <path d="M16.3893 20.1468C16.0323 20.2611 15.6616 20.3276 15.287 20.3445C14.9097 20.3662 14.5311 20.3506 14.1567 20.2978C13.7741 20.2479 13.4009 20.1424 13.0488 19.9845C12.8569 19.9018 12.6832 19.782 12.5378 19.632C12.4544 19.5445 12.3908 19.4402 12.3513 19.3261L12.3196 19.1862C12.3107 19.1514 12.2982 19.1177 12.2823 19.0855C12.1368 18.7945 11.8943 18.498 11.6929 18.179C11.5809 18.0157 11.4912 17.8382 11.4262 17.6512C11.39 17.5464 11.3748 17.4355 11.3814 17.3248C11.3885 17.2033 11.435 17.0874 11.5138 16.9946C11.6618 16.8435 11.8537 16.743 12.0622 16.7074C12.246 16.6661 12.4334 16.6423 12.6217 16.6365C12.9957 16.6241 13.37 16.6428 13.7408 16.6925C13.3678 16.713 12.9948 16.7372 12.6404 16.7913C12.4628 16.8179 12.2875 16.8584 12.1163 16.9126C11.9607 16.9523 11.8205 17.0373 11.7134 17.1569C11.6785 17.2173 11.6602 17.2858 11.6602 17.3555C11.6602 17.4253 11.6785 17.4938 11.7134 17.5542C11.7815 17.711 11.8666 17.8598 11.9671 17.9981C12.0696 18.1454 12.1816 18.2891 12.2935 18.4383C12.4153 18.5918 12.5221 18.7567 12.6124 18.9307C12.6366 18.9814 12.6572 19.0337 12.674 19.0873C12.674 19.1153 12.6889 19.1526 12.6926 19.1769C12.6974 19.1902 12.7012 19.2039 12.7038 19.2179C12.7276 19.2793 12.7638 19.3352 12.8101 19.382C12.9255 19.4951 13.0592 19.5878 13.2055 19.6562C13.5251 19.8032 13.8605 19.9127 14.2052 19.9826C14.9221 20.1383 15.6572 20.1936 16.3893 20.1468Z" fill="#F4F4F4"/>
  <path d="M16.3732 20.5981C16.6529 20.6242 17.1453 20.4694 17.1752 20.2251C17.205 19.9807 16.7611 19.729 16.4813 19.7103C16.2016 19.6916 15.6215 19.6301 15.6029 20.0833C15.5879 20.4172 16.0934 20.572 16.3732 20.5981Z" fill="#EFD460"/>
  <path d="M10.3574 19.5927C10.5133 19.2865 10.742 19.0233 11.0233 18.8261C11.3081 18.6246 11.6228 18.4691 11.9559 18.3654C12.2912 18.2568 12.6424 18.2057 12.9947 18.2143C13.1805 18.2205 13.3641 18.2551 13.5394 18.3169C13.737 18.3839 13.9064 18.5152 14.0206 18.6899L14.0859 18.8037C14.1064 18.8335 14.1176 18.8652 14.1418 18.8951C14.1855 18.9599 14.2328 19.0222 14.2836 19.0816C14.3843 19.1991 14.5055 19.311 14.623 19.4304C14.8751 19.6682 15.0952 19.9378 15.2777 20.2324C15.4522 20.5359 15.5608 20.8727 15.5966 21.2209C15.626 21.5603 15.6014 21.9021 15.5239 22.2337C15.5241 21.9037 15.4878 21.5747 15.4157 21.2526C15.3408 20.9424 15.2086 20.6489 15.0259 20.3872C14.8332 20.1297 14.6137 19.8934 14.3712 19.6822C14.2481 19.5684 14.125 19.4546 13.9982 19.3222C13.9389 19.2539 13.8835 19.1823 13.8322 19.1077C13.8041 19.069 13.7786 19.0285 13.7557 18.9865L13.6942 18.8839C13.625 18.7777 13.5217 18.6981 13.4014 18.6582C13.2616 18.6073 13.1152 18.5765 12.9668 18.5668C12.6537 18.5467 12.3395 18.5731 12.0342 18.6452C11.3873 18.7708 10.7988 19.1033 10.3574 19.5927Z" fill="#E8E6E2"/>
  <path d="M10.3747 18.8298C10.1975 18.966 9.96811 19.4304 10.052 19.7195C10.136 20.0086 10.4997 20.0179 10.6769 19.8817C10.8541 19.7456 11.2215 19.4621 11.0499 18.9492C10.9175 18.5668 10.5538 18.6918 10.3747 18.8298Z" fill="#EFD460"/>
  <path d="M12.5011 20.2511C12.0612 19.7638 11.4757 19.4315 10.8318 19.3036C10.5265 19.2315 10.2123 19.2051 9.89923 19.2253C9.75013 19.2347 9.60316 19.2655 9.46278 19.3166C9.34242 19.3565 9.23917 19.4361 9.16995 19.5423L9.1084 19.6449C9.08553 19.6869 9.05999 19.7274 9.03193 19.7661C8.97874 19.8396 8.92146 19.9099 8.86034 19.9769C8.7391 20.1093 8.616 20.2231 8.48731 20.3369C8.24454 20.5457 8.02448 20.7795 7.83077 21.0345C7.6481 21.2955 7.51588 21.5884 7.44096 21.898C7.36887 22.2207 7.33259 22.5503 7.33278 22.881C7.25526 22.5493 7.23071 22.2075 7.26004 21.8682C7.29788 21.5187 7.40911 21.1812 7.58644 20.8778C7.76829 20.586 7.98708 20.3189 8.23738 20.0832C8.35488 19.9639 8.47612 19.8519 8.57683 19.7344C8.6276 19.675 8.67493 19.6127 8.71859 19.5479C8.73925 19.5187 8.75795 19.4882 8.77454 19.4565L8.83982 19.3428C8.95445 19.1677 9.12459 19.0364 9.3229 18.9697C9.49751 18.908 9.68056 18.8734 9.86566 18.8671C10.218 18.8585 10.5693 18.9096 10.9045 19.0182C11.2376 19.122 11.5523 19.2774 11.8371 19.4789C12.1178 19.6787 12.3457 19.9437 12.5011 20.2511Z" fill="#E8E6E2"/>
  <path d="M12.4824 19.4884C12.6689 19.6245 12.889 20.0889 12.8051 20.378C12.7211 20.6671 12.3574 20.6765 12.1802 20.5403C12.0031 20.4042 11.6356 20.1206 11.8072 19.6077C11.9396 19.2254 12.3052 19.3559 12.4824 19.4884Z" fill="#EFD460"/>
  <path d="M8.10254 20.3836C8.32841 20.1055 8.614 19.8817 8.93813 19.729C9.26022 19.566 9.60007 19.4408 9.95091 19.3559C10.3004 19.2629 10.6574 19.2005 11.0178 19.1694C11.3806 19.1387 11.7457 19.1462 12.107 19.1918C12.4922 19.2227 12.8632 19.3511 13.1851 19.5648C13.2291 19.5988 13.2697 19.6369 13.3063 19.6786C13.325 19.6991 13.3418 19.7234 13.3604 19.7457L13.394 19.7905C13.4399 19.8498 13.4924 19.9036 13.5507 19.9509C13.6771 20.0558 13.8147 20.1465 13.961 20.2214C14.1121 20.3034 14.2687 20.3855 14.4273 20.475C14.6045 20.5632 14.7561 20.6955 14.8675 20.8592C14.9259 20.9553 14.9446 21.0704 14.9197 21.18C14.8957 21.2762 14.8533 21.3668 14.7947 21.4468C14.6827 21.5886 14.5515 21.7141 14.4049 21.8198C14.5144 21.684 14.6094 21.5371 14.6884 21.3815C14.7228 21.3108 14.7437 21.2342 14.7499 21.1558C14.7533 21.0884 14.7321 21.0222 14.6903 20.9693C14.5782 20.86 14.4449 20.775 14.2986 20.7194C14.1438 20.6485 13.9778 20.5869 13.8136 20.5086C13.6419 20.4313 13.4788 20.3363 13.3268 20.2251C13.2471 20.1624 13.1745 20.0911 13.1105 20.0125L13.0638 19.9528C13.0527 19.9416 13.0452 19.9285 13.034 19.9173C13.0115 19.8937 12.9872 19.8719 12.9613 19.8521C12.686 19.6853 12.3769 19.5821 12.0567 19.5499C11.3741 19.4649 10.6826 19.4819 10.005 19.6003C9.66325 19.6556 9.32734 19.7424 9.00154 19.8595C8.6716 19.9762 8.36661 20.154 8.10254 20.3836Z" fill="#F4F4F4"/>
  <path d="M8.12925 19.6208C7.87559 19.757 7.54546 20.2214 7.66483 20.5124C7.7842 20.8033 8.3083 20.8089 8.56196 20.6728C8.81563 20.5366 9.34533 20.2531 9.09726 19.7402C8.90702 19.356 8.38477 19.4847 8.12925 19.6208Z" fill="#EFD460"/>
  <path d="M15.3752 20.4451C14.9363 19.9575 14.3513 19.6251 13.7078 19.4976C13.4025 19.4255 13.0882 19.3991 12.7752 19.4193C12.6267 19.429 12.4804 19.4597 12.3406 19.5107C12.2179 19.5467 12.1113 19.6238 12.0385 19.7289L11.9769 19.8315C11.954 19.8735 11.9285 19.914 11.9004 19.9527C11.8445 20.0254 11.7885 20.1001 11.7289 20.1635C11.6076 20.2959 11.4845 20.4097 11.3558 20.5234C11.1133 20.7347 10.8939 20.971 10.7012 21.2285C10.5185 21.4902 10.3863 21.7837 10.3113 22.0939C10.2403 22.4198 10.2059 22.7526 10.2088 23.0862C10.1312 22.7545 10.1067 22.4127 10.136 22.0734C10.1739 21.724 10.2851 21.3865 10.4624 21.083C10.6449 20.7884 10.865 20.5188 11.1171 20.281C11.2327 20.1616 11.3558 20.0497 11.4565 19.9322C11.5073 19.8728 11.5546 19.8105 11.5983 19.7457C11.6225 19.7158 11.6337 19.6841 11.6542 19.6543L11.7177 19.5405C11.8334 19.3666 12.0032 19.2355 12.2007 19.1675C12.3759 19.1056 12.5596 19.071 12.7454 19.0649C13.0977 19.0563 13.449 19.1074 13.7843 19.216C14.1173 19.3197 14.432 19.4752 14.7168 19.6767C14.9957 19.8753 15.2217 20.1391 15.3752 20.4451Z" fill="#F4F4F4"/>
  <path d="M15.3581 19.6821C15.5446 19.8182 15.7647 20.2826 15.6808 20.5717C15.5968 20.8608 15.2331 20.8702 15.0559 20.734C14.8787 20.5978 14.5094 20.3143 14.6829 19.8014C14.8153 19.4191 15.179 19.5422 15.3581 19.6821Z" fill="#EFD460"/>
  <path d="M8.42383 18.5237C8.80932 18.3789 9.21697 18.3019 9.62872 18.2962C10.0442 18.2832 10.4596 18.3265 10.8635 18.4249C11.2839 18.5173 11.6787 18.7014 12.0198 18.9639C12.2073 19.1078 12.3502 19.3018 12.432 19.5235C12.4526 19.584 12.467 19.6465 12.4749 19.71L12.4861 19.779C12.4861 19.7995 12.4861 19.8181 12.4992 19.8387C12.5227 19.9262 12.5533 20.0116 12.5906 20.0942C12.7473 20.4448 12.9636 20.7936 13.1389 21.1648C13.2331 21.3532 13.3099 21.5499 13.3684 21.7523C13.4338 21.9732 13.4338 22.2084 13.3684 22.4294C13.3261 22.5352 13.2628 22.6315 13.1823 22.7122C13.1019 22.793 13.0059 22.8567 12.9002 22.8994C12.7045 22.9801 12.4975 23.0304 12.2866 23.0486C11.88 23.0823 11.4709 23.0711 11.0668 23.015C11.4678 23.0096 11.8677 22.9709 12.2623 22.8994C12.4522 22.8627 12.6361 22.7999 12.8088 22.7129C12.8862 22.6769 12.9553 22.6251 13.0115 22.5609C13.0677 22.4966 13.1098 22.4213 13.1352 22.3398C13.1685 22.169 13.1516 21.9922 13.0867 21.8306C13.0229 21.6489 12.9437 21.4729 12.8498 21.3047C12.6633 20.954 12.4414 20.6202 12.2605 20.2359C12.217 20.135 12.1814 20.0309 12.1541 19.9245C12.1453 19.8957 12.1385 19.8664 12.1336 19.8368C12.1336 19.807 12.1336 19.7715 12.1206 19.7566C12.1141 19.7184 12.1041 19.681 12.0907 19.6447C12.024 19.487 11.9173 19.3494 11.7811 19.2455C11.6381 19.127 11.48 19.028 11.3111 18.9508C11.1376 18.8666 10.9581 18.7955 10.7739 18.7382C10.0145 18.5015 9.21355 18.4284 8.42383 18.5237Z" fill="#F4F4F4"/>
  <path d="M8.44212 17.9361C8.16235 17.9007 7.66994 18.104 7.6401 18.4229C7.61026 18.7419 8.05417 19.0571 8.33394 19.0925C8.61371 19.128 9.19378 19.197 9.21243 18.615C9.22735 18.1711 8.72189 17.9697 8.44212 17.9361Z" fill="#EFD460"/>
  <path d="M8.31934 19.6339C8.70438 19.4898 9.11129 19.4128 9.52236 19.4063C9.93794 19.394 10.3533 19.4379 10.7571 19.5369C11.1774 19.6286 11.5723 19.8121 11.9135 20.074C12.1005 20.2183 12.2433 20.4122 12.3257 20.6336C12.3467 20.694 12.3611 20.7566 12.3686 20.8201L12.3798 20.8891C12.3798 20.9096 12.3798 20.9301 12.3928 20.9507C12.4164 21.0382 12.447 21.1236 12.4842 21.2062C12.6409 21.555 12.8573 21.9056 13.0326 22.2749C13.1265 22.4642 13.2032 22.6614 13.262 22.8643C13.3301 23.0818 13.3339 23.3143 13.2732 23.5339C13.231 23.6437 13.1664 23.7435 13.0835 23.8269C13.0007 23.9104 12.9014 23.9758 12.792 24.0188C12.5961 24.099 12.3892 24.1487 12.1783 24.1662C11.7718 24.2005 11.3627 24.1899 10.9585 24.1345C11.3595 24.1273 11.7592 24.0886 12.1541 24.0188C12.3438 23.9816 12.5277 23.9189 12.7006 23.8323C12.7782 23.7964 12.8475 23.7446 12.904 23.6804C12.9606 23.6162 13.0031 23.5409 13.0289 23.4593C13.0631 23.2863 13.0476 23.1072 12.9841 22.9427C12.9181 22.7615 12.8383 22.5856 12.7453 22.4167C12.5588 22.066 12.3369 21.734 12.1578 21.3498C12.1103 21.2483 12.0716 21.1428 12.0422 21.0346C12.0334 21.0065 12.0265 20.9778 12.0217 20.9488C12.0217 20.9171 12.0217 20.8817 12.0086 20.8686C12.0026 20.8303 11.9926 20.7928 11.9788 20.7567C11.9141 20.5998 11.81 20.4623 11.6766 20.3575C11.5337 20.2385 11.3756 20.1387 11.2066 20.061C11.0307 19.9769 10.8486 19.9065 10.662 19.8502C9.9049 19.6146 9.10675 19.5409 8.31934 19.6339Z" fill="#F4F4F4"/>
  <path d="M8.33372 19.0461C8.05395 19.0125 7.56155 19.214 7.5317 19.5329C7.50186 19.8519 7.94577 20.1689 8.22554 20.2025C8.50531 20.2361 9.08538 20.3088 9.10403 19.725C9.11895 19.283 8.60976 19.0816 8.33372 19.0461Z" fill="#EFD460"/>
  <path d="M10.0635 21.8048C10.7931 21.851 11.5256 21.7957 12.2401 21.6407C12.5876 21.5714 12.9257 21.4612 13.2473 21.3124C13.3953 21.2433 13.5303 21.1493 13.6464 21.0345C13.6916 20.9871 13.7271 20.9313 13.7509 20.8704L13.7621 20.8275C13.7621 20.8051 13.7733 20.7659 13.7826 20.7398C13.7985 20.6861 13.8184 20.6337 13.8423 20.5831C13.9323 20.4133 14.0378 20.2522 14.1575 20.1019C14.2694 19.9527 14.3813 19.8091 14.4839 19.6617C14.5863 19.5234 14.6727 19.3738 14.7413 19.216C14.7745 19.1549 14.7909 19.0862 14.789 19.0167C14.787 18.9473 14.7667 18.8796 14.7301 18.8205C14.623 18.7006 14.4828 18.615 14.3272 18.5743C14.1558 18.5215 13.9806 18.4816 13.8031 18.455C13.4431 18.4009 13.0738 18.3766 12.7045 18.3561C13.0754 18.3063 13.4497 18.2876 13.8236 18.3002C14.012 18.305 14.1995 18.3287 14.3832 18.371C14.5917 18.4066 14.7836 18.5071 14.9315 18.6583C15.0106 18.749 15.0584 18.8628 15.0677 18.9828C15.0728 19.0936 15.057 19.2043 15.0211 19.3092C14.9596 19.4957 14.8737 19.6732 14.7655 19.8371C14.5622 20.1541 14.3198 20.4526 14.1761 20.7435C14.1605 20.776 14.1474 20.8097 14.137 20.8442L14.1053 20.9841C14.066 21.0984 14.0024 21.2028 13.9188 21.29C13.7732 21.439 13.6003 21.5587 13.4096 21.6425C13.0538 21.8007 12.6768 21.9057 12.2905 21.954C11.9199 22.0068 11.5451 22.023 11.1714 22.0025C10.7949 21.986 10.4224 21.9195 10.0635 21.8048Z" fill="#F4F4F4"/>
  <path d="M10.0798 22.2561C9.80004 22.2823 9.30764 22.1274 9.2778 21.8831C9.24796 21.6388 9.69186 21.3944 9.97163 21.3683C10.2514 21.3422 10.8315 21.2881 10.8501 21.7414C10.865 22.0752 10.3596 22.23 10.0798 22.2561Z" fill="#EFD460"/>
  <path d="M16.0973 21.2509C15.6561 20.7605 15.0666 20.4277 14.4187 20.3034C14.1135 20.2311 13.7991 20.2047 13.4861 20.2251C13.3376 20.2345 13.1913 20.2653 13.0515 20.3164C12.9309 20.3567 12.8272 20.4362 12.7568 20.5421L12.6953 20.6447C12.6731 20.6867 12.6481 20.7272 12.6207 20.766C12.5669 20.8394 12.509 20.9098 12.4472 20.9767C12.3279 21.1091 12.2048 21.2229 12.0742 21.3367C11.8312 21.5474 11.6117 21.7838 11.4195 22.0417C11.2403 22.3019 11.1101 22.5927 11.0353 22.8997C10.9632 23.2224 10.9269 23.552 10.9271 23.8826C10.8502 23.5509 10.8263 23.2091 10.8562 22.8698C10.8926 22.5203 11.0032 22.1827 11.1808 21.8794C11.3639 21.5848 11.5846 21.3152 11.8373 21.0774C11.953 20.9581 12.0742 20.8462 12.1749 20.7286C12.2263 20.6697 12.2736 20.6074 12.3167 20.5421C12.3378 20.5126 12.3565 20.4814 12.3726 20.4489L12.4379 20.337C12.5525 20.162 12.7227 20.0306 12.921 19.9639C13.095 19.9064 13.2767 19.8756 13.46 19.8725C13.8124 19.8638 14.1636 19.9149 14.4989 20.0236C14.8321 20.127 15.1469 20.2825 15.4315 20.4843C15.7121 20.6823 15.9406 20.9453 16.0973 21.2509Z" fill="#F4F4F4"/>
  <path d="M16.0704 20.4861C16.257 20.6241 16.477 21.0867 16.395 21.3776C16.3129 21.6686 15.9473 21.6761 15.7683 21.5399C15.5892 21.4037 15.2237 21.1202 15.3953 20.6073C15.5351 20.2231 15.9007 20.3499 16.0704 20.4861Z" fill="#EFD460"/>
  <path d="M27.3885 25.8835C26.8289 25.8835 26.2358 25.8835 25.6408 25.8649C24.0629 25.8295 22.47 25.7343 21.4834 25.5236C20.7075 25.3594 20.3065 25.1226 20.5881 24.7868C20.6534 24.7085 20.7299 24.6003 20.8138 24.4884C20.9667 24.2758 21.1495 24.0072 21.3621 23.7088L21.5188 23.4906C21.5878 23.3954 21.6587 23.304 21.737 23.1996C23.0296 21.4948 25.1577 19.3648 28.0786 20.7264C31.0311 22.101 30.9789 22.1197 31.7977 22.9944C33.9314 25.2755 30.576 25.8835 27.3885 25.8835Z" fill="#E2C447"/>
  <path d="M22.3359 23.2444C22.4273 23.9551 23.3226 24.2255 25.1523 22.7688C26.982 21.3121 29.1475 23.3116 28.9983 23.7853C28.8491 24.2591 30.0465 23.651 30.0465 23.651C30.0465 23.651 29.5933 20.4318 26.0308 21.3121C22.4684 22.1925 22.3359 23.2444 22.3359 23.2444Z" fill="#FCDC59"/>
  <path d="M28.3263 24.2164C28.3263 24.2164 28.2181 25.0575 25.6405 25.867C25.3383 25.9603 25.0045 26.0535 24.6314 26.1468C23.0405 26.5403 22.0687 26.1151 21.4831 25.5257C21.1935 25.2284 20.9659 24.8765 20.8135 24.4905C21 24.2275 21.2369 23.8788 21.5185 23.4927C21.6379 23.4927 21.705 23.5374 21.664 23.6792C21.5148 24.1529 23.6821 26.1524 25.5099 24.6957C27.3378 23.239 28.2349 23.5039 28.3263 24.2164Z" fill="#FCDC59"/>
  <path d="M28.6737 23.819C28.6737 23.819 28.5394 24.4103 24.9788 24.9064C22.4814 25.2552 21.5115 24.4662 21.1553 23.9738L21.3119 23.7556C21.3816 23.6611 21.4543 23.5641 21.5302 23.4647C21.8155 23.4087 22.0897 23.3863 22.0114 23.5225C21.864 23.7892 24.0295 24.9157 25.8592 24.0951C27.6889 23.2744 28.5823 23.418 28.6737 23.819Z" fill="#E2C447"/>
  <path d="M28.8807 23.5656C28.8807 23.5656 28.7465 24.1569 25.1859 24.653C22.6866 25.0018 21.7185 24.2128 21.3623 23.7204L21.519 23.5022C21.588 23.4071 21.6589 23.3157 21.7372 23.2112C22.0226 23.1553 22.2967 23.1329 22.2184 23.2691C22.0692 23.5358 24.2365 24.6623 26.0644 23.8417C27.8922 23.021 28.7893 23.1646 28.8807 23.5656Z" fill="#FCDC59"/>
  <path d="M24.0908 23.6323C24.1822 23.2313 25.0775 23.0727 26.9072 23.899C28.7369 24.7253 30.7513 23.0858 30.9676 22.8993C31.5477 22.364 32.0867 23.3432 32.0867 23.3432C32.0867 23.3432 31.3407 25.2233 27.7838 24.7271C24.227 24.231 24.0908 23.6323 24.0908 23.6323Z" fill="#FCDC59"/>
  <path d="M22.7109 22.8138C22.8023 22.1013 23.6976 21.8309 25.5273 23.2876C27.357 24.7443 29.5225 22.7448 29.3751 22.2711C29.2278 21.7973 30.4215 22.4072 30.4215 22.4072C30.4215 22.4072 29.9683 25.6246 26.4058 24.7443C22.8434 23.8639 22.7109 22.8138 22.7109 22.8138Z" fill="#EFD050"/>
  <path d="M22.7852 22.6553C22.8765 21.9429 23.7718 21.6724 25.6015 23.1291C27.4313 24.5858 29.5967 22.5863 29.4494 22.1126C29.302 21.6388 30.8855 21.9466 31.0403 22.2749C31.1951 22.6031 30.0481 25.4661 26.4856 24.5783C22.9232 23.6905 22.7852 22.6553 22.7852 22.6553Z" fill="#FCDC59"/>
  <path d="M31.0476 21.7004C30.9655 20.9879 30.1598 20.7174 28.5128 22.1741C26.8659 23.6308 24.9149 21.6332 25.0492 21.1576C25.1835 20.682 24.1055 21.2938 24.1055 21.2938C24.1055 21.2938 24.5139 24.5112 27.7201 23.6308C30.9263 22.7505 31.0476 21.7004 31.0476 21.7004Z" fill="#EFD050"/>
  <path d="M30.9753 21.5417C30.8932 20.8311 30.0875 20.5588 28.4406 22.0154C26.7936 23.4721 24.8445 21.4745 24.977 20.9989C25.1094 20.5233 24.0332 21.1351 24.0332 21.1351C24.0332 21.1351 24.4435 24.3543 27.6497 23.4721C30.8559 22.5899 30.9753 21.5417 30.9753 21.5417Z" fill="#FCDC59"/>
  <path d="M25.2645 16.6287C25.5033 17.7739 24.7889 17.7683 23.7015 17.9511C22.9126 18.0817 22.2598 17.4643 22.2598 16.8656C22.2598 16.2669 22.9723 15.5376 23.7668 15.5376C24.5614 15.5376 25.1713 16.1848 25.2645 16.6287Z" fill="#318446"/>
  <path d="M25.0719 16.5971C25.2902 17.6602 24.6392 17.6546 23.6488 17.8243C22.9289 17.9456 22.332 17.373 22.332 16.8172C22.332 16.2613 22.9811 15.5806 23.7067 15.5806C24.4322 15.5806 24.988 16.1849 25.0719 16.5971Z" fill="#9ACCA3"/>
  <path d="M28.0914 15.9983C28.2779 17.1416 27.7184 17.1379 26.8604 17.3188C26.2393 17.4512 25.7227 16.8338 25.7227 16.2351C25.7227 15.6364 26.2822 14.9053 26.9108 14.9053C27.5393 14.9053 28.0187 15.5469 28.0914 15.9983Z" fill="#318446"/>
  <path d="M27.9403 15.9575C28.1119 17.0207 27.599 17.0169 26.8212 17.1848C26.2617 17.3079 25.7842 16.7334 25.7842 16.1776C25.7842 15.6218 26.2952 14.9429 26.8678 14.9429C27.4404 14.9429 27.8732 15.5453 27.9403 15.9575Z" fill="#9ACCA3"/>
  <path d="M26.2172 15.9498C26.3944 16.8488 25.8666 16.845 25.0608 16.9868C24.9336 17.0088 24.8032 17.0037 24.6781 16.9718C24.5529 16.9398 24.436 16.8818 24.3349 16.8015C24.2338 16.7212 24.1508 16.6204 24.0914 16.5057C24.032 16.3911 23.9975 16.2652 23.9902 16.1363C23.9902 15.6663 24.5181 15.0918 25.1093 15.0918C25.3605 15.1012 25.6024 15.1889 25.8011 15.3428C25.9998 15.4967 26.1453 15.709 26.2172 15.9498Z" fill="#318446"/>
  <path d="M26.0771 15.9239C26.2375 16.7595 25.7544 16.7557 25.0214 16.8881C24.9043 16.9072 24.7846 16.9013 24.67 16.8708C24.5554 16.8404 24.4485 16.786 24.3564 16.7113C24.2643 16.6367 24.189 16.5433 24.1355 16.4375C24.082 16.3317 24.0515 16.2158 24.0459 16.0973C24.0726 15.841 24.1897 15.6025 24.3764 15.4247C24.563 15.247 24.8069 15.1416 25.0643 15.1274C25.2952 15.1375 25.5172 15.2197 25.6989 15.3626C25.8806 15.5055 26.0128 15.7018 26.0771 15.9239Z" fill="#9ACCA3"/>
  <path d="M29.5258 15.9873C29.6638 16.8228 29.2516 16.8191 28.6268 16.9515C28.1717 17.0485 27.7949 16.5972 27.7949 16.1607C27.7949 15.7243 28.2053 15.189 28.6641 15.189C29.1229 15.189 29.4717 15.6627 29.5258 15.9873Z" fill="#318446"/>
  <path d="M29.4158 15.9631C29.5408 16.739 29.1659 16.7372 28.5951 16.8603C28.1811 16.9498 27.8379 16.5301 27.8379 16.1235C27.8379 15.7169 28.2109 15.2227 28.6306 15.2227C29.0502 15.2227 29.3673 15.6628 29.4158 15.9631Z" fill="#9ACCA3"/>
  <path d="M29.7184 17.2483C29.9049 18.3935 29.3453 18.3879 28.4874 18.5688C27.8663 18.7012 27.3496 18.0838 27.3496 17.4851C27.3496 16.8864 27.9092 16.1553 28.5377 16.1553C29.1663 16.1553 29.6456 16.8043 29.7184 17.2483Z" fill="#318446"/>
  <path d="M29.5673 17.2144C29.7388 18.2775 29.2259 18.2738 28.4482 18.4416C27.8886 18.5647 27.4111 17.9903 27.4111 17.4344C27.4111 16.8786 27.9222 16.1997 28.4948 16.1997C29.0674 16.1997 29.5001 16.8022 29.5673 17.2144Z" fill="#9ACCA3"/>
  <path d="M28.4274 16.763C28.5654 17.6004 28.1551 17.5967 27.5284 17.7291C27.0752 17.8242 26.7021 17.3747 26.7021 16.9308C26.7021 16.4869 27.1106 15.9609 27.5694 15.9609C28.0283 15.9609 28.3808 16.4403 28.4274 16.763Z" fill="#318446"/>
  <path d="M28.3191 16.7444C28.4441 17.5221 28.0692 17.5184 27.4985 17.6415C27.0844 17.731 26.7412 17.3114 26.7412 16.9066C26.7412 16.5019 27.1142 16.0039 27.532 16.0039C27.9498 16.0039 28.2688 16.4385 28.3191 16.7444Z" fill="#9ACCA3"/>
  <path d="M27.3144 17.1304C27.5009 17.9995 26.9544 17.9958 26.13 18.1338C25.5313 18.2327 25.0352 17.7608 25.0352 17.3094C25.0352 16.8581 25.5742 16.3022 26.1785 16.3022C26.4301 16.3062 26.6744 16.388 26.8777 16.5362C27.0811 16.6845 27.2336 16.892 27.3144 17.1304Z" fill="#318446"/>
  <path d="M27.1705 17.1065C27.3346 17.9123 26.8403 17.9085 26.0887 18.0391C25.9722 18.0606 25.8524 18.0574 25.7372 18.0298C25.622 18.0021 25.5138 17.9506 25.4198 17.8785C25.3257 17.8064 25.2479 17.7154 25.1912 17.6113C25.1345 17.5073 25.1003 17.3925 25.0908 17.2744C25.0908 16.8528 25.5814 16.3418 26.1334 16.3418C26.364 16.3469 26.5874 16.423 26.7731 16.5599C26.9587 16.6968 27.0975 16.8877 27.1705 17.1065Z" fill="#9ACCA3"/>
  <path d="M37.3972 19.1375C37.3972 19.1375 31.1359 21.3888 31.3653 19.7288C31.4157 19.3558 30.2052 19.5143 30.9196 19.4285C33.9281 19.0667 36.7538 16.6699 37.7311 17.1903C40.2509 18.5369 39.5496 18.2068 37.3972 19.1375Z" fill="#8E5229"/>
  <path d="M36.2835 21.1126C36.2835 21.1126 42.847 21.2338 42.2165 19.7081C42.0748 19.3612 40.7916 19.2083 40.0809 19.3165C37.6861 19.6802 35.9627 19.2419 35.1569 20.0625C33.0736 22.1757 33.9875 20.9205 36.2835 21.1126Z" fill="#773C22"/>
  <path d="M35.4126 20.4208C35.4126 20.4208 41.9724 20.1522 41.2748 18.6656C41.1144 18.3281 39.8274 18.2516 39.1224 18.4027C36.7462 18.9081 35.006 18.5743 34.2394 19.4378C32.2549 21.6741 33.111 20.3667 35.4126 20.4208Z" fill="#512819"/>
  <path d="M35.1341 20.156C35.1341 20.156 41.692 19.8855 40.9944 18.4008C40.8359 18.0614 39.5471 17.9849 38.842 18.136C36.4677 18.6414 34.7256 18.3076 33.9591 19.1712C31.9745 21.4075 32.8307 20.1019 35.1341 20.156Z" fill="#773C22"/>
  <path d="M35.4364 22.2376C35.4364 22.2376 42.6116 22.5435 41.9812 21.0197C41.8376 20.6728 42.8541 19.9976 41.5802 20.1039C38.609 20.3519 34.4926 19.1377 33.6962 19.9547C31.6128 22.0698 33.8286 21.0719 35.4364 22.2376Z" fill="#512819"/>
  <path d="M39.7792 21.2211C38.8112 21.1838 39.0145 20.2754 38.1901 20.365C37.3657 20.4545 38.0222 19.3168 37.1736 19.5387C36.3249 19.7607 36.545 19.2291 36.0545 19.3634C35.6833 19.4685 35.3178 19.593 34.9596 19.7364C34.9596 19.7364 33.654 19.3746 33.2288 19.5238C32.7847 19.6467 32.3205 19.6797 31.8635 19.6208C31.4718 19.5853 31.2051 20.4638 31.2051 20.4638C31.2051 20.4638 32.1582 20.1691 32.99 20.3724C33.8219 20.5757 35.1275 20.0348 35.6628 20.8686C36.1981 21.7023 36.3772 22.8867 37.4888 22.5472C38.6004 22.2077 39.6318 22.8326 39.9862 22.9725C40.3406 23.1123 40.7174 22.3905 40.7174 22.3905C40.7174 22.3905 40.3425 21.2379 39.7792 21.2211Z" fill="#0E5110"/>
  <path d="M38.9373 21.7077C38.9373 21.7077 36.3485 20.029 35.2257 20.1689C34.1028 20.3088 33.4053 20.3275 33.4053 20.3275C33.4053 20.3275 36.0053 20.5905 36.6786 20.8628C37.3519 21.1351 38.9373 21.7077 38.9373 21.7077Z" fill="#377C37"/>
  <path d="M38.7473 21.9781C37.7812 21.9128 38.0012 21.01 37.1806 21.0735C36.3599 21.1369 37.0351 20.0215 36.1809 20.2174C35.3266 20.4132 35.5616 19.8891 35.0618 20.0085C34.6887 20.103 34.3207 20.217 33.9595 20.3498C33.9595 20.3498 32.6538 19.9488 32.2323 20.0849C31.7857 20.1959 31.3212 20.2149 30.867 20.1409C30.4754 20.0924 30.2012 19.669 30.2012 20.4337C30.2012 21.1984 31.3091 20.3237 31.9768 20.928C32.7378 21.6181 33.9147 21.3346 34.4295 22.1832C34.9443 23.0319 35.3042 23.5411 36.4215 23.2352C37.5387 22.9293 38.5589 23.5877 38.9096 23.735C39.2602 23.8824 39.6556 23.1755 39.6556 23.1755C39.6556 23.1755 39.3106 22.0172 38.7473 21.9781Z" fill="#0E5110"/>
  <path d="M37.893 22.4443C37.893 22.4443 35.3452 20.6854 34.2205 20.7955C33.0958 20.9055 32.3945 20.8981 32.3945 20.8981C32.3945 20.8981 34.989 21.2394 35.6548 21.5322C36.3207 21.825 37.893 22.4443 37.893 22.4443Z" fill="#377C37"/>
  <path d="M22.0261 17.1268C19.6405 16.8787 16.8764 18.7569 17.7119 19.9879C18.5475 21.2189 21.0002 21.2339 23.7177 21.4931C26.2003 21.73 31.1149 21.3252 31.57 20.0607C32.0923 18.617 29.5053 18.1582 28.5858 17.7386C27.3716 17.1902 24.5701 17.3916 22.0261 17.1268Z" fill="#FCFCFC"/>
  <path d="M21.6924 18.9287C21.6924 18.509 22.998 17.7163 24.5983 17.7163C26.1986 17.7163 27.5061 18.509 27.5061 18.9287C27.5061 19.3483 26.2564 19.5031 24.6505 19.5031C23.0446 19.5031 21.6924 19.3558 21.6924 18.9287Z" fill="#F9B938"/>
  <path d="M26.9088 18.7702C26.8752 18.9362 26.4183 19.0984 26.228 18.9119C26.1665 18.8522 26.6533 18.8056 26.6869 18.6396C26.7204 18.4736 26.1665 18.3971 26.3474 18.3095C26.4705 18.2517 26.9424 18.6098 26.9088 18.7702Z" fill="#F9F1CA"/>
  <path d="M44.3652 20.4897C43.6024 23.6176 35.1364 26.7828 24.8091 26.7828C14.4817 26.7828 6.01391 23.6176 5.25293 20.4897H7.49112C9.00749 22.8753 16.1865 25.1265 24.8165 25.1265C33.4466 25.1265 40.6256 22.8753 42.1401 20.4897H44.3652Z" fill="#262626"/>
</svg>
