<svg width="48" height="48" viewBox="0 0 48 48" fill="none"
  xmlns="http://www.w3.org/2000/svg">
  <path d="M10.9798 30.5001C9.79089 31.7659 11.2528 32.6389 11.8708 33.1976C14.7225 34.8113 20.1079 36.3933 24.5066 36.2798C28.5056 36.1766 34.2184 34.8034 35.8886 33.3637C36.8251 31.9374 36.3049 31.5476 36.3049 31.5476C36.3049 31.5476 23.0554 35.7602 10.9798 30.5001Z" fill="#BE8B40"/>
  <path d="M11.7608 28.0634C11.5928 27.9881 9.7185 29.072 10.8987 30.7119C11.2301 31.5523 22.5526 34.0142 25.3447 33.589C28.1368 33.1638 36.2397 32.5388 36.3745 31.6608C36.5092 30.7829 36.5194 28.7099 36.5194 28.7099C36.5194 28.7099 22.3252 32.8119 11.7608 28.0634Z" fill="#59361F"/>
  <path d="M11.5045 25.6687C9.87782 25.841 10.1392 27.5429 10.5432 27.8643C10.9472 28.1857 12.8412 28.1229 12.4125 29.4356C11.9838 30.7482 12.3453 32.3364 13.1489 31.5382C13.9525 30.7401 15.5054 30.0941 15.5888 30.8414C15.6721 31.5888 17.1445 32.7627 17.5017 32.1087C17.8588 31.4546 18.9417 33.2858 19.7345 32.8498C20.5274 32.4138 21.4383 31.4464 21.6322 31.9447C21.8261 32.4429 25.2724 35.1642 25.5756 33.0627C25.8789 30.9612 27.7955 32.492 29.0871 32.3189C30.3787 32.1459 32.1006 32.786 32.2679 31.934C32.4352 31.0821 34.0757 31.7904 34.5773 32.4539C35.0789 33.1174 35.7256 33.2853 36.028 32.4226C36.3304 31.5598 35.4535 30.6026 35.4535 30.6026C35.4535 30.6026 36.9272 31.9584 37.2468 31.0951C37.5663 30.2318 37.321 29.1874 37.2182 28.9191C37.1154 28.6508 37.0321 27.9034 37.3893 27.8053C37.7466 27.7073 37.1632 26.2371 36.4487 26.4414C35.7342 26.6458 11.5045 25.6687 11.5045 25.6687Z" fill="#86B240"/>
  <path d="M14.8164 16.5879C14.8164 16.5879 19.0551 28.8483 21.118 31.9603C22.2861 33.7232 22.7384 32.2482 24.1143 31.3283C25.4901 30.4083 29.0898 28.9359 29.2423 27.8678C29.3947 26.7996 17.8396 16.5314 17.8396 16.5314L14.8164 16.5879Z" fill="#FEEA59"/>
  <path d="M18.0197 27.1914C16.9359 27.1426 12.3508 26.016 11.9204 26.274C11.49 26.532 11.1178 27.2234 12.1783 28.0292C13.346 28.9193 19.2724 30.4272 19.8074 29.8937C20.3425 29.3603 21.547 27.3445 18.0197 27.1914Z" fill="#E56627"/>
  <path d="M26.6617 27.537C25.6252 27.7115 21.104 27.5475 20.7274 27.8875C20.3509 28.2274 20.1011 28.9821 21.2228 29.5548C22.461 30.1849 28.31 30.4465 28.734 29.8167C29.158 29.187 30.0373 26.9697 26.6617 27.537Z" fill="#E56627"/>
  <path d="M33.7464 26.8853C32.9696 27.1674 29.4571 27.4922 29.214 27.8582C28.971 28.2242 28.8869 28.9937 29.8363 29.4313C30.883 29.9146 35.4367 29.544 35.6739 28.8838C35.9111 28.2237 36.2704 25.971 33.7464 26.8853Z" fill="#E56627"/>
  <path d="M12.0047 22.8673C11.8385 22.781 10.9629 25.5296 11.2951 26.4851C11.6274 27.4406 22.8044 29.6721 25.5943 29.2025C28.3842 28.7329 36.4886 28.0608 36.6226 27.0648C36.7565 26.0688 36.7666 23.7157 36.7666 23.7157C36.7666 23.7157 22.574 28.3064 12.0047 22.8673Z" fill="#59361F"/>
  <path d="M11.7495 20.4743C10.1209 20.6466 10.3822 22.3465 10.7862 22.67C11.1902 22.9934 13.0843 22.9265 12.6575 24.2412C12.2307 25.5558 12.5902 27.1399 13.3919 26.3419C14.1936 25.5438 15.7485 24.8977 15.8337 25.645C15.9189 26.3923 17.3894 27.5663 17.7466 26.9122C18.1038 26.2581 19.1867 28.0894 19.9795 27.6534C20.7723 27.2174 21.6946 26.2476 21.8771 26.7462C22.0596 27.2449 25.5173 29.9657 25.8225 27.8641C26.1276 25.7626 28.0404 27.2935 29.3321 27.1307C30.6238 26.9679 32.3475 27.5956 32.5129 26.7437C32.6783 25.8918 34.3226 26.6 34.8242 27.2655C35.3259 27.9311 35.9725 28.097 36.273 27.2323C36.5734 26.3675 35.7004 25.4122 35.7004 25.4122C35.7004 25.4122 37.1741 26.768 37.4936 25.9047C37.8132 25.0414 37.5678 23.9971 37.4632 23.7308C37.3585 23.4646 37.277 22.7152 37.6343 22.615C37.9915 22.5149 37.41 21.0467 36.6937 21.2511C35.9773 21.4556 11.7495 20.4743 11.7495 20.4743Z" fill="#86B240"/>
  <path d="M12.9699 21.802C12.9699 21.802 29.9115 27.7362 30.6378 29.7615C31.3641 31.7869 32.1753 29.0793 32.907 27.5273C33.6386 25.9753 36.009 22.6951 35.6136 21.7111C35.2183 20.7272 20.1837 18.7483 20.1837 18.7483L12.9699 21.802Z" fill="#FEEA59"/>
  <path d="M35.4499 20.3862C35.4499 20.3862 17.807 24.4062 16.8095 26.3373C15.812 28.2684 15.3794 25.4889 14.873 23.869C14.3665 22.249 12.474 18.7326 13.0044 17.8007C13.5348 16.8688 28.7152 16.5512 28.7152 16.5512L35.4499 20.3862Z" fill="#FEEA59"/>
  <path d="M18.2631 21.995C17.1794 21.9483 12.5942 20.8196 12.1638 21.0776C11.7334 21.3356 11.3613 22.027 12.4199 22.835C13.5894 23.7229 19.5158 25.2308 20.049 24.6975C20.5822 24.1641 21.7904 22.1542 18.2631 21.995Z" fill="#E56627"/>
  <path d="M26.9056 22.3407C25.8692 22.5152 21.3498 22.3511 20.9714 22.6911C20.593 23.0312 20.345 23.7857 21.4667 24.3585C22.7049 24.9886 28.554 25.2502 28.9799 24.6204C29.4057 23.9905 30.2813 21.7733 26.9056 22.3407Z" fill="#E56627"/>
  <path d="M34.2376 22.0773C33.4608 22.3574 29.9483 22.6821 29.7053 23.0502C29.4622 23.4182 29.3781 24.1856 30.3275 24.6232C31.3743 25.1066 35.928 24.738 36.1652 24.0778C36.4023 23.4176 36.7654 21.1608 34.2376 22.0773Z" fill="#E56627"/>
  <path d="M37.2696 20.5221C37.034 23.8518 31.0261 24.2988 23.8738 23.9019C16.7215 23.5051 11.1313 22.419 11.3669 19.0893C11.3764 18.9572 11.3959 18.826 11.425 18.6968C11.6367 21.7292 17.0608 22.7453 23.9312 23.1252C30.8016 23.5052 36.6136 23.0997 37.2706 20.1275C37.2786 20.2587 37.2782 20.3905 37.2696 20.5221Z" fill="#AA7833"/>
  <path d="M37.0985 20.0704C37.0869 20.1177 37.0753 20.1649 37.0599 20.2123C36.7221 16.9083 31.3791 12.3971 24.6218 11.9394C17.8644 11.4817 12.1285 15.239 11.2902 18.4624C11.2839 18.4165 11.2803 18.3702 11.2793 18.3236C11.9673 15.0668 17.778 11.1749 24.6495 11.6403C31.5211 12.1058 36.9226 16.7527 37.0985 20.0704Z" fill="#D1A065"/>
  <path d="M37.278 20.2855C36.4412 23.1287 30.5713 23.8274 23.814 23.3697C17.0566 22.912 11.364 21.813 11.2906 18.4625C12.1289 15.2392 17.8706 11.4817 24.6279 11.9394C31.3853 12.3971 36.9403 16.9795 37.278 20.2855Z" fill="#BE8B40"/>
  <path d="M14.7725 17.7185C15.105 17.5042 15.3078 17.2077 15.2255 17.0563C15.1431 16.9048 14.8068 16.9558 14.4742 17.1701C14.1417 17.3844 13.9388 17.6809 14.0212 17.8323C14.1036 17.9838 14.4399 17.9328 14.7725 17.7185Z" fill="#CCA36C"/>
  <path d="M17.1338 15.2522C17.4663 15.0379 17.6692 14.7414 17.5868 14.59C17.5045 14.4385 17.1681 14.4895 16.8355 14.7038C16.503 14.9181 16.3002 15.2146 16.3825 15.366C16.4649 15.5174 16.8012 15.4665 17.1338 15.2522Z" fill="#CCA36C"/>
  <path d="M19.6849 16.5783C19.9699 16.2814 20.1116 15.9416 20.0013 15.8193C19.891 15.6969 19.5706 15.8385 19.2856 16.1353C19.0006 16.4322 18.8589 16.772 18.9692 16.8943C19.0794 17.0166 19.3999 16.8751 19.6849 16.5783Z" fill="#CCA36C"/>
  <path d="M21.6927 13.9069C21.9581 13.6949 22.1081 13.4274 22.0276 13.3095C21.9472 13.1916 21.6668 13.2678 21.4014 13.4799C21.136 13.6919 20.9861 13.9594 21.0666 14.0773C21.147 14.1952 21.4274 14.1189 21.6927 13.9069Z" fill="#CCA36C"/>
  <path d="M23.6802 17.9C23.8484 17.4941 23.8705 17.1129 23.7295 17.0485C23.5886 16.9841 23.338 17.261 23.1698 17.6669C23.0016 18.0728 22.9795 18.4541 23.1204 18.5184C23.2614 18.5828 23.512 18.306 23.6802 17.9Z" fill="#CCA36C"/>
  <path d="M28.9003 14.138C28.9633 13.9997 28.7836 13.7711 28.4991 13.6274C28.2145 13.4836 27.9328 13.4791 27.8698 13.6174C27.8069 13.7556 27.9865 13.9842 28.2711 14.128C28.5557 14.2717 28.8374 14.2762 28.9003 14.138Z" fill="#CCA36C"/>
  <path d="M27.1184 15.1891C27.2216 15.0903 27.1301 14.7977 26.9139 14.5354C26.6977 14.2732 26.4387 14.1407 26.3355 14.2395C26.2322 14.3384 26.3237 14.631 26.5399 14.8933C26.7561 15.1555 27.0151 15.288 27.1184 15.1891Z" fill="#CCA36C"/>
  <path d="M23.9543 14.0189C24.208 13.7873 24.3432 13.5096 24.2562 13.3988C24.1692 13.2879 23.8929 13.3857 23.6392 13.6173C23.3854 13.8489 23.2502 14.1265 23.3372 14.2374C23.4242 14.3483 23.7005 14.2505 23.9543 14.0189Z" fill="#CCA36C"/>
  <path d="M27.9528 18.0342C28.0751 17.9171 27.9667 17.5704 27.7106 17.2597C27.4544 16.949 27.1476 16.7921 27.0253 16.9091C26.9029 17.0262 27.0113 17.3729 27.2675 17.6836C27.5236 17.9943 27.8304 18.1512 27.9528 18.0342Z" fill="#CCA36C"/>
  <path d="M31.7321 20.0307C31.8544 19.9137 31.746 19.567 31.4899 19.2563C31.2337 18.9456 30.9269 18.7887 30.8046 18.9057C30.6822 19.0228 30.7906 19.3695 31.0468 19.6802C31.3029 19.9908 31.6097 20.1478 31.7321 20.0307Z" fill="#CCA36C"/>
  <path d="M25.31 21.388C25.4615 21.3658 25.5468 20.9904 25.5005 20.5496C25.4543 20.1088 25.294 19.7695 25.1425 19.7918C24.991 19.814 24.9057 20.1894 24.9519 20.6301C24.9982 21.0709 25.1585 21.4102 25.31 21.388Z" fill="#CCA36C"/>
  <path d="M19.6119 19.9606C19.8899 19.6517 20.0227 19.3052 19.9084 19.1866C19.7941 19.0681 19.476 19.2225 19.1979 19.5314C18.9198 19.8404 18.787 20.1869 18.9013 20.3054C19.0156 20.4239 19.3338 20.2696 19.6119 19.9606Z" fill="#CCA36C"/>
  <path d="M34.5209 17.939C34.6382 17.8145 34.5146 17.4755 34.2447 17.1817C33.9748 16.888 33.6609 16.7507 33.5435 16.8752C33.4262 16.9997 33.5498 17.3387 33.8197 17.6325C34.0896 17.9262 34.4035 18.0634 34.5209 17.939Z" fill="#CCA36C"/>
  <path d="M31.431 16.7212C31.5484 16.5967 31.4247 16.2577 31.1549 15.9639C30.885 15.6702 30.5711 15.533 30.4537 15.6574C30.3363 15.7819 30.46 16.1209 30.7299 16.4147C30.9998 16.7084 31.3137 16.8457 31.431 16.7212Z" fill="#CCA36C"/>
</svg>
