<svg width="49" height="48" viewBox="0 0 49 48" fill="none"
  xmlns="http://www.w3.org/2000/svg">
  <g clip-path="url(#clip0_691_14174)">
    <path d="M13.6998 13.5L15.2002 37.5C15.1952 38.4923 19.0419 39.3219 23.0961 39.3647C27.1503 39.4075 30.4539 38.6299 30.463 37.6367L30.4734 37.6345L32.3496 13.0004L13.6998 13.5Z" fill="#B9A587"/>
    <path d="M13.9145 12.8173L15.8831 36.9517C15.8781 37.944 19.1544 38.7846 23.2085 38.8274C27.2627 38.8701 30.5664 38.0925 30.5755 37.0993L30.5858 37.0971L32.35 13.0005L13.9145 12.8173Z" fill="#F9F2E8"/>
    <path d="M33.0068 13.5583C33.0239 11.9815 28.5966 10.655 23.1182 10.5956C17.6398 10.5362 13.1848 11.7663 13.1677 13.3431C13.1506 14.92 17.5779 16.2464 23.0563 16.3058C28.5347 16.3653 32.9897 15.1352 33.0068 13.5583Z" fill="#42331D"/>
    <path d="M32.2378 11.4599C32.2523 9.99401 28.1371 8.76468 23.0461 8.71412C17.9551 8.66357 13.8163 9.81095 13.8017 11.2769C13.7872 12.7428 17.9024 13.9721 22.9934 14.0227C28.0844 14.0732 32.2232 12.9258 32.2378 11.4599Z" fill="#42331D"/>
    <path d="M32.973 13.3075L13.2071 12.9751L13.8672 10.9947L32.238 11.3929L32.973 13.3075Z" fill="#42331D"/>
    <path d="M31.1221 11.324C31.1345 10.0825 27.5756 9.04068 23.1732 8.99697C18.7707 8.95325 15.1919 9.92422 15.1795 11.1657C15.1672 12.4072 18.7261 13.449 23.1285 13.4927C27.531 13.5364 31.1098 12.5655 31.1221 11.324Z" fill="#5E574E"/>
    <path d="M24.3357 12.8413C24.3373 12.6846 23.8012 12.5523 23.1384 12.5457C22.4756 12.5391 21.937 12.6608 21.9354 12.8175C21.9339 12.9741 22.4699 13.1064 23.1328 13.113C23.7956 13.1196 24.3342 12.9979 24.3357 12.8413Z" fill="#C1B5AA"/>
    <path d="M14.6995 20.9998C17.4906 21.7195 20.1436 22.387 23.0258 22.4132C25.9998 22.3828 28.7541 22.201 31.667 21.6002L31.1336 29.6002C31.1336 29.6002 28.373 30.4523 22.9383 30.4008C17.5036 30.3492 15.4157 29.2095 15.4157 29.2095L14.6995 20.9998Z" fill="#D1A66A"/>
  </g>
  <defs>
    <clipPath id="clip0_691_14174">
      <rect width="48" height="48" fill="white" transform="translate(0.200195)"/>
    </clipPath>
  </defs>
</svg>
