<svg width="49" height="48" viewBox="0 0 49 48" fill="none"
  xmlns="http://www.w3.org/2000/svg">
  <path d="M29.792 30.2648L32.5109 34.0998C32.5109 34.0998 33.7117 35.0645 33.0524 36.3077C32.3931 37.5509 34.8809 37.9302 35.0576 36.7759C35.2343 35.6217 35.3567 35.7504 35.3567 35.7504C35.3567 35.7504 37.4412 36.3826 37.7334 35.0738C37.9917 33.9032 37.4457 32.8754 36.4941 33.2312C35.5425 33.5871 32.7533 29.6187 32.7533 29.6187L29.792 30.2648Z" fill="#CEC3BC"/>
  <path d="M16.5784 11.9655C11.0665 15.1144 11.5665 24.482 20.5253 26.9146C26.8875 28.6424 29.1714 29.7124 29.432 30.4827C29.6925 31.2529 31.3918 33.0862 31.8314 33.1494C32.2709 33.2126 34.0496 33.4795 34.3758 32.7701C34.7021 32.0607 35.8871 32.6835 33.6712 30.286C33.4605 30.0519 32.1259 28.2514 31.6003 24.8425C31.0746 21.4336 28.0861 5.39123 16.5784 11.9655Z" fill="#AD6F36"/>
  <mask id="mask0_1803_29954" style="mask-type:alpha" maskUnits="userSpaceOnUse" x="12" y="10" width="26" height="28">
    <path d="M29.792 30.2648L32.5109 34.0998C32.5109 34.0998 33.7117 35.0645 33.0524 36.3077C32.3931 37.5509 34.8809 37.9302 35.0576 36.7759C35.2343 35.6217 35.3567 35.7504 35.3567 35.7504C35.3567 35.7504 37.4412 36.3826 37.7334 35.0738C37.9917 33.9032 37.4457 32.8754 36.4941 33.2312C35.5425 33.5871 32.7533 29.6187 32.7533 29.6187L29.792 30.2648Z" fill="#CEC3BC"/>
    <path d="M16.5784 11.9655C11.0665 15.1144 11.5665 24.482 20.5253 26.9146C26.8875 28.6424 29.1714 29.7124 29.432 30.4827C29.6925 31.2529 31.3918 33.0862 31.8314 33.1494C32.2709 33.2126 34.0496 33.4795 34.3758 32.7701C34.7021 32.0607 35.8871 32.6835 33.6712 30.286C33.4605 30.0519 32.1259 28.2514 31.6003 24.8425C31.0746 21.4336 28.0861 5.39123 16.5784 11.9655Z" fill="#AD6F36"/>
  </mask>
  <g mask="url(#mask0_1803_29954)">
    <path d="M31.4665 32.7998C31.4665 41.2682 24.6015 48.1332 16.1331 48.1332C7.66477 48.1332 0.799805 41.2682 0.799805 32.7998C0.799805 24.3315 4.59811 10.6665 13.0665 10.6665C13.0665 29.3332 31.4665 24.3315 31.4665 32.7998Z" fill="#6E3F13"/>
  </g>
</svg>
