<svg width="48" height="48" viewBox="0 0 48 48" fill="none"
  xmlns="http://www.w3.org/2000/svg">
  <g clip-path="url(#clip0_1803_29758)">
    <path d="M36.5325 28.5336C36.5325 32.8883 33.6445 34.291 29.4658 34.7337V32.635C32.7645 32.0003 34.9325 30.4403 34.9325 26.667C34.9325 23.5683 33.4712 19.5763 31.1192 16.4243C34.3992 19.7176 36.5325 24.7816 36.5325 28.5336Z" fill="#CDCDCD"/>
    <path d="M18.7999 32.9922V34.7335C15.7119 34.4002 13.3332 33.5549 12.2959 31.3735C13.8452 32.4535 16.1279 32.8482 18.7999 32.9922Z" fill="#CDCDCD"/>
    <path d="M34.9329 26.6669C34.9329 30.4402 32.7649 32.0002 29.4663 32.6349C27.4876 33.0162 25.1009 33.0669 22.5329 33.0669C21.2316 33.0669 19.9783 33.0669 18.7996 32.9922C16.1329 32.8482 13.8449 32.4589 12.2956 31.3736C11.8984 30.4808 11.7061 29.5104 11.7329 28.5336C11.7329 22.4962 17.2849 13.0669 24.1329 13.0669C26.7249 13.0669 29.1329 14.4189 31.1196 16.4242C33.4716 19.5762 34.9329 23.5682 34.9329 26.6669Z" fill="#F9F9F9"/>
    <path d="M29.4665 32.6348V34.9334H18.7998V32.9921C19.9785 33.0534 21.2318 33.0668 22.5331 33.0668C25.1011 33.0668 27.4878 33.0161 29.4665 32.6348Z" fill="#081E12"/>
    <path d="M29.4665 23.5391V32.6351C27.4878 33.0165 25.1011 33.0671 22.5331 33.0671C21.2318 33.0671 19.9785 33.0671 18.7998 32.9925V23.5391C18.7998 23.1664 18.9479 22.809 19.2114 22.5454C19.475 22.2819 19.8324 22.1338 20.2051 22.1338H28.0611C28.4339 22.1338 28.7913 22.2819 29.0549 22.5454C29.3184 22.809 29.4665 23.1664 29.4665 23.5391Z" fill="#0B3F25"/>
  </g>
  <defs>
    <clipPath id="clip0_1803_29758">
      <rect width="24.8" height="21.8667" fill="white" transform="translate(11.7334 13.0669)"/>
    </clipPath>
  </defs>
</svg>
