<svg width="49" height="48" viewBox="0 0 49 48" fill="none"
  xmlns="http://www.w3.org/2000/svg">
  <path d="M25.163 34.4644C36.6697 34.0169 45.8582 30.0663 45.6861 25.6404C45.514 21.2145 36.0464 17.9894 24.5398 18.4368C13.0331 18.8843 3.8446 22.8349 4.01672 27.2608C4.18883 31.6867 13.6564 34.9118 25.163 34.4644Z" fill="#7A7A7A"/>
  <path d="M25.1416 33.8394C36.6482 33.3919 45.8367 29.4413 45.6646 25.0154C45.4925 20.5895 36.025 17.3644 24.5183 17.8118C13.0116 18.2593 3.82312 22.2099 3.99523 26.6358C4.16735 31.0617 13.6349 34.2868 25.1416 33.8394Z" fill="#DCDDDB"/>
  <path d="M23.3033 19.6013C21.8666 20.8532 18.1275 18.5066 15.7 19.3461C13.2726 20.1857 9.98141 20.8032 9.60273 23.1457C9.513 23.656 8.85988 27.0763 10.3881 28.7369C11.706 30.176 12.4772 30.8082 16.3996 30.9367C20.322 31.0652 26.1847 31.5497 27.2111 31.1192C28.2375 30.6886 34.4459 31.1286 35.7777 29.6442C37.1094 28.1597 40.7153 27.7046 40.5534 25.8227C40.3914 23.9408 38.3129 21.1053 35.8918 21.6672C33.4707 22.2291 31.3587 20.4658 30.3681 19.5698C29.3774 18.6738 28.1955 15.3481 23.3033 19.6013Z" fill="#F9D885" stroke="#DBAC40" stroke-width="1.59" stroke-linecap="round" stroke-linejoin="round"/>
  <path d="M13.9453 22.5969C13.9453 22.5969 15.7244 27.8275 17.5268 27.0258C19.3292 26.224 23.9831 26.9796 27.4439 27.3186C30.9047 27.6576 30.3936 26.5119 31.1014 25.5102" stroke="#DBAC3E" stroke-width="1.59" stroke-linecap="round" stroke-linejoin="round"/>
  <path d="M12.3022 27.4881C12.3022 27.4881 16.9557 29.9678 19.5629 30.0902C22.1701 30.2127 27.5812 30.3261 31.1134 29.2304C34.0754 28.3113 35.1291 29.1113 36.112 28.099" stroke="#DBAC3E" stroke-width="1.59" stroke-linecap="round" stroke-linejoin="round"/>
  <path d="M20.347 20.6547C20.347 20.6547 25.9635 25.8882 28.3138 23.0839C30.664 20.2795 36.7929 24.2056 36.384 25.4075C35.9752 26.6094 32.8035 28.2374 30.8213 28.5608" stroke="#DBAC3E" stroke-width="1.59" stroke-linecap="round" stroke-linejoin="round"/>
  <path d="M16.0636 19.8643C16.0636 19.8643 12.4593 18.8613 12.1944 21.3438C11.9296 23.8263 10.893 26.0993 12.9059 26.9037C14.9188 27.708 20.8874 28.7557 21.7538 28.3746" stroke="#DBAC3E" stroke-width="1.59" stroke-linecap="round" stroke-linejoin="round"/>
  <path d="M36.9697 22.3721C37.3714 22.5428 37.7164 22.824 37.9647 23.183C38.213 23.542 38.3544 23.964 38.3724 24.4001C38.4264 25.9197 37.4936 27.0147 36.5013 27.2094" stroke="#DBAC3E" stroke-width="1.59" stroke-linecap="round" stroke-linejoin="round"/>
  <path d="M17.6366 28.795C17.6366 28.795 24.7305 29.616 25.4761 29.1028C26.2217 28.5896 29.3736 29.0368 30.953 27.666C32.0194 26.7728 33.175 25.9918 34.4014 25.3354" stroke="#DBAC3E" stroke-width="1.59" stroke-linecap="round" stroke-linejoin="round"/>
  <path d="M10.8894 22.6115C10.8894 22.6115 9.8871 25.5293 10.9338 27.419C11.9805 29.3088 14.207 30.0529 14.4897 30.062C14.7724 30.0711 17.2843 30.463 17.2843 30.463" stroke="#DBAC3E" stroke-width="1.59" stroke-linecap="round" stroke-linejoin="round"/>
  <path d="M25.695 17.0758C25.695 17.0758 26.5486 17.1133 25.5875 17.0883C24.6265 17.0633 18.3481 18.1339 17.4426 18.4546C16.537 18.7754 10.6802 20.1675 10.3094 21.7619C9.93862 23.3563 11.9395 26.0138 13.2519 25.4896C14.5643 24.9653 18.7081 25.3672 20.3638 27.4785C22.0195 29.5899 25.5186 29.1548 26.5505 27.6323C27.5825 26.1099 33.3809 27.3381 34.0458 26.0133C34.7108 24.6884 38.0116 23.1865 37.5463 22.0636C37.0811 20.9406 35.1854 20.4356 34.999 19.9837C34.8126 19.5319 30.7731 16.5214 25.695 17.0758Z" fill="#DD653A"/>
  <path d="M16.6065 21.7837C14.5083 21.8633 14.3848 22.8698 15.1243 23.3155C15.8637 23.7612 18.3561 24.6518 18.7977 24.2402C19.2393 23.8287 19.817 23.1051 19.2837 22.7048C18.7504 22.3046 18.7059 21.6968 16.6065 21.7837Z" fill="#F8F2E8"/>
  <path d="M27.8168 23.0682C26.3448 23.125 26.2656 23.8274 26.7769 24.1425C27.2882 24.4576 29.0433 25.0801 29.3525 24.7911C29.6618 24.5021 30.0669 23.9937 29.693 23.7156C29.3192 23.4376 29.2871 23.0111 27.8168 23.0682Z" fill="#F8F2E8"/>
  <path d="M20.6774 18.2C18.8504 18.2701 18.7444 18.9677 19.3791 19.2842C20.0139 19.6007 22.1846 20.2002 22.5698 19.9099C22.955 19.6195 23.4642 19.1072 23.0018 18.8284C22.5395 18.5495 22.5026 18.1295 20.6774 18.2Z" fill="#F8F2E8"/>
  <path d="M30.9597 20.6374C29.61 21.1846 29.4639 21.9103 30.0687 22.0296C30.6736 22.1489 32.1985 21.6657 33.0777 21.715C34.3564 21.7922 33.4341 20.7384 32.9612 20.6035C32.4883 20.4687 32.3093 20.0902 30.9597 20.6374Z" fill="#F8F2E8"/>
  <path d="M25.076 21.1518C24.4286 21.8712 23.5978 22.4008 22.6725 22.6842C21.7131 22.9245 20.7079 22.9136 19.7539 22.6528C20.4012 21.9334 21.232 21.4038 22.1574 21.1204C23.1168 20.8802 24.1219 20.891 25.076 21.1518Z" fill="#385C2B"/>
  <path d="M24.5647 20.5434C24.5647 20.5434 23.3156 20.5083 22.5046 19.7768C21.6936 19.0453 21.6272 17.9113 21.6272 17.9113C21.6272 17.9113 22.8763 17.9463 23.6852 18.6793C24.4941 19.4122 24.5647 20.5434 24.5647 20.5434Z" fill="#385C2B"/>
  <path d="M27.9395 19.0008C27.817 19.0046 27.6949 19.0158 27.5737 19.0343C28.0052 18.6562 28.3194 18.1625 28.4792 17.6115C27.8702 17.6889 27.2919 17.9238 26.8013 18.293C26.3607 18.6702 26.0387 19.1669 25.8742 19.7231L25.8723 19.7338L25.8866 19.7363C26.5147 20.1232 27.2375 20.3289 27.9752 20.3307C28.7196 20.2843 29.4366 20.0328 30.0469 19.6039C29.4141 19.211 28.6844 19.0022 27.9395 19.0008Z" fill="#385C2B"/>
</svg>
