<svg width="49" height="48" viewBox="0 0 49 48" fill="none"
  xmlns="http://www.w3.org/2000/svg">
  <path d="M24.6356 31.9327C36.4916 31.4536 45.9241 27.3535 45.7036 22.7749C45.4832 18.1963 35.6933 14.8731 23.8373 15.3522C11.9813 15.8313 2.54881 19.9314 2.76923 24.51C2.98965 29.0886 12.7795 32.4119 24.6356 31.9327Z" fill="#7A7A7A"/>
  <path d="M24.9211 31.1653C36.8204 30.6549 46.2763 26.516 46.0415 21.9207C45.8068 17.3254 35.9702 14.0139 24.0709 14.5242C12.1716 15.0345 2.71571 19.1735 2.95049 23.7688C3.18526 28.364 13.0218 31.6756 24.9211 31.1653Z" fill="#F2F1F1"/>
  <path d="M25.0106 30.0331C35.2488 29.5941 43.3846 26.0326 43.1826 22.0784C42.9806 18.1242 34.5172 15.2747 24.279 15.7138C14.0409 16.1528 5.90498 19.7143 6.107 23.6685C6.30902 27.6227 14.7725 30.4722 25.0106 30.0331Z" fill="#D59037"/>
  <path d="M24.8339 29.4529C34.8785 29.0222 42.8606 25.528 42.6624 21.6485C42.4642 17.769 34.1607 14.9733 24.1161 15.4041C14.0715 15.8349 6.08939 19.329 6.28759 23.2085C6.48579 27.088 14.7893 29.8837 24.8339 29.4529Z" fill="#F5AB3F"/>
  <path d="M24.9001 28.7389C34.0631 28.3459 41.3446 25.1586 41.1638 21.6198C40.983 18.081 33.4084 15.5308 24.2454 15.9237C15.0824 16.3167 7.80086 19.504 7.98166 23.0428C8.16246 26.5817 15.7371 29.1319 24.9001 28.7389Z" fill="#DD653A"/>
  <path d="M13.3162 23.5551C14.747 23.4937 15.8825 22.9655 15.8524 22.3753C15.8222 21.7851 14.6378 21.3563 13.207 21.4177C11.7761 21.4791 10.6407 22.0073 10.6708 22.5975C10.701 23.1877 11.8853 23.6164 13.3162 23.5551Z" fill="white"/>
  <path d="M18.9832 19.7753C20.414 19.7139 21.5495 19.1857 21.5194 18.5955C21.4892 18.0053 20.3048 17.5765 18.874 17.6379C17.4431 17.6993 16.3076 18.2275 16.3378 18.8177C16.368 19.4079 17.5523 19.8366 18.9832 19.7753Z" fill="white"/>
  <path d="M26.9031 19.1342C28.334 19.0728 29.4694 18.5446 29.4393 17.9544C29.4091 17.3642 28.2248 16.9354 26.7939 16.9968C25.3631 17.0582 24.2276 17.5864 24.2577 18.1766C24.2879 18.7668 25.4723 19.1955 26.9031 19.1342Z" fill="white"/>
  <path d="M26.3972 26.3968C27.8281 26.3355 28.9636 25.8073 28.9334 25.2171C28.9033 24.6268 27.7189 24.1981 26.2881 24.2595C24.8572 24.3209 23.7217 24.8491 23.7519 25.4393C23.782 26.0295 24.9664 26.4582 26.3972 26.3968Z" fill="white"/>
  <path d="M36.5242 22.6527C37.9551 22.5913 39.0905 22.0631 39.0604 21.4729C39.0302 20.8827 37.8459 20.454 36.415 20.5154C34.9842 20.5767 33.8487 21.1049 33.8788 21.6951C33.909 22.2854 35.0934 22.7141 36.5242 22.6527Z" fill="white"/>
  <path d="M30.22 22.1361C31.6457 22.0785 32.7784 21.5551 32.7501 20.967C32.7218 20.3789 31.5432 19.9489 30.1175 20.0065C28.6919 20.0641 27.5591 20.5876 27.5874 21.1756C27.6157 21.7637 28.7944 22.1937 30.22 22.1361Z" fill="white"/>
  <path d="M19.4783 25.995C20.9092 25.9336 22.0446 25.4054 22.0145 24.8152C21.9843 24.225 20.8 23.7963 19.3691 23.8576C17.9383 23.919 16.8028 24.4472 16.8329 25.0374C16.8631 25.6276 18.0475 26.0564 19.4783 25.995Z" fill="white"/>
  <path d="M21.8985 22.346C22.7649 22.3088 23.4524 21.9892 23.4342 21.6321C23.416 21.275 22.6988 21.0157 21.8324 21.0528C20.966 21.09 20.2785 21.4096 20.2967 21.7667C20.3149 22.1238 21.0321 22.3831 21.8985 22.346Z" fill="white"/>
  <path d="M27.2911 23.8069C28.1575 23.7697 28.845 23.4501 28.8268 23.0931C28.8085 22.736 28.0914 22.4766 27.225 22.5138C26.3586 22.5509 25.671 22.8705 25.6893 23.2276C25.7075 23.5847 26.4247 23.844 27.2911 23.8069Z" fill="white"/>
  <path d="M33.2676 24.8479C34.134 24.8107 34.8216 24.4912 34.8033 24.1341C34.7851 23.777 34.068 23.5176 33.2016 23.5548C32.3352 23.5919 31.6476 23.9115 31.6658 24.2686C31.6841 24.6257 32.4012 24.8851 33.2676 24.8479Z" fill="white"/>
  <path d="M34.2422 19.7424C35.1086 19.7053 35.7962 19.3857 35.7779 19.0286C35.7597 18.6715 35.0426 18.4122 34.1762 18.4493C33.3098 18.4865 32.6222 18.8061 32.6405 19.1632C32.6587 19.5202 33.3758 19.7796 34.2422 19.7424Z" fill="white"/>
  <path d="M19.7968 19.9004C19.7968 19.9004 18.5554 20.8049 16.9702 20.8671C15.385 20.9293 14.0553 20.1407 14.0553 20.1407C14.0553 20.1407 15.2983 19.2366 16.8836 19.1683C18.4689 19.1 19.7968 19.9004 19.7968 19.9004Z" fill="#385C2B"/>
  <path d="M21.7006 24.0311C21.7006 24.0311 20.7544 25.1853 19.2378 25.6278C17.7213 26.0704 16.2174 25.6073 16.2174 25.6073C16.2174 25.6073 17.1669 24.4417 18.6814 24.0063C20.1958 23.5708 21.7006 24.0311 21.7006 24.0311Z" fill="#385C2B"/>
  <path d="M33.5251 24.3262C33.5251 24.3262 32.2837 25.2307 30.6968 25.2987C29.1099 25.3666 27.7819 24.5723 27.7819 24.5723C27.7819 24.5723 29.0189 23.6713 30.6055 23.5987C32.192 23.5261 33.5251 24.3262 33.5251 24.3262Z" fill="#385C2B"/>
  <path d="M37.2561 21.044C37.2561 21.044 36.0143 21.95 34.4278 22.0165C32.8413 22.083 31.5129 21.2901 31.5129 21.2901C31.5129 21.2901 32.7559 20.386 34.3412 20.3177C35.9265 20.2493 37.2561 21.044 37.2561 21.044Z" fill="#385C2B"/>
  <path d="M20.9815 21.6746C20.5995 22.1491 20.0798 22.5157 19.4816 22.7329C18.8688 22.9133 18.213 22.9327 17.5888 22.7889C17.9701 22.3139 18.49 21.9471 19.0887 21.7306C19.7015 21.5501 20.3572 21.5307 20.9815 21.6746Z" fill="#385C2B"/>
  <path d="M14.6776 22.7692C14.2959 23.2439 13.7762 23.6106 13.1777 23.8274C12.5677 24.0072 11.9148 24.0268 11.2932 23.8839C11.6594 23.3973 12.1828 23.0281 12.7899 22.8281C13.3969 22.6282 14.0571 22.6076 14.6776 22.7692Z" fill="#385C2B"/>
  <path d="M27.9829 23.4616C27.9829 23.4616 26.813 23.7998 25.6941 23.4173C24.5753 23.0347 23.9275 22.0762 23.9275 22.0762C23.9275 22.0762 25.0949 21.7466 26.2143 22.1216C27.3337 22.4965 27.9829 23.4616 27.9829 23.4616Z" fill="#385C2B"/>
  <path d="M27.353 20.7806C26.9688 21.2551 26.4469 21.6212 25.8468 21.8374C25.2341 22.0178 24.5783 22.0368 23.9545 21.8919C24.34 21.4167 24.8643 21.0509 25.4669 20.8368C26.0775 20.6569 26.7309 20.6374 27.353 20.7806Z" fill="#385C2B"/>
  <path d="M24.9365 17.3069C24.5548 17.7816 24.0351 18.1483 23.4367 18.3652C22.8238 18.5448 22.1683 18.5637 21.5443 18.4198C21.9266 17.9456 22.4462 17.579 23.0442 17.3615C23.6569 17.181 24.3127 17.1621 24.9365 17.3069Z" fill="#385C2B"/>
  <path d="M29.1955 18.5558C28.8142 19.0308 28.2943 19.3976 27.6956 19.614C27.0844 19.7941 26.4304 19.8139 25.8076 19.6712C26.1889 19.1962 26.7088 18.8294 27.3074 18.6129C27.9187 18.4329 28.5727 18.4131 29.1955 18.5558Z" fill="#385C2B"/>
  <path d="M25.0715 18.6463C24.5165 18.9514 23.8766 19.1021 23.2297 19.0799C22.5841 19.0144 21.9732 18.7783 21.4714 18.4003C22.0171 18.075 22.6642 17.9227 23.3134 17.9669C23.9626 18.0111 24.578 18.2492 25.0652 18.6448L25.0715 18.6463Z" fill="#385C2B"/>
  <path d="M32.6008 18.4103C32.2191 18.8849 31.6993 19.2517 31.1009 19.4685C30.4898 19.6486 29.8358 19.6679 29.2133 19.5242C29.5955 19.0501 30.1151 18.6835 30.7131 18.466C31.3243 18.286 31.9783 18.2666 32.6008 18.4103Z" fill="#385C2B"/>
</svg>
