<svg width="49" height="48" viewBox="0 0 49 48" fill="none"
  xmlns="http://www.w3.org/2000/svg">
  <path d="M22.6943 13.3627C22.6943 13.3627 9.44941 15.1656 8.91522 28.523C8.38103 41.8804 38.552 29.7773 39.3467 25.6367C40.1415 21.4962 36.3503 10.3558 22.6943 13.3627Z" fill="#EED776"/>
  <path d="M29.4246 12.967C28.6849 13.463 25.0927 12.613 25.0348 13.2823C24.9769 13.9516 21.0869 11.9818 21.7191 13.5156C22.3513 15.0494 19.4896 13.5903 19.0764 13.4305C18.6632 13.2708 18.5687 13.9632 18.1544 14.6482C17.74 15.3332 17.1027 16.9321 16.3036 16.6871C15.5045 16.4422 12.2297 16.3284 13.2996 17.9637C14.3696 19.599 10.1508 18.6222 10.7291 20.5592C11.3073 22.4961 9.35618 21.9123 9.96015 23.1831C10.5641 24.4538 7.87632 26.4479 9.24751 27.1145C10.6187 27.7811 7.99646 29.6198 9.29521 30.0193C10.594 30.4188 10.2519 33.5605 11.0622 32.5088C11.8725 31.4572 10.0933 29.3521 10.8839 28.2661C11.6746 27.18 10.3212 23.3284 11.4396 23.6403C12.5579 23.9522 15.8036 25.6773 15.2296 23.4723C14.6555 21.2674 13.5147 19.9248 15.2209 19.9274C16.9271 19.9301 17.7875 19.2712 17.7667 18.4646C17.746 17.6579 18.408 17.0452 19.1832 17.2739C19.9583 17.5026 20.3984 17.3358 20.7002 16.2795C21.0019 15.2232 20.5218 15.4518 22.2162 15.2925C23.9105 15.1331 23.603 13.7379 25.5449 14.3204C27.4869 14.903 28.3645 16.2756 29.1602 14.9012C29.9559 13.5268 31.8932 17.3913 32.9074 16.781C33.9217 16.1707 34.86 17.1169 35.9342 17.9956C37.0085 18.8742 38.1424 20.505 37.9033 19.1562C37.6641 17.8074 36.4307 16.223 35.4444 16.1227C34.4581 16.0224 33.547 15.3745 33.2284 14.5635C32.9099 13.7524 33.0339 10.5535 29.4246 12.967Z" fill="#86B240"/>
  <path d="M19.2327 20.1732C19.2327 20.1732 20.9778 18.1854 20.2565 17.5126C19.5352 16.8397 15.3742 17.6052 12.7855 20.0994C10.1968 22.5935 9.57267 26.4212 10.3002 27.2702C11.0278 28.1192 19.2327 20.1732 19.2327 20.1732Z" fill="#E35325"/>
  <path d="M25.0107 19.0461C25.0107 19.0461 26.6133 18.4437 26.3894 17.483C26.1654 16.5224 23.5154 14.7502 21.2755 15.2786C19.0357 15.8069 17.5458 18.5358 17.7206 19.641C17.8953 20.7461 25.0107 19.0461 25.0107 19.0461Z" fill="#E35325"/>
  <path d="M35.8949 18.7869C35.8949 18.7869 36.8499 17.3648 36.1108 16.7138C35.3717 16.0628 32.1823 16.1601 30.6635 17.8928C29.1447 19.6256 29.5206 22.7123 30.3054 23.5093C31.0903 24.3063 35.8949 18.7869 35.8949 18.7869Z" fill="#E35325"/>
  <path d="M26.6477 17.2712C26.5821 17.7615 26.3244 18.2057 25.9312 18.506C25.5381 18.8064 25.0418 18.9382 24.5515 18.8726C23.5309 18.736 21.0732 18.5228 21.211 17.493C21.3488 16.4632 24.0228 15.0324 25.0434 15.169C25.287 15.2011 25.5219 15.2811 25.7345 15.4042C25.9472 15.5274 26.1334 15.6913 26.2824 15.8867C26.4315 16.082 26.5405 16.3049 26.6032 16.5425C26.6659 16.7801 26.681 17.0278 26.6477 17.2712Z" fill="#664328"/>
  <path d="M21.5889 19.6681C21.5232 20.1584 21.2655 20.6026 20.8724 20.9029C20.4793 21.2032 19.983 21.3351 19.4926 21.2695C18.4702 21.1326 16.0144 20.9196 16.1522 19.8899C16.29 18.8601 18.966 17.4277 19.9885 17.5645C20.2319 17.5971 20.4664 17.6774 20.6787 17.8009C20.891 17.9243 21.0768 18.0885 21.2255 18.2839C21.3742 18.4793 21.4829 18.7022 21.5452 18.9398C21.6076 19.1773 21.6224 19.4248 21.5889 19.6681Z" fill="#664328"/>
  <path d="M16.6659 21.4471C16.7036 21.6893 16.6933 21.9365 16.6355 22.1746C16.5776 22.4128 16.4734 22.6372 16.3288 22.835C16.1842 23.0329 16.002 23.2003 15.7927 23.3277C15.5833 23.4551 15.3509 23.5401 15.1088 23.5776C14.0916 23.7362 11.676 24.2261 11.5174 23.2089C11.3588 22.1917 13.5182 20.0486 14.5382 19.8829C14.7807 19.8457 15.0281 19.8566 15.2663 19.915C15.5045 19.9735 15.7289 20.0784 15.9265 20.2237C16.1242 20.369 16.2912 20.5518 16.4181 20.7618C16.5449 20.9717 16.6292 21.2046 16.6659 21.4471Z" fill="#664328"/>
  <path d="M9.41146 26.8791C9.36222 26.6391 9.36074 26.3917 9.40712 26.1511C9.45349 25.9106 9.5468 25.6815 9.68173 25.477C9.81666 25.2725 9.99055 25.0965 10.1935 24.9592C10.3964 24.822 10.6244 24.726 10.8644 24.6768C11.8749 24.4708 14.2652 23.8637 14.4713 24.8742C14.6774 25.8847 12.6224 28.1257 11.6137 28.332C11.129 28.431 10.6249 28.3335 10.212 28.0611C9.79912 27.7887 9.51119 27.3636 9.41146 26.8791Z" fill="#664328"/>
  <path d="M32.3453 16.5083C32.2785 16.9965 32.0212 17.4385 31.6296 17.7376C31.238 18.0368 30.744 18.1688 30.2553 18.1049C29.2347 17.9683 26.7771 17.755 26.9149 16.7253C27.0527 15.6955 29.7306 14.2634 30.7512 14.4C30.9945 14.4333 31.2288 14.5143 31.4407 14.6384C31.6527 14.7624 31.838 14.9271 31.9861 15.123C32.1342 15.3189 32.2422 15.5421 32.3038 15.7798C32.3655 16.0175 32.3796 16.2651 32.3453 16.5083Z" fill="#664328"/>
  <path d="M38.2403 20.3426C38.2078 20.5854 38.1279 20.8194 38.0049 21.0313C37.882 21.2432 37.7185 21.4288 37.5239 21.5775C37.3292 21.7262 37.1072 21.8351 36.8705 21.898C36.6337 21.9608 36.3869 21.9765 36.1441 21.944C35.1235 21.8074 32.6679 21.5926 32.8055 20.5646C32.9431 19.5367 35.6193 18.1025 36.6399 18.2391C36.8834 18.2714 37.1182 18.3516 37.3306 18.475C37.543 18.5983 37.7289 18.7625 37.8776 18.958C38.0264 19.1535 38.135 19.3765 38.1972 19.6141C38.2595 19.8517 38.2741 20.0993 38.2403 20.3426Z" fill="#664328"/>
  <path d="M30.3057 18.8929C30.3057 18.8929 31.9082 18.2904 31.6859 17.3319C31.4635 16.3733 28.8121 14.5972 26.5723 15.1256C24.3324 15.6539 22.8405 18.3844 23.0155 19.4877C23.1905 20.591 30.3057 18.8929 30.3057 18.8929Z" fill="#E35325"/>
  <path d="M22.5425 17.1136C22.5425 17.1136 9.52647 19.5198 10.2441 30.8681C10.9617 42.2164 39.8583 29.9632 40.2639 26.4029C40.6695 22.8426 35.8476 13.6625 22.5425 17.1136Z" fill="#FEE784"/>
  <path d="M15.8556 28.6197C16.0074 28.64 16.1469 28.5334 16.1672 28.3816C16.1875 28.2298 16.0809 28.0903 15.9291 28.07C15.7773 28.0497 15.6378 28.1563 15.6175 28.308C15.5972 28.4598 15.7038 28.5994 15.8556 28.6197Z" fill="#D3BD61"/>
  <path d="M15.4669 33.628C15.6187 33.6483 15.7582 33.5417 15.7785 33.3899C15.7988 33.2381 15.6923 33.0986 15.5405 33.0783C15.3887 33.058 15.2492 33.1646 15.2288 33.3164C15.2085 33.4681 15.3151 33.6077 15.4669 33.628Z" fill="#D3BD61"/>
  <path d="M18.3097 29.7393C18.4615 29.7596 18.601 29.653 18.6213 29.5012C18.6416 29.3494 18.535 29.2099 18.3832 29.1896C18.2315 29.1693 18.0919 29.2759 18.0716 29.4277C18.0513 29.5795 18.1579 29.719 18.3097 29.7393Z" fill="#D3BD61"/>
  <path d="M19.8517 27.2823C20.0035 27.3026 20.143 27.196 20.1633 27.0442C20.1836 26.8924 20.077 26.7529 19.9252 26.7326C19.7734 26.7123 19.6339 26.8189 19.6136 26.9706C19.5933 27.1224 19.6999 27.262 19.8517 27.2823Z" fill="#D3BD61"/>
  <path d="M15.1368 25.5958C15.2886 25.6161 15.4281 25.5095 15.4485 25.3577C15.4688 25.2059 15.3622 25.0664 15.2104 25.0461C15.0586 25.0257 14.9191 25.1323 14.8988 25.2841C14.8785 25.4359 14.985 25.5754 15.1368 25.5958Z" fill="#D3BD61"/>
  <path d="M13.1622 27.9087C13.314 27.9291 13.4535 27.8225 13.4738 27.6707C13.4942 27.5189 13.3876 27.3794 13.2358 27.359C13.084 27.3387 12.9445 27.4453 12.9242 27.5971C12.9038 27.7489 13.0104 27.8884 13.1622 27.9087Z" fill="#D3BD61"/>
  <path d="M13.59 31.1666C13.7417 31.1869 13.8813 31.0803 13.9016 30.9285C13.9219 30.7767 13.8153 30.6372 13.6635 30.6169C13.5117 30.5965 13.3722 30.7031 13.3519 30.8549C13.3316 31.0067 13.4382 31.1462 13.59 31.1666Z" fill="#D3BD61"/>
  <path d="M18.9015 33.2593C19.0533 33.2796 19.1928 33.1731 19.2131 33.0213C19.2334 32.8695 19.1268 32.7299 18.975 32.7096C18.8232 32.6893 18.6837 32.7959 18.6634 32.9477C18.6431 33.0995 18.7497 33.239 18.9015 33.2593Z" fill="#D3BD61"/>
  <path d="M16.6398 31.4981C16.7916 31.5184 16.9311 31.4118 16.9514 31.26C16.9717 31.1082 16.8651 30.9687 16.7133 30.9484C16.5615 30.9281 16.422 31.0347 16.4017 31.1865C16.3814 31.3383 16.488 31.4778 16.6398 31.4981Z" fill="#D3BD61"/>
  <path d="M22.4542 30.8907C22.606 30.911 22.7455 30.8044 22.7658 30.6526C22.7862 30.5008 22.6796 30.3613 22.5278 30.341C22.376 30.3207 22.2365 30.4273 22.2161 30.579C22.1958 30.7308 22.3024 30.8704 22.4542 30.8907Z" fill="#D3BD61"/>
  <path d="M23.4347 32.7637C23.5865 32.784 23.726 32.6774 23.7463 32.5257C23.7666 32.3739 23.66 32.2343 23.5082 32.214C23.3565 32.1937 23.2169 32.3003 23.1966 32.4521C23.1763 32.6039 23.2829 32.7434 23.4347 32.7637Z" fill="#D3BD61"/>
  <path d="M29.2413 28.8184C29.3931 28.8387 29.5326 28.7321 29.553 28.5803C29.5733 28.4285 29.4667 28.289 29.3149 28.2687C29.1631 28.2484 29.0236 28.355 29.0033 28.5068C28.9829 28.6586 29.0895 28.7981 29.2413 28.8184Z" fill="#D3BD61"/>
  <path d="M28.6954 25.1753C28.8472 25.1957 28.9867 25.0891 29.0071 24.9373C29.0274 24.7855 28.9208 24.646 28.769 24.6256C28.6172 24.6053 28.4777 24.7119 28.4574 24.8637C28.437 25.0155 28.5436 25.155 28.6954 25.1753Z" fill="#D3BD61"/>
  <path d="M23.4747 23.2627C23.6265 23.2831 23.766 23.1765 23.7863 23.0247C23.8067 22.8729 23.7001 22.7334 23.5483 22.7131C23.3965 22.6927 23.257 22.7993 23.2367 22.9511C23.2163 23.1029 23.3229 23.2424 23.4747 23.2627Z" fill="#D3BD61"/>
  <path d="M19.92 23.0669C20.0718 23.0873 20.2113 22.9807 20.2317 22.8289C20.252 22.6771 20.1454 22.5376 19.9936 22.5173C19.8418 22.4969 19.7023 22.6035 19.682 22.7553C19.6617 22.9071 19.7682 23.0466 19.92 23.0669Z" fill="#D3BD61"/>
  <path d="M25.9425 18.7027C26.0943 18.723 26.2338 18.6164 26.2541 18.4646C26.2744 18.3128 26.1679 18.1733 26.0161 18.153C25.8643 18.1327 25.7247 18.2393 25.7044 18.3911C25.6841 18.5429 25.7907 18.6824 25.9425 18.7027Z" fill="#D3BD61"/>
  <path d="M25.7735 29.7403C25.9253 29.7606 26.0649 29.654 26.0852 29.5022C26.1055 29.3504 25.9989 29.2109 25.8471 29.1906C25.6953 29.1703 25.5558 29.2769 25.5355 29.4287C25.5152 29.5804 25.6218 29.72 25.7735 29.7403Z" fill="#D3BD61"/>
  <path d="M28.3829 19.3091C28.5347 19.3294 28.6742 19.2229 28.6946 19.0711C28.7149 18.9193 28.6083 18.7798 28.4565 18.7594C28.3047 18.7391 28.1652 18.8457 28.1449 18.9975C28.1245 19.1493 28.2311 19.2888 28.3829 19.3091Z" fill="#D3BD61"/>
  <path d="M24.297 26.316C24.4488 26.3363 24.5883 26.2297 24.6086 26.0779C24.6289 25.9261 24.5223 25.7866 24.3705 25.7663C24.2188 25.746 24.0792 25.8525 24.0589 26.0043C24.0386 26.1561 24.1452 26.2957 24.297 26.316Z" fill="#D3BD61"/>
  <path d="M27.2511 26.8101C27.4029 26.8304 27.5424 26.7238 27.5627 26.572C27.583 26.4202 27.4764 26.2807 27.3247 26.2604C27.1729 26.2401 27.0333 26.3467 27.013 26.4985C26.9927 26.6503 27.0993 26.7898 27.2511 26.8101Z" fill="#D3BD61"/>
  <path d="M30.2511 26.6929C30.4029 26.7132 30.5424 26.6066 30.5627 26.4549C30.583 26.3031 30.4764 26.1635 30.3247 26.1432C30.1729 26.1229 30.0333 26.2295 30.013 26.3813C29.9927 26.5331 30.0993 26.6726 30.2511 26.6929Z" fill="#D3BD61"/>
  <path d="M32.6915 27.2994C32.8433 27.3197 32.9828 27.2131 33.0031 27.0613C33.0235 26.9095 32.9169 26.77 32.7651 26.7497C32.6133 26.7294 32.4738 26.8359 32.4535 26.9877C32.4331 27.1395 32.5397 27.2791 32.6915 27.2994Z" fill="#D3BD61"/>
  <path d="M30.8605 19.3609C31.0123 19.3812 31.1518 19.2746 31.1721 19.1228C31.1924 18.971 31.0858 18.8315 30.934 18.8112C30.7822 18.7909 30.6427 18.8975 30.6224 19.0493C30.6021 19.2011 30.7087 19.3406 30.8605 19.3609Z" fill="#D3BD61"/>
  <path d="M33.2999 19.9668C33.4517 19.9872 33.5912 19.8806 33.6115 19.7288C33.6319 19.577 33.5253 19.4375 33.3735 19.4172C33.2217 19.3968 33.0822 19.5034 33.0619 19.6552C33.0415 19.807 33.1481 19.9465 33.2999 19.9668Z" fill="#D3BD61"/>
  <path d="M24.0616 20.7637C24.2134 20.784 24.3529 20.6774 24.3733 20.5257C24.3936 20.3739 24.287 20.2343 24.1352 20.214C23.9834 20.1937 23.8439 20.3003 23.8236 20.4521C23.8033 20.6039 23.9098 20.7434 24.0616 20.7637Z" fill="#D3BD61"/>
  <path d="M26.5001 21.3697C26.6519 21.39 26.7914 21.2834 26.8117 21.1316C26.8321 20.9798 26.7255 20.8403 26.5737 20.82C26.4219 20.7997 26.2824 20.9063 26.262 21.058C26.2417 21.2098 26.3483 21.3494 26.5001 21.3697Z" fill="#D3BD61"/>
  <path d="M29.7179 21.7242C29.8697 21.7445 30.0092 21.6379 30.0295 21.4861C30.0498 21.3343 29.9432 21.1948 29.7914 21.1745C29.6397 21.1542 29.5001 21.2607 29.4798 21.4125C29.4595 21.5643 29.5661 21.7039 29.7179 21.7242Z" fill="#D3BD61"/>
  <path d="M16.2882 23.9107C16.44 23.931 16.5795 23.8244 16.5998 23.6726C16.6201 23.5208 16.5136 23.3813 16.3618 23.361C16.21 23.3407 16.0704 23.4473 16.0501 23.5991C16.0298 23.7509 16.1364 23.8904 16.2882 23.9107Z" fill="#D3BD61"/>
  <path d="M18.7267 24.5166C18.8785 24.537 19.018 24.4304 19.0383 24.2786C19.0586 24.1268 18.952 23.9873 18.8002 23.967C18.6484 23.9466 18.5089 24.0532 18.4886 24.205C18.4683 24.3568 18.5749 24.4963 18.7267 24.5166Z" fill="#D3BD61"/>
  <path d="M22.381 27.2403C22.5328 27.2606 22.6723 27.154 22.6926 27.0022C22.7129 26.8504 22.6063 26.7109 22.4545 26.6906C22.3027 26.6703 22.1632 26.7769 22.1429 26.9287C22.1226 27.0804 22.2292 27.22 22.381 27.2403Z" fill="#D3BD61"/>
  <path d="M36.1593 25.1763C36.3111 25.1966 36.4506 25.09 36.4709 24.9383C36.4912 24.7865 36.3846 24.6469 36.2329 24.6266C36.0811 24.6063 35.9415 24.7129 35.9212 24.8647C35.9009 25.0165 36.0075 25.156 36.1593 25.1763Z" fill="#D3BD61"/>
  <path d="M30.9386 23.2637C31.0904 23.284 31.2299 23.1774 31.2502 23.0257C31.2705 22.8739 31.1639 22.7343 31.0122 22.714C30.8604 22.6937 30.7208 22.8003 30.7005 22.9521C30.6802 23.1039 30.7868 23.2434 30.9386 23.2637Z" fill="#D3BD61"/>
  <path d="M17.6095 20.7081C17.7613 20.7284 17.9008 20.6218 17.9211 20.47C17.9414 20.3182 17.8348 20.1787 17.683 20.1584C17.5313 20.138 17.3917 20.2446 17.3714 20.3964C17.3511 20.5482 17.4577 20.6877 17.6095 20.7081Z" fill="#D3BD61"/>
  <path d="M20.8263 21.0635C20.9781 21.0838 21.1176 20.9773 21.1379 20.8255C21.1582 20.6737 21.0516 20.5341 20.8998 20.5138C20.7481 20.4935 20.6085 20.6001 20.5882 20.7519C20.5679 20.9037 20.6745 21.0432 20.8263 21.0635Z" fill="#D3BD61"/>
  <path d="M22.0489 22.6021C22.2007 22.6224 22.3403 22.5158 22.3606 22.364C22.3809 22.2122 22.2743 22.0727 22.1225 22.0524C21.9707 22.0321 21.8312 22.1387 21.8109 22.2905C21.7906 22.4423 21.8971 22.5818 22.0489 22.6021Z" fill="#D3BD61"/>
  <path d="M27.3839 23.0679C27.5357 23.0882 27.6752 22.9816 27.6955 22.8299C27.7158 22.6781 27.6093 22.5385 27.4575 22.5182C27.3057 22.4979 27.1661 22.6045 27.1458 22.7563C27.1255 22.9081 27.2321 23.0476 27.3839 23.0679Z" fill="#D3BD61"/>
  <path d="M35.1583 21.1949C35.3101 21.2152 35.4496 21.1086 35.4699 20.9568C35.4903 20.805 35.3837 20.6655 35.2319 20.6452C35.0801 20.6249 34.9406 20.7315 34.9202 20.8832C34.8999 21.035 35.0065 21.1746 35.1583 21.1949Z" fill="#D3BD61"/>
  <path d="M32.5558 21.9004C32.7076 21.9208 32.8471 21.8142 32.8674 21.6624C32.8877 21.5106 32.7811 21.3711 32.6293 21.3507C32.4775 21.3304 32.338 21.437 32.3177 21.5888C32.2974 21.7406 32.404 21.8801 32.5558 21.9004Z" fill="#D3BD61"/>
  <path d="M32.9376 24.7754C33.0894 24.7958 33.2289 24.6892 33.2492 24.5374C33.2696 24.3856 33.163 24.2461 33.0112 24.2257C32.8594 24.2054 32.7199 24.312 32.6995 24.4638C32.6792 24.6156 32.7858 24.7551 32.9376 24.7754Z" fill="#D3BD61"/>
  <path d="M37.6427 23.066C37.7945 23.0863 37.934 22.9797 37.9543 22.8279C37.9746 22.6761 37.868 22.5366 37.7163 22.5163C37.5645 22.496 37.4249 22.6025 37.4046 22.7543C37.3843 22.9061 37.4909 23.0457 37.6427 23.066Z" fill="#D3BD61"/>
  <path d="M27.4718 32.0416C27.6236 32.0619 27.7631 31.9553 27.7834 31.8035C27.8037 31.6517 27.6971 31.5122 27.5454 31.4919C27.3936 31.4715 27.254 31.5781 27.2337 31.7299C27.2134 31.8817 27.32 32.0212 27.4718 32.0416Z" fill="#D3BD61"/>
  <path d="M32.714 30.1822C32.8658 30.2025 33.0053 30.0959 33.0256 29.9441C33.0459 29.7923 32.9393 29.6528 32.7875 29.6325C32.6357 29.6122 32.4962 29.7188 32.4759 29.8705C32.4556 30.0223 32.5622 30.1619 32.714 30.1822Z" fill="#D3BD61"/>
  <path d="M35.5753 28.064C35.7271 28.0843 35.8666 27.9777 35.8869 27.8259C35.9072 27.6742 35.8007 27.5346 35.6489 27.5143C35.4971 27.494 35.3576 27.6006 35.3372 27.7524C35.3169 27.9042 35.4235 28.0437 35.5753 28.064Z" fill="#D3BD61"/>
</svg>
