<svg width="49" height="48" viewBox="0 0 49 48" fill="none"
  xmlns="http://www.w3.org/2000/svg">
  <g clip-path="url(#clip0_1803_29792)">
    <path d="M46.7197 23.0788C46.7197 27.2675 36.6047 32.5432 24.133 32.5432C11.6614 32.5432 1.5332 27.2675 1.5332 23.0788C1.5332 18.8901 11.6483 15.4922 24.1199 15.4922C36.5915 15.4922 46.7197 18.8855 46.7197 23.0788Z" fill="#9BA2A6"/>
    <path d="M46.8662 22.7024C46.8662 26.6974 36.7511 30.9499 24.2795 30.9499C11.8079 30.9499 1.67969 26.6974 1.67969 22.7024C1.67969 18.7075 11.7948 15.4668 24.272 15.4668C36.7493 15.4668 46.8662 18.7052 46.8662 22.7024Z" fill="#D6DEE5"/>
    <path d="M24.6301 17.2012C22.1926 16.0093 12.7269 17.8986 11.7011 19.9359C10.6753 21.9733 4.62393 23.188 9.00951 25.8977C13.3951 28.6073 16.6494 26.7431 19.7269 27.363C22.8043 27.9829 26.7175 30.002 30.4254 29.2272C34.1334 28.4524 39.9043 26.8206 39.9551 24.1041C40.006 21.3876 42.2383 21.5654 40.1866 18.9423C38.135 16.3193 28.946 19.3115 24.6301 17.2012Z" fill="#C4371F"/>
    <path d="M22.4902 26.588C23.565 26.4353 27.1676 25.5762 27.5534 25.207C27.6544 25.1393 27.7428 25.0474 27.8134 24.9369C27.8839 24.8264 27.9351 24.6996 27.9637 24.5643C27.9795 24.4899 27.9858 24.4131 27.9826 24.3364C27.9276 24.5518 27.8231 24.7439 27.6814 24.8902C27.6482 24.9224 27.613 24.9514 27.576 24.9768C27.2859 25.159 26.976 25.291 26.6556 25.3688C25.6128 25.7015 23.9565 26.0935 22.9853 26.2804C22.8438 26.4308 22.6737 26.5365 22.4902 26.588Z" fill="#D2654B"/>
    <path d="M25.676 23.8988C25.5556 24.5141 25.9715 25.1614 26.6171 25.3437L26.6717 25.3573C26.9922 25.2795 27.302 25.1476 27.5921 24.9654C27.6291 24.9399 27.6644 24.911 27.6975 24.8788C27.8192 24.7812 27.9136 24.6414 27.9686 24.4777L27.9987 24.325C27.9828 24.0889 27.9137 23.8627 27.7989 23.671C27.684 23.4793 27.5278 23.3295 27.3474 23.2379C27.2528 23.1808 27.153 23.1372 27.05 23.108C26.9678 23.0848 26.884 23.0704 26.7997 23.0647C26.7283 23.0579 26.6565 23.0579 26.5851 23.0647C26.3803 23.0699 26.1821 23.1534 26.0188 23.3032C25.8555 23.453 25.7355 23.6615 25.676 23.8988Z" fill="#D2654B"/>
    <path d="M21.1814 24.7557C21.0816 25.1705 21.347 25.8701 21.7046 26.2849C21.852 26.4765 22.0536 26.5937 22.2693 26.613C22.3182 26.613 22.386 26.613 22.4726 26.5903H22.4838C22.6732 26.5436 22.8484 26.4348 22.9902 26.2758C23.9614 26.0912 25.6253 25.6992 26.6605 25.3642C26.981 25.2864 27.2908 25.1544 27.5809 24.9722C27.6179 24.9468 27.6531 24.9178 27.6863 24.8856C27.6932 24.8298 27.697 24.7734 27.6976 24.717C27.6976 24.0903 27.3212 23.1559 26.7885 23.0716C26.7466 23.0647 26.7042 23.0647 26.6624 23.0716C26.636 23.0716 26.6078 23.0716 26.5739 23.0716C26.4233 23.0898 26.1975 23.1285 25.9377 23.181C24.9646 23.3815 23.3779 23.7758 22.3201 24.1108C22.0698 24.1882 21.8495 24.2635 21.6745 24.3387C21.5559 24.3865 21.458 24.4275 21.3865 24.4663C21.3583 24.4845 21.3338 24.505 21.3075 24.5255C21.2455 24.5832 21.2011 24.6642 21.1814 24.7557Z" fill="#D2654B"/>
    <path d="M20.9372 25.1364C20.8187 25.7563 21.2328 26.399 21.8671 26.5767C22.0677 26.6361 22.2768 26.64 22.4788 26.5881H22.4901C22.6773 26.5409 22.8503 26.433 22.9907 26.2759C23.1083 26.1453 23.1914 25.9757 23.2298 25.7882C23.2436 25.7134 23.2505 25.637 23.2505 25.5603C23.2505 25.0156 22.859 24.496 22.3094 24.3365C22.1032 24.2785 21.8888 24.2785 21.6826 24.3365C21.5821 24.3622 21.4851 24.4052 21.3946 24.4641C21.3664 24.4824 21.3419 24.5029 21.3156 24.5234C21.2734 24.5554 21.2337 24.592 21.197 24.6328C21.0695 24.7641 20.9787 24.9401 20.9372 25.1364Z" fill="#D2654B"/>
    <path d="M20.9706 25.1956C20.8614 25.7745 21.2473 26.3715 21.8364 26.5402C22.0223 26.5914 22.2153 26.5914 22.4011 26.5402H22.4256C22.5996 26.4954 22.7607 26.3956 22.8924 26.2508C23.0025 26.1293 23.0799 25.9705 23.1145 25.795C23.1273 25.7269 23.1336 25.6574 23.1333 25.5876C23.1333 25.0817 22.77 24.5963 22.2486 24.4481C22.0569 24.3923 21.8569 24.3923 21.6652 24.4481C21.5711 24.4726 21.4805 24.5132 21.396 24.5689L21.3226 24.6236C21.2832 24.6539 21.2461 24.6882 21.2115 24.7262C21.092 24.8476 21.0076 25.012 20.9706 25.1956Z" fill="#D2654B"/>
    <path d="M31.3398 22.9235C32.4146 22.7685 36.0172 21.9116 36.4049 21.5424C36.506 21.4751 36.5947 21.3833 36.6653 21.2728C36.7359 21.1622 36.7869 21.0352 36.8152 20.8998C36.831 20.8254 36.8373 20.7486 36.8341 20.6719C36.7796 20.8882 36.6751 21.0812 36.5329 21.2279C36.4992 21.2587 36.464 21.2868 36.4275 21.3123C36.1377 21.4955 35.8278 21.6275 35.5071 21.7042C34.4643 22.037 32.808 22.4312 31.8368 22.6158C31.6947 22.7666 31.524 22.8723 31.3398 22.9235Z" fill="#D2654B"/>
    <path d="M34.5266 20.2343C34.4062 20.8519 34.8221 21.4991 35.4583 21.6792L35.5129 21.6928C35.8336 21.6161 36.1436 21.4841 36.4333 21.3009C36.4699 21.2754 36.5051 21.2473 36.5387 21.2165C36.6609 21.1187 36.7555 20.9779 36.8098 20.8132L36.8399 20.6605C36.8245 20.4245 36.7556 20.1983 36.6406 20.0069C36.5257 19.8154 36.3692 19.6662 36.1886 19.5757C36.0944 19.5176 35.9944 19.4739 35.8912 19.4458C35.8092 19.4215 35.7253 19.407 35.6409 19.4025C35.5695 19.3945 35.4977 19.3945 35.4263 19.4025C35.2233 19.4095 35.0272 19.4936 34.8658 19.6429C34.7043 19.7921 34.5857 19.999 34.5266 20.2343Z" fill="#D2654B"/>
    <path d="M30.0319 21.0913C29.9322 21.5038 30.1976 22.2057 30.5571 22.6182C30.7034 22.8115 30.9056 22.9291 31.1217 22.9464C31.1707 22.9464 31.2384 22.9464 31.325 22.9236H31.3363C31.5232 22.8755 31.6961 22.7677 31.837 22.6114C32.8082 22.4268 34.4721 22.0325 35.5073 21.6998C35.828 21.6231 36.138 21.4911 36.4277 21.3078C36.4643 21.2824 36.4995 21.2542 36.5331 21.2235C36.5409 21.167 36.5446 21.1099 36.5444 21.0526C36.5444 20.4282 36.168 19.4938 35.6353 19.4095C35.5935 19.4026 35.551 19.4026 35.5092 19.4095C35.4798 19.4066 35.4502 19.4066 35.4207 19.4095C35.2702 19.4277 35.0443 19.4665 34.7845 19.5189C33.8114 19.7171 32.2247 20.1114 31.1669 20.4487C30.9166 20.5284 30.6964 20.6036 30.5213 20.6766C30.4027 20.7244 30.3049 20.7677 30.2333 20.8065L30.1543 20.8657C30.0936 20.9221 30.0505 21.0016 30.0319 21.0913Z" fill="#D2654B"/>
    <path d="M29.7869 21.4718C29.6683 22.0916 30.0824 22.7343 30.7167 22.9143C30.9179 22.9712 31.1272 22.9712 31.3284 22.9143H31.3397C31.5245 22.8681 31.6959 22.7635 31.8366 22.6112C31.9545 22.4801 32.0377 22.3096 32.0756 22.1213C32.0894 22.0464 32.0964 21.97 32.0963 21.8934C32.0963 21.351 31.7048 20.8291 31.1458 20.6719C30.9398 20.6126 30.7251 20.6126 30.519 20.6719C30.4187 20.6993 30.3218 20.743 30.2311 20.8018L30.152 20.861C30.1098 20.893 30.0701 20.9297 30.0334 20.9704C29.9107 21.1029 29.8246 21.278 29.7869 21.4718Z" fill="#D2654B"/>
    <path d="M29.8212 21.5288C29.712 22.1054 30.0979 22.7048 30.6889 22.8711C30.8747 22.9227 31.0678 22.9227 31.2536 22.8711H31.2724C31.4466 22.8269 31.6077 22.727 31.7392 22.5817C31.8488 22.4597 31.9261 22.3011 31.9613 22.1259C31.9742 22.0587 31.9805 21.9898 31.9801 21.9208C31.9801 21.4149 31.6168 20.9295 31.0955 20.7813C30.9035 20.7278 30.704 20.7278 30.512 20.7813C30.4183 20.806 30.3277 20.8459 30.2428 20.8998L30.1694 20.9568C30.1301 20.9863 30.0929 21.0199 30.0584 21.0571C29.9409 21.1809 29.8581 21.3457 29.8212 21.5288Z" fill="#D2654B"/>
    <path d="M18.166 23.778C19.2389 23.623 22.8433 22.7661 23.2292 22.3969C23.3301 22.3296 23.4185 22.2378 23.4888 22.1272C23.5591 22.0166 23.6097 21.8896 23.6376 21.7543C23.6543 21.6801 23.6613 21.6032 23.6583 21.5264C23.6055 21.7389 23.5044 21.9292 23.3666 22.0756C23.3327 22.1052 23.297 22.1348 23.2612 22.1599C22.9711 22.3423 22.6613 22.4743 22.3408 22.5519C21.298 22.8846 19.6398 23.2789 18.6705 23.4635C18.5261 23.6168 18.3529 23.7248 18.166 23.778Z" fill="#D2654B"/>
    <path d="M21.3508 21.0888C21.2304 21.7064 21.6464 22.3536 22.2807 22.5337L22.3371 22.5473C22.6576 22.4697 22.9675 22.3378 23.2575 22.1553C23.2933 22.1303 23.3291 22.1007 23.3629 22.071C23.4846 21.9724 23.579 21.8319 23.634 21.6677L23.6641 21.515C23.6482 21.2789 23.5791 21.0527 23.4643 20.861C23.3494 20.6692 23.1933 20.5194 23.0128 20.4279C22.918 20.3719 22.8183 20.329 22.7155 20.3003C22.6333 20.2762 22.5495 20.2617 22.4651 20.257C22.3937 20.249 22.3219 20.249 22.2505 20.257C22.0477 20.2647 21.8518 20.349 21.6905 20.4982C21.5292 20.6474 21.4104 20.8539 21.3508 21.0888Z" fill="#D2654B"/>
    <path d="M16.8581 21.9458C16.7584 22.3583 17.0237 23.0602 17.3814 23.4727C17.5283 23.6651 17.7302 23.7824 17.946 23.8009C17.995 23.8009 18.0627 23.8009 18.1474 23.7781H18.1606C18.3474 23.7294 18.5201 23.6217 18.6613 23.4659C19.6306 23.2813 21.2964 22.887 22.3316 22.5543C22.6521 22.4767 22.962 22.3447 23.252 22.1623C23.2878 22.1372 23.3235 22.1076 23.3574 22.078C23.3614 22.0211 23.3614 21.9639 23.3574 21.9071C23.3574 21.2826 22.981 20.3483 22.4502 20.2639C22.4083 20.2571 22.3659 20.2571 22.3241 20.2639C22.2946 20.2609 22.2651 20.2609 22.2356 20.2639C22.0832 20.2822 21.8592 20.3209 21.5975 20.3733C20.6244 20.5716 19.0396 20.9659 17.9799 21.3009C17.7315 21.3806 17.5112 21.4558 17.3362 21.5288C17.2176 21.5766 17.1197 21.6199 17.0482 21.6587C17.0198 21.6754 16.9927 21.6952 16.9673 21.7179C16.9116 21.7777 16.8733 21.8576 16.8581 21.9458Z" fill="#D2654B"/>
    <path d="M16.614 22.3242C16.4954 22.9441 16.9095 23.5868 17.5419 23.7668C17.7433 23.8225 17.9523 23.8225 18.1537 23.7668H18.1668C18.3506 23.7203 18.5212 23.6166 18.6619 23.466C18.7804 23.3394 18.865 23.1727 18.9047 22.9874C18.9195 22.9128 18.9264 22.8362 18.9254 22.7595C18.9254 22.2148 18.5358 21.6952 17.9843 21.538C17.7782 21.4789 17.5636 21.4789 17.3575 21.538C17.2569 21.5647 17.16 21.6085 17.0695 21.6679C17.0411 21.6846 17.014 21.7044 16.9886 21.7272C16.9473 21.759 16.9083 21.7948 16.8719 21.8343C16.7467 21.962 16.6567 22.1329 16.614 22.3242Z" fill="#D2654B"/>
    <path d="M16.6454 22.3832C16.5363 22.9598 16.9221 23.5592 17.5112 23.7255C17.6971 23.7767 17.8901 23.7767 18.0759 23.7255H18.0966C18.2688 23.6823 18.4285 23.5848 18.5596 23.4429C18.6685 23.3202 18.7456 23.1619 18.7817 22.9871C18.7945 22.9199 18.8008 22.8511 18.8006 22.782C18.8006 22.2738 18.4354 21.7907 17.9159 21.6426C17.7234 21.5879 17.5231 21.5879 17.3306 21.6426C17.2377 21.6694 17.148 21.71 17.0633 21.7633L16.988 21.818C16.9497 21.8491 16.9132 21.8834 16.8788 21.9206C16.7641 22.0426 16.6827 22.2039 16.6454 22.3832Z" fill="#D2654B"/>
    <path d="M17.752 21.9526C18.8267 21.7976 22.4293 20.9408 22.817 20.5693C22.9182 20.502 23.0068 20.4102 23.0774 20.2996C23.148 20.1891 23.199 20.0621 23.2273 19.9266C23.2431 19.8523 23.2494 19.7754 23.2462 19.6987C23.1915 19.915 23.087 20.1079 22.945 20.2548C22.9113 20.2855 22.8761 20.3137 22.8396 20.3391C22.5499 20.5224 22.2399 20.6544 21.9192 20.7311C20.8764 21.0638 19.2201 21.4558 18.2489 21.6427C18.1061 21.7926 17.9357 21.8989 17.752 21.9526Z" fill="#D2654B"/>
    <path d="M20.9392 19.2634C20.8206 19.881 21.2347 20.5283 21.8803 20.7083L21.9349 20.722C22.2556 20.6453 22.5655 20.5133 22.8553 20.33C22.8918 20.3045 22.927 20.2764 22.9607 20.2457C23.0822 20.1463 23.177 20.0061 23.2336 19.8423L23.2618 19.6896C23.2464 19.4534 23.1774 19.2269 23.0625 19.0351C22.9476 18.8433 22.7912 18.6937 22.6106 18.6026C22.5164 18.5448 22.4164 18.5019 22.3132 18.4749C22.2269 18.4488 22.1386 18.4335 22.0497 18.4294C21.9783 18.4213 21.9065 18.4213 21.8351 18.4294C21.6325 18.4375 21.4371 18.5223 21.2764 18.672C21.1156 18.8216 20.9977 19.0284 20.9392 19.2634Z" fill="#D2654B"/>
    <path d="M16.4457 20.1202C16.3441 20.5327 16.6095 21.2346 16.969 21.6471C17.1157 21.8398 17.3177 21.9573 17.5336 21.9753C17.5826 21.9753 17.6503 21.9753 17.735 21.9525H17.7463C17.933 21.9034 18.1056 21.7957 18.247 21.6403C19.2182 21.4534 20.8821 21.0614 21.9173 20.7287C22.2381 20.652 22.548 20.52 22.8378 20.3367C22.8743 20.3113 22.9095 20.2831 22.9432 20.2524C22.9509 20.1959 22.9547 20.1387 22.9545 20.0815C22.9545 19.457 22.578 18.5204 22.0453 18.4384C22.0034 18.4327 21.9611 18.4327 21.9192 18.4384L21.8308 18.452C21.6802 18.4703 21.4543 18.5067 21.1946 18.5614C20.2215 18.7597 18.6347 19.1539 17.5769 19.489C17.3266 19.5687 17.1064 19.6439 16.9313 19.7168C16.8128 19.7647 16.7168 19.808 16.6434 19.8445L16.5643 19.9037C16.5063 19.9583 16.4647 20.0343 16.4457 20.1202Z" fill="#D2654B"/>
    <path d="M16.1999 20.4989C16.0813 21.1188 16.4973 21.7614 17.1297 21.9415C17.331 21.9972 17.5401 21.9972 17.7414 21.9415H17.7527C17.9393 21.8924 18.112 21.7847 18.2534 21.6292C18.371 21.4978 18.4541 21.3274 18.4924 21.1393C18.5062 21.0645 18.5132 20.988 18.5131 20.9114C18.5131 20.3667 18.1216 19.8471 17.572 19.6876C17.3658 19.6295 17.1514 19.6295 16.9452 19.6876C16.8449 19.7143 16.7481 19.7572 16.6573 19.8152L16.5782 19.8745C16.5364 19.9072 16.4968 19.9438 16.4596 19.9838C16.3308 20.1186 16.24 20.2986 16.1999 20.4989Z" fill="#D2654B"/>
    <path d="M16.2333 20.5581C16.1241 21.1347 16.51 21.734 17.101 21.9004C17.2868 21.952 17.4799 21.952 17.6657 21.9004H17.6789C17.8522 21.8585 18.0132 21.7617 18.1456 21.6201C18.2558 21.4986 18.3332 21.3398 18.3678 21.1643C18.3804 21.097 18.3867 21.0282 18.3866 20.9592C18.3866 20.451 18.0233 19.9678 17.5019 19.8197C17.3102 19.7639 17.1102 19.7639 16.9184 19.8197C16.8252 19.8448 16.7352 19.8854 16.6512 19.9405C16.6248 19.9564 16.6003 19.977 16.5759 19.9952C16.5368 20.0249 16.5002 20.0593 16.4667 20.0977C16.3517 20.2185 16.2702 20.3793 16.2333 20.5581Z" fill="#D2654B"/>
    <path d="M23.4688 23.778C24.5435 23.623 28.1461 22.7661 28.5338 22.3969C28.635 22.3296 28.7236 22.2378 28.7942 22.1273C28.8648 22.0167 28.9158 21.8897 28.9441 21.7543C28.9599 21.6799 28.9662 21.603 28.963 21.5264C28.9092 21.7432 28.8046 21.9364 28.6618 22.0824C28.6281 22.1131 28.5929 22.1413 28.5564 22.1668C28.2667 22.35 27.9567 22.482 27.636 22.5587C26.5932 22.8915 24.9369 23.2857 23.9657 23.4703C23.8231 23.6202 23.6526 23.7258 23.4688 23.778Z" fill="#D2654B"/>
    <path d="M26.655 21.0888C26.5364 21.7064 26.9505 22.3536 27.5867 22.5337L27.6413 22.5473C27.962 22.4706 28.272 22.3386 28.5617 22.1553C28.5982 22.1299 28.6334 22.1017 28.6671 22.071C28.7892 21.9724 28.8842 21.832 28.94 21.6677L28.9683 21.515C28.9528 21.2788 28.8839 21.0523 28.769 20.8605C28.6541 20.6687 28.4977 20.519 28.317 20.4279C28.2223 20.3715 28.1225 20.3287 28.0196 20.3003C27.9375 20.276 27.8537 20.2615 27.7693 20.257C27.6979 20.249 27.6261 20.249 27.5547 20.257C27.3517 20.264 27.1556 20.3481 26.9942 20.4974C26.8327 20.6466 26.7141 20.8535 26.655 21.0888Z" fill="#D2654B"/>
    <path d="M22.1625 21.9458C22.0609 22.3583 22.3263 23.0602 22.6858 23.4727C22.8325 23.6655 23.0345 23.7829 23.2504 23.8009C23.2975 23.8009 23.3671 23.8009 23.4518 23.7781H23.4631C23.65 23.73 23.8229 23.6222 23.9638 23.4659C24.935 23.2813 26.5989 22.887 27.6341 22.5543C27.9548 22.4776 28.2648 22.3456 28.5546 22.1623C28.5911 22.1369 28.6263 22.1087 28.66 22.078C28.6677 22.0215 28.6715 21.9643 28.6712 21.9071C28.6712 21.2827 28.2948 20.3483 27.7621 20.264C27.7203 20.2571 27.6779 20.2571 27.636 20.264C27.6066 20.2611 27.577 20.2611 27.5476 20.264C27.397 20.2822 27.1711 20.3209 26.9114 20.3734C25.9383 20.5716 24.3515 20.9659 23.2937 21.3009C23.0434 21.3807 22.8232 21.4559 22.6481 21.5288C22.5289 21.5759 22.4329 21.6192 22.3602 21.6587C22.3326 21.6759 22.3061 21.6957 22.2811 21.7179C22.2207 21.7747 22.1787 21.8554 22.1625 21.9458Z" fill="#D2654B"/>
    <path d="M21.9157 22.3242C21.7971 22.9441 22.2131 23.5868 22.8455 23.7668C23.0468 23.8225 23.2559 23.8225 23.4572 23.7668H23.4685C23.6554 23.7187 23.8283 23.6109 23.9692 23.4546C24.0841 23.3297 24.167 23.1676 24.2082 22.9874C24.222 22.9126 24.229 22.8362 24.2289 22.7595C24.2289 22.2148 23.8374 21.6952 23.2878 21.538C23.0818 21.4789 22.8671 21.4789 22.6611 21.538C22.5607 21.5655 22.4638 21.6092 22.3731 21.6679C22.3455 21.6851 22.3191 21.705 22.294 21.7272C22.111 21.8629 21.9797 22.0809 21.9289 22.3334L21.9157 22.3242Z" fill="#D2654B"/>
    <path d="M21.9501 22.3832C21.8409 22.9598 22.2268 23.5591 22.8178 23.7255C23.0036 23.7771 23.1967 23.7771 23.3825 23.7255H23.3938C23.5683 23.6845 23.7303 23.5868 23.8624 23.4429C23.9389 23.3596 23.9998 23.2576 24.0414 23.1437C24.0829 23.0298 24.104 22.9065 24.1034 22.782C24.1034 22.2738 23.7401 21.7907 23.2187 21.6425C23.0268 21.5879 22.8271 21.5879 22.6352 21.6425C22.5422 21.6687 22.4524 21.7093 22.368 21.7633L22.2927 21.818C22.254 21.8485 22.2175 21.8828 22.1835 21.9206C22.0682 22.042 21.9867 22.2036 21.9501 22.3832Z" fill="#D2654B"/>
    <path d="M25.833 27.7071C26.8663 27.3174 30.2863 25.704 30.612 25.2664C30.7019 25.1789 30.7759 25.0697 30.829 24.9457C30.8821 24.8217 30.9134 24.6857 30.9207 24.5463C30.9262 24.4699 30.9218 24.393 30.9075 24.3184C30.8846 24.5422 30.8102 24.7538 30.6929 24.9291C30.664 24.9671 30.6332 25.0029 30.6007 25.0362C30.3423 25.2777 30.0571 25.4741 29.7537 25.6196C28.7749 26.1711 27.2033 26.9141 26.2753 27.3061C26.1566 27.4808 26.0049 27.6184 25.833 27.7071Z" fill="#D2654B"/>
    <path d="M28.5713 24.3753C28.545 25.0089 29.0475 25.5558 29.7006 25.5968H29.7571C30.0606 25.4512 30.3457 25.2549 30.6041 25.0134C30.6367 24.9801 30.6675 24.9443 30.6963 24.9063C30.8014 24.7829 30.8736 24.6241 30.9034 24.4505V24.2933C30.853 24.0645 30.7518 23.8569 30.6108 23.693C30.4697 23.529 30.2942 23.4151 30.1034 23.3635C30.0018 23.3269 29.8969 23.3055 29.791 23.2996C29.7067 23.2949 29.6223 23.2995 29.5388 23.3133C29.4675 23.3228 29.3969 23.3395 29.328 23.3635C29.1306 23.4158 28.9516 23.5415 28.816 23.7229C28.6803 23.9042 28.5948 24.1323 28.5713 24.3753Z" fill="#FF835D"/>
    <path d="M24.2761 26.1777C24.2385 26.6061 24.6018 27.2396 25.0158 27.5678C25.1894 27.7295 25.4081 27.803 25.6257 27.7729C25.6746 27.7729 25.7405 27.7387 25.8139 27.7091H25.8271C26.0034 27.621 26.1573 27.4778 26.2732 27.2943C27.2011 26.9024 28.7728 26.1549 29.7515 25.6079C30.055 25.4623 30.3401 25.266 30.5985 25.0245C30.6311 24.9912 30.6619 24.9554 30.6907 24.9174C30.6893 24.8608 30.6842 24.8044 30.6757 24.7488C30.5816 24.1334 30.0771 23.2925 29.5463 23.3267C29.5038 23.325 29.4613 23.3311 29.4202 23.3449C29.3916 23.3537 29.3633 23.3644 29.3355 23.3768C29.1887 23.427 28.9798 23.5113 28.7238 23.6207C27.7959 24.0263 26.2939 24.7601 25.3019 25.3139C25.0685 25.4461 24.8634 25.5669 24.7015 25.674C24.5923 25.7469 24.502 25.8107 24.4361 25.8632L24.3665 25.9384C24.3162 26.0045 24.2845 26.0883 24.2761 26.1777Z" fill="#FF835D"/>
    <path d="M24.0897 26.6106C24.0653 27.2464 24.5678 27.7888 25.2191 27.8298C25.4248 27.8449 25.6306 27.8036 25.8214 27.7091H25.8345C26.0109 27.6209 26.1648 27.4778 26.2806 27.2943C26.377 27.1399 26.4333 26.9543 26.4425 26.761C26.4459 26.6848 26.4421 26.6083 26.4312 26.5331C26.3484 25.9976 25.8891 25.5691 25.3169 25.5327C25.1054 25.5174 24.8939 25.5627 24.6996 25.6648C24.6045 25.7133 24.5153 25.7769 24.4342 25.854L24.3645 25.9292C24.3283 25.9707 24.2949 26.0156 24.2648 26.0637C24.1618 26.2201 24.1007 26.411 24.0897 26.6106Z" fill="#D2654B"/>
    <path d="M24.1308 26.6633C24.1063 27.2559 24.575 27.7618 25.1792 27.8028C25.372 27.8154 25.5648 27.7765 25.7439 27.6888H25.7552C25.9199 27.608 26.0635 27.475 26.1711 27.3037C26.2605 27.1594 26.3134 26.9868 26.3236 26.8069C26.3256 26.7375 26.3218 26.668 26.3123 26.5995C26.2332 26.1004 25.8079 25.7016 25.2733 25.6697C25.0762 25.6556 24.8791 25.6969 24.6973 25.7905C24.6094 25.8349 24.5271 25.894 24.4527 25.966C24.4301 25.9888 24.4075 26.0115 24.3868 26.0366C24.3531 26.0743 24.3222 26.1154 24.2946 26.1597C24.1991 26.3036 24.142 26.4792 24.1308 26.6633Z" fill="#FF835D"/>
    <path d="M27.5771 24.1906C28.65 24.0356 32.2526 23.1787 32.6403 22.8095C32.7413 22.7422 32.8296 22.6504 32.8999 22.5398C32.9702 22.4292 33.0209 22.3022 33.0488 22.1669C33.0654 22.0927 33.0724 22.0158 33.0695 21.939C33.0164 22.1514 32.9154 22.3416 32.7777 22.4882C32.7444 22.5184 32.7099 22.5465 32.6742 22.5725C32.385 22.7555 32.0757 22.8875 31.7557 22.9645C30.7111 23.2972 29.0547 23.6915 28.0854 23.8761C27.9405 24.0309 27.7657 24.1391 27.5771 24.1906Z" fill="#D2654B"/>
    <path d="M30.7624 21.5015C30.6438 22.1191 31.0598 22.7664 31.6941 22.9464L31.7505 22.9601C32.0706 22.8831 32.3799 22.7511 32.6691 22.5681C32.7047 22.5421 32.7393 22.514 32.7726 22.4838C32.8952 22.384 32.9903 22.2418 33.0455 22.0758L33.0756 21.9231C33.0596 21.6872 32.9904 21.461 32.8755 21.2694C32.7607 21.0777 32.6047 20.9278 32.4244 20.8361C32.329 20.7797 32.2286 20.7369 32.1251 20.7085C32.0437 20.6842 31.9604 20.6697 31.8766 20.6652C31.8046 20.6572 31.7322 20.6572 31.6602 20.6652C31.4571 20.6733 31.2612 20.7584 31.1001 20.9085C30.9391 21.0585 30.8209 21.2659 30.7624 21.5015Z" fill="#FF835D"/>
    <path d="M26.2698 22.3584C26.1682 22.7709 26.4355 23.4728 26.7931 23.8853C26.9398 24.078 27.1418 24.1955 27.3578 24.2135C27.4067 24.2135 27.4745 24.2135 27.5592 24.1907H27.5723C27.7591 24.142 27.9319 24.0343 28.073 23.8785C29.0424 23.6939 30.6987 23.2996 31.7433 22.9669C32.0634 22.8899 32.3727 22.7579 32.6619 22.5749C32.6975 22.5489 32.7321 22.5208 32.7654 22.4906C32.7731 22.4341 32.7769 22.3769 32.7767 22.3197C32.7767 21.6952 32.4002 20.7609 31.8695 20.6765C31.8276 20.6697 31.7852 20.6697 31.7433 20.6765C31.713 20.6774 31.6828 20.6812 31.653 20.6879C31.5024 20.7062 31.2766 20.7449 31.0168 20.7973C30.0437 20.9956 28.457 21.3899 27.3992 21.7249C27.1507 21.8046 26.9305 21.8798 26.7555 21.9528C26.6369 22.0006 26.5409 22.0439 26.4694 22.0827C26.4411 22.1009 26.4148 22.1214 26.3884 22.1419C26.3305 22.1965 26.2888 22.2725 26.2698 22.3584Z" fill="#FF835D"/>
    <path d="M26.0571 22.7961C25.9461 23.3727 26.3319 23.9721 26.923 24.1384C27.1087 24.1907 27.3019 24.1907 27.4876 24.1384H27.5083C27.6822 24.0938 27.8429 23.993 27.9732 23.8467C28.0488 23.7624 28.1093 23.6603 28.1511 23.5467C28.1928 23.433 28.215 23.3102 28.216 23.1858C28.216 22.6799 27.8509 22.1945 27.3295 22.0464C27.1376 21.9917 26.9379 21.9917 26.746 22.0464C26.6529 22.071 26.563 22.1109 26.4787 22.1649L26.4035 22.2196C26.3648 22.25 26.3283 22.2843 26.2943 22.3221C26.1765 22.4465 26.0936 22.6121 26.0571 22.7961Z" fill="#FF835D"/>
    <path d="M31.6484 26.1938C32.6818 25.8109 36.1018 24.1906 36.4274 23.7439C36.5174 23.6565 36.5913 23.5473 36.6444 23.4233C36.6976 23.2993 36.7288 23.1632 36.7361 23.0238C36.7416 22.9475 36.7372 22.8705 36.7229 22.7959C36.7005 23.0199 36.6261 23.2317 36.5083 23.4067C36.4782 23.4431 36.45 23.4796 36.4161 23.5138C36.158 23.7557 35.8728 23.9522 35.5691 24.0972C34.5904 24.6487 33.0187 25.3916 32.0908 25.7836C31.9734 25.9622 31.8215 26.1031 31.6484 26.1938Z" fill="#D2654B"/>
    <path d="M34.3916 22.8622C34.3653 23.4958 34.8697 24.0427 35.5209 24.0837H35.5774C35.8811 23.9387 36.1663 23.7423 36.4244 23.5003C36.4583 23.4661 36.4865 23.4297 36.5166 23.3932C36.6215 23.2695 36.6935 23.1108 36.7237 22.9374V22.7824C36.6737 22.5535 36.5726 22.3456 36.4315 22.1816C36.2904 22.0176 36.1147 21.9038 35.9237 21.8526C35.8221 21.8161 35.7172 21.7947 35.6113 21.7888C35.5271 21.7845 35.4428 21.7883 35.3591 21.8002C35.2877 21.8104 35.2172 21.828 35.1483 21.8526C34.9512 21.9049 34.7724 22.0302 34.6368 22.2111C34.5012 22.392 34.4155 22.6196 34.3916 22.8622Z" fill="#FF835D"/>
    <path d="M30.0955 24.6717C30.0578 25.1001 30.4211 25.7337 30.8352 26.0618C31.0088 26.2213 31.2267 26.2932 31.4431 26.2624C31.4921 26.2624 31.5579 26.2282 31.6314 26.1986H31.6445C31.8209 26.1104 31.9748 25.9673 32.0906 25.7838C33.0186 25.3918 34.5902 24.6443 35.569 24.0974C35.8727 23.9524 36.1578 23.7559 36.416 23.514C36.4498 23.4798 36.4781 23.4433 36.5082 23.4069C36.5067 23.3503 36.5017 23.2939 36.4931 23.2382C36.399 22.6229 35.8946 21.782 35.3638 21.8139C35.3218 21.814 35.28 21.8209 35.2396 21.8344C35.2102 21.8428 35.1813 21.8535 35.153 21.8663C35.0062 21.9164 34.7973 22.0007 34.5413 22.1101C33.6133 22.5158 32.1113 23.2496 31.1194 23.8034C30.8841 23.9333 30.679 24.0564 30.5171 24.1612C30.4079 24.2341 30.3176 24.2979 30.2536 24.3503L30.182 24.4255C30.132 24.4941 30.1016 24.5805 30.0955 24.6717Z" fill="#FF835D"/>
    <path d="M29.91 25.0978C29.8856 25.7337 30.3881 26.276 31.0394 26.3171C31.2451 26.3322 31.451 26.2909 31.6417 26.1963H31.6549C31.8312 26.1081 31.9851 25.965 32.1009 25.7815C32.1978 25.6274 32.2542 25.4416 32.2628 25.2482C32.2672 25.172 32.2634 25.0954 32.2515 25.0203C32.1687 24.4848 31.7094 24.0563 31.1372 24.0199C30.9259 24.005 30.7147 24.0495 30.5199 24.1498C30.4254 24.1983 30.3368 24.2619 30.2564 24.3389L30.1848 24.4141C30.1487 24.4557 30.1153 24.5007 30.0851 24.5486C29.9814 24.7055 29.9203 24.8973 29.91 25.0978Z" fill="#D2654B"/>
    <path d="M29.9549 25.1476C29.9323 25.7401 30.3991 26.2461 31.0052 26.2871C31.198 26.3004 31.3909 26.2614 31.5698 26.1731H31.5811C31.7458 26.0923 31.8895 25.9593 31.9971 25.788C32.0874 25.6443 32.1405 25.4714 32.1496 25.2912C32.1516 25.2218 32.1478 25.1523 32.1383 25.0838C32.0611 24.5847 31.6338 24.1859 31.0993 24.154C30.9059 24.1416 30.7128 24.1829 30.5346 24.2748C30.4461 24.3192 30.3631 24.3783 30.288 24.4503L30.2222 24.5209C30.1885 24.5585 30.1576 24.5997 30.1299 24.644C30.0304 24.7862 29.9693 24.962 29.9549 25.1476Z" fill="#FF835D"/>
    <path d="M22.8799 23.9308C21.807 23.7758 18.2044 22.9189 17.8167 22.5498C17.7156 22.4824 17.6269 22.3906 17.5563 22.2801C17.4858 22.1695 17.4347 22.0426 17.4064 21.9071C17.3906 21.8327 17.3843 21.7559 17.3876 21.6792C17.4413 21.896 17.5459 22.0892 17.6887 22.2353C17.7224 22.266 17.7576 22.2941 17.7941 22.3196C18.0839 22.5029 18.3938 22.6349 18.7145 22.7116C19.7573 23.0443 21.4136 23.4385 22.3849 23.6231C22.5269 23.7726 22.6968 23.8782 22.8799 23.9308Z" fill="#D2654B"/>
    <path d="M19.6947 21.2416C19.8133 21.8592 19.3992 22.5064 18.7536 22.6865L18.699 22.7002C18.3783 22.6235 18.0684 22.4915 17.7786 22.3082C17.7421 22.2827 17.7069 22.2546 17.6732 22.2239C17.5511 22.1253 17.4561 21.9848 17.4003 21.8205L17.3721 21.6678C17.3875 21.4316 17.4565 21.2051 17.5714 21.0133C17.6863 20.8215 17.8427 20.6718 18.0233 20.5807C18.1179 20.5239 18.2177 20.4811 18.3207 20.4531C18.4028 20.4288 18.4866 20.4143 18.571 20.4098C18.6424 20.4018 18.7142 20.4018 18.7856 20.4098C18.9903 20.4145 19.1885 20.4975 19.3518 20.6469C19.5151 20.7963 19.6351 21.0045 19.6947 21.2416Z" fill="#FF835D"/>
    <path d="M24.1874 22.0986C24.2891 22.5111 24.0218 23.213 23.6642 23.6255C23.5175 23.8183 23.3155 23.9357 23.0995 23.9537C23.0506 23.9537 22.9828 23.9537 22.8981 23.9309H22.8849C22.6987 23.8823 22.5266 23.7745 22.3862 23.6187C21.4149 23.4341 19.751 23.0398 18.7158 22.7071C18.3951 22.6304 18.0852 22.4984 17.7954 22.3151C17.7589 22.2897 17.7237 22.2615 17.69 22.2308C17.6823 22.1743 17.6785 22.1171 17.6787 22.0599C17.6787 21.4355 18.0552 20.5011 18.5878 20.4168C18.629 20.4099 18.6708 20.4099 18.7121 20.4168C18.7424 20.4175 18.7726 20.4213 18.8024 20.4282C18.953 20.4464 19.1789 20.4851 19.4386 20.5376C20.4117 20.7358 21.9984 21.1301 23.0562 21.4651C23.3066 21.5448 23.5268 21.6201 23.7018 21.693C23.8198 21.7416 23.9158 21.7849 23.9898 21.8229C24.0174 21.8401 24.0438 21.8599 24.0689 21.8821C24.1275 21.936 24.1693 22.0123 24.1874 22.0986Z" fill="#FF835D"/>
    <path d="M24.4344 22.4769C24.553 23.0968 24.1371 23.7394 23.5046 23.9195C23.3033 23.9752 23.0942 23.9752 22.8929 23.9195H22.8797C22.6935 23.8709 22.5214 23.7631 22.3809 23.6073C22.263 23.4762 22.1798 23.3057 22.1419 23.1173C22.1271 23.0427 22.1201 22.9661 22.1212 22.8894C22.1212 22.3447 22.5127 21.8251 23.0717 21.6679C23.2778 21.6088 23.4924 21.6088 23.6985 21.6679C23.7989 21.6954 23.8957 21.7391 23.9865 21.7978C24.0141 21.815 24.0405 21.8348 24.0655 21.857C24.2486 21.9928 24.3798 22.2107 24.4307 22.4632L24.4344 22.4769Z" fill="#D2654B"/>
    <path d="M24.4005 22.5315C24.5115 23.108 24.1257 23.7074 23.5347 23.8738C23.3489 23.9254 23.1558 23.9254 22.97 23.8738H22.9568C22.7829 23.8291 22.6223 23.7283 22.4919 23.5821C22.4155 23.4987 22.3545 23.3968 22.313 23.2829C22.2715 23.1689 22.2503 23.0457 22.251 22.9212C22.251 22.413 22.6143 21.9298 23.1356 21.7817C23.3275 21.7271 23.5272 21.7271 23.7191 21.7817C23.8122 21.8078 23.902 21.8484 23.9864 21.9025L24.0617 21.9572C24.1003 21.9877 24.1369 22.022 24.1709 22.0597C24.2861 22.1842 24.3664 22.3491 24.4005 22.5315Z" fill="#FF835D"/>
    <path d="M24.907 20.2938C23.8341 20.1411 20.2297 19.2819 19.8438 18.9127C19.7429 18.8458 19.6546 18.7544 19.5843 18.6442C19.514 18.534 19.4633 18.4074 19.4354 18.2723C19.4188 18.1981 19.4119 18.1212 19.4147 18.0444C19.4691 18.2614 19.5744 18.4546 19.7177 18.6005C19.7506 18.6322 19.7851 18.6611 19.8212 18.6871C20.1086 18.8658 20.4152 18.9947 20.7322 19.07C21.7769 19.405 23.4332 19.7969 24.4026 19.9815C24.5466 20.1349 24.72 20.2422 24.907 20.2938Z" fill="#D2654B"/>
    <path d="M21.7217 17.6066C21.8402 18.222 21.4243 18.8692 20.7806 19.0492C20.7621 19.056 20.7432 19.0605 20.7241 19.0629C20.4042 18.9863 20.095 18.8551 19.8056 18.6732C19.7695 18.6472 19.7349 18.6183 19.702 18.5866C19.5855 18.4915 19.494 18.3578 19.4385 18.2015L19.4141 18.0351C19.4304 17.7995 19.4998 17.5739 19.6146 17.3826C19.7294 17.1914 19.8853 17.0419 20.0653 16.9503C20.1576 16.894 20.2548 16.8504 20.3552 16.8204C20.4368 16.7972 20.5199 16.7828 20.6036 16.7771C20.6757 16.7703 20.748 16.7703 20.8201 16.7771C21.0231 16.7839 21.2193 16.8675 21.3811 17.0163C21.5428 17.1651 21.6619 17.3716 21.7217 17.6066Z" fill="#FF835D"/>
    <path d="M26.2149 18.4611C26.3146 18.8759 26.0492 19.5755 25.6916 19.988C25.5449 20.1807 25.3429 20.2982 25.1269 20.3162C25.078 20.3162 25.0102 20.3162 24.9255 20.2957H24.9124C24.7256 20.247 24.5528 20.1393 24.4117 19.9834C23.4423 19.7988 21.7766 19.4069 20.7414 19.0719C20.4215 18.9953 20.1122 18.864 19.8228 18.6822C19.7867 18.6562 19.7521 18.6272 19.7193 18.5956C19.7117 18.5398 19.7079 18.4834 19.708 18.4269C19.708 17.8002 20.0845 16.8658 20.6152 16.7815C20.6571 16.7746 20.6995 16.7746 20.7414 16.7815C20.7677 16.7815 20.7978 16.7815 20.8317 16.7815C20.9823 16.7998 21.2081 16.8385 21.4679 16.8909C22.441 17.0892 24.0277 17.4834 25.0855 17.8207C25.334 17.8982 25.5542 17.9734 25.7292 18.0486C25.8478 18.0988 25.9438 18.1398 26.0153 18.1785C26.0436 18.1968 26.0699 18.2173 26.0963 18.2378C26.1549 18.2945 26.1966 18.3729 26.2149 18.4611Z" fill="#FF835D"/>
    <path d="M26.4598 18.842C26.5765 19.4619 26.1624 20.1022 25.53 20.2823C25.3294 20.3417 25.1203 20.3456 24.9183 20.2937H24.9051C24.7183 20.245 24.5456 20.1373 24.4044 19.9815C24.2868 19.8513 24.2042 19.6814 24.1673 19.4938C24.1527 19.4191 24.1458 19.3426 24.1465 19.2659C24.1465 18.7212 24.538 18.2016 25.0877 18.0421C25.2938 17.984 25.5083 17.984 25.7144 18.0421C25.8143 18.0692 25.9106 18.1129 26.0005 18.172C26.0288 18.1902 26.0551 18.2107 26.0815 18.2312C26.1237 18.2633 26.1633 18.2999 26.2001 18.3406C26.3273 18.4712 26.4181 18.6464 26.4598 18.842Z" fill="#D2654B"/>
    <path d="M26.4278 18.8987C26.5389 19.4775 26.153 20.0746 25.562 20.2433C25.3761 20.2934 25.1833 20.2934 24.9973 20.2433H24.986C24.8126 20.1985 24.6521 20.0986 24.5211 19.9538C24.4115 19.8318 24.3342 19.6732 24.299 19.498C24.2856 19.4301 24.2786 19.3605 24.2783 19.2907C24.2783 18.7847 24.6435 18.2993 25.163 18.1512C25.3556 18.098 25.5557 18.098 25.7483 18.1512C25.8418 18.1756 25.9318 18.2163 26.0156 18.272C26.0418 18.288 26.0669 18.3063 26.0909 18.3267C26.126 18.3581 26.1593 18.3924 26.1907 18.4292C26.3073 18.5529 26.39 18.7166 26.4278 18.8987Z" fill="#FF835D"/>
    <path d="M17.9611 25.852C16.9278 25.4691 13.5078 23.8488 13.1822 23.4021C13.0927 23.3143 13.0193 23.2049 12.9665 23.081C12.9137 22.957 12.8826 22.8212 12.8754 22.682C12.8698 22.6057 12.8743 22.5288 12.8885 22.4541C12.9107 22.6782 12.9851 22.8901 13.1031 23.0649C13.132 23.1029 13.1628 23.1386 13.1953 23.172C13.453 23.4148 13.7383 23.6113 14.0423 23.7554C15.0155 24.3023 16.5909 25.0384 17.515 25.4372C17.633 25.6181 17.7863 25.7607 17.9611 25.852Z" fill="#D2654B"/>
    <path d="M15.2227 22.5313C15.2491 23.1649 14.7446 23.7118 14.0934 23.7529H14.0369C13.7328 23.6088 13.4475 23.4123 13.1899 23.1695C13.1573 23.1361 13.1265 23.1003 13.0977 23.0623C12.9926 22.9389 12.9204 22.7801 12.8906 22.6066V22.4493C12.941 22.2206 13.0422 22.0129 13.1832 21.849C13.3243 21.6851 13.4998 21.5711 13.6906 21.5195C13.7923 21.4837 13.8972 21.4631 14.003 21.458C14.0869 21.4476 14.1714 21.4476 14.2552 21.458C14.3266 21.4674 14.3971 21.4842 14.466 21.5081C14.6648 21.5612 14.8448 21.6885 14.9806 21.8721C15.1163 22.0557 15.201 22.2863 15.2227 22.5313Z" fill="#FF835D"/>
    <path d="M19.5182 24.3297C19.5558 24.7604 19.1926 25.3917 18.7785 25.7198C18.6049 25.8793 18.387 25.9512 18.1705 25.9204C18.1216 25.9204 18.0557 25.8862 17.9823 25.8566H17.9691C17.7928 25.7684 17.6389 25.6253 17.523 25.4418C16.5951 25.0498 15.0235 24.3023 14.0447 23.7554C13.7406 23.6113 13.4553 23.4148 13.1977 23.172C13.1651 23.1386 13.1343 23.1029 13.1055 23.0649C13.107 23.0083 13.112 22.9519 13.1205 22.8962C13.2146 22.2809 13.7191 21.44 14.2499 21.4742C14.2918 21.4723 14.3337 21.4785 14.3741 21.4924C14.4035 21.5008 14.4324 21.5115 14.4607 21.5243C14.6075 21.5744 14.8164 21.6587 15.0724 21.7681C16.0003 22.1738 17.5023 22.9076 18.4943 23.4614C18.7295 23.5936 18.9347 23.7144 19.0966 23.8215C19.2058 23.8944 19.2961 23.9559 19.3601 24.0083L19.4316 24.0835C19.4817 24.1521 19.512 24.2385 19.5182 24.3297Z" fill="#FF835D"/>
    <path d="M19.7041 24.7556C19.7286 25.3914 19.226 25.9338 18.5748 25.9748C18.3691 25.99 18.1632 25.9487 17.9725 25.854H17.9593C17.783 25.7659 17.6291 25.6228 17.5132 25.4393C17.416 25.2854 17.3596 25.0995 17.3513 24.906C17.347 24.8298 17.3508 24.7532 17.3626 24.6781C17.4455 24.1425 17.9047 23.7141 18.4769 23.6799C18.6883 23.664 18.8998 23.7085 19.0943 23.8098C19.189 23.8566 19.2777 23.9196 19.3578 23.9967L19.4293 24.0719C19.465 24.1139 19.4984 24.1589 19.5291 24.2064C19.6324 24.3635 19.6935 24.5551 19.7041 24.7556Z" fill="#D2654B"/>
    <path d="M19.663 24.8107C19.6855 25.4009 19.2188 25.9069 18.6127 25.9502C18.4198 25.9634 18.2269 25.9245 18.048 25.8362H18.0367C17.872 25.7554 17.7283 25.6223 17.6207 25.4511C17.5304 25.3074 17.4774 25.1345 17.4683 24.9543C17.4663 24.8849 17.4701 24.8154 17.4796 24.7469C17.5568 24.2501 17.984 23.8513 18.5186 23.8171C18.7119 23.8047 18.9051 23.846 19.0832 23.9379C19.1717 23.9823 19.2547 24.0413 19.3298 24.1133L19.3957 24.184C19.4294 24.2216 19.4602 24.2628 19.4879 24.3071C19.5874 24.4493 19.6485 24.6251 19.663 24.8107Z" fill="#FF835D"/>
    <path d="M25.5205 21.4238C26.5934 21.2688 30.1978 20.4119 30.5837 20.0405C30.6846 19.9731 30.773 19.8813 30.8433 19.7707C30.9135 19.6601 30.9642 19.5332 30.9921 19.3978C31.0088 19.3236 31.0157 19.2467 31.0128 19.1699C30.9574 19.3857 30.8531 19.5784 30.7117 19.726C30.678 19.7567 30.6428 19.7849 30.6063 19.8103C30.3162 19.9925 30.0063 20.1245 29.6859 20.2023C28.6431 20.535 26.9868 20.927 26.0155 21.1139C25.8733 21.2635 25.7036 21.3697 25.5205 21.4238Z" fill="#D2654B"/>
    <path d="M28.7053 18.7348C28.5849 19.3524 29.0008 19.9996 29.6352 20.1797L29.6916 20.1933C30.0121 20.1155 30.3219 19.9836 30.612 19.8013C30.6486 19.7759 30.6838 19.7477 30.7174 19.717C30.8388 19.6181 30.9332 19.4777 30.9885 19.3137L31.0186 19.161C31.0027 18.9249 30.9336 18.6987 30.8188 18.507C30.7039 18.3152 30.5477 18.1654 30.3673 18.0739C30.2727 18.0167 30.1729 17.9732 30.0699 17.944C29.9876 17.9217 29.9039 17.908 29.8196 17.903C29.7482 17.895 29.6764 17.895 29.605 17.903C29.4021 17.9104 29.2061 17.9946 29.0447 18.1438C28.8834 18.293 28.7647 18.4997 28.7053 18.7348Z" fill="#FF835D"/>
    <path d="M24.2126 19.5895C24.1128 20.0043 24.3782 20.7039 24.7359 21.1187C24.8828 21.311 25.0847 21.4284 25.3005 21.4469C25.3495 21.4469 25.4172 21.4469 25.5038 21.4241H25.5151C25.7016 21.3745 25.8742 21.2669 26.0158 21.1119C26.987 20.925 28.6509 20.533 29.6861 20.2003C30.0066 20.1225 30.3164 19.9905 30.6065 19.8083C30.6431 19.7829 30.6783 19.7547 30.7119 19.724C30.7187 19.6674 30.7225 19.6103 30.7232 19.5531C30.7232 18.9264 30.3468 17.992 29.8141 17.9099C29.7723 17.9031 29.7298 17.9031 29.688 17.9099L29.5995 17.9236C29.4489 17.9396 29.2231 17.9783 28.9633 18.033C27.9902 18.2313 26.4035 18.6255 25.3457 18.9605C25.0954 19.0403 24.8751 19.1155 24.7001 19.1884C24.5815 19.2363 24.4836 19.2796 24.4121 19.3161C24.3848 19.3339 24.3585 19.3537 24.3331 19.3753C24.2755 19.4298 24.2334 19.5047 24.2126 19.5895Z" fill="#FF835D"/>
    <path d="M23.9675 19.9701C23.8489 20.59 24.263 21.2326 24.8973 21.4127C25.0986 21.4684 25.3077 21.4684 25.5091 21.4127H25.5204C25.7068 21.3631 25.8794 21.2555 26.021 21.1004C26.1386 20.969 26.2217 20.7986 26.2601 20.6105C26.2739 20.5357 26.2808 20.4592 26.2808 20.3826C26.2808 19.8379 25.8893 19.3183 25.3397 19.1588C25.1335 19.1007 24.9191 19.1007 24.7129 19.1588C24.6125 19.1851 24.5156 19.228 24.4249 19.2864C24.3976 19.3043 24.3712 19.3241 24.3458 19.3457C24.3037 19.3777 24.264 19.4143 24.2273 19.455C24.0981 19.5894 24.0072 19.7696 23.9675 19.9701Z" fill="#D2654B"/>
    <path d="M23.9989 20.0246C23.8898 20.6011 24.2756 21.1982 24.8648 21.3669C25.0506 21.4181 25.2436 21.4181 25.4294 21.3669H25.4407C25.6146 21.3203 25.7755 21.2198 25.9075 21.0751C26.0177 20.9537 26.0951 20.7949 26.1296 20.6194C26.1423 20.5521 26.1486 20.4833 26.1484 20.4143C26.1484 19.906 25.7833 19.4229 25.2638 19.2748C25.072 19.219 24.8721 19.219 24.6803 19.2748C24.5865 19.3002 24.496 19.3409 24.4111 19.3956L24.3377 19.4503C24.2984 19.4806 24.2612 19.5149 24.2267 19.5528C24.1127 19.6782 24.0332 19.8428 23.9989 20.0246Z" fill="#FF835D"/>
    <path d="M23.4502 24.0721C24.3443 23.6505 27.2824 21.9435 27.544 21.5265C27.6175 21.4431 27.6759 21.342 27.7154 21.2298C27.755 21.1176 27.7748 20.9967 27.7737 20.8747C27.7739 20.8081 27.765 20.7418 27.7473 20.6787C27.7412 20.8761 27.6876 21.067 27.593 21.2279C27.5705 21.2627 27.546 21.2955 27.5196 21.3259C27.304 21.559 27.0626 21.7546 26.8024 21.9071C25.9686 22.4722 24.6172 23.2562 23.8172 23.6778C23.723 23.8432 23.5971 23.9785 23.4502 24.0721Z" fill="#D2654B"/>
    <path d="M25.6787 20.9477C25.6938 21.4969 26.1737 21.9254 26.7553 21.9026H26.8062C27.0663 21.7501 27.3077 21.5545 27.5233 21.3214C27.5497 21.291 27.5742 21.2582 27.5967 21.2234C27.6829 21.1087 27.738 20.9647 27.7548 20.811V20.6742C27.6944 20.4788 27.5908 20.3073 27.4554 20.1783C27.32 20.0493 27.1579 19.9678 26.9869 19.9427C26.8947 19.9196 26.8005 19.9105 26.7064 19.9153C26.6312 19.9188 26.5563 19.9295 26.4824 19.9472C26.4186 19.9635 26.3557 19.9848 26.2942 20.011C26.1234 20.0692 25.972 20.1909 25.8615 20.359C25.7511 20.5272 25.6871 20.7331 25.6787 20.9477Z" fill="#FF835D"/>
    <path d="M21.9746 22.8963C21.9746 23.27 22.3285 23.7851 22.7162 24.0358C22.8819 24.1576 23.0794 24.1999 23.2696 24.1543C23.311 24.1376 23.3675 24.1125 23.439 24.0791H23.4503C23.6025 23.9896 23.7324 23.8527 23.8267 23.6825C24.6267 23.2609 25.9781 22.477 26.8119 21.9118C27.0721 21.7593 27.3134 21.5637 27.529 21.3307C27.5554 21.3002 27.58 21.2674 27.6025 21.2327C27.5984 21.1833 27.5908 21.1345 27.5799 21.0868C27.4594 20.5626 26.9587 19.8812 26.4844 19.9473C26.4472 19.9517 26.4105 19.9617 26.3752 19.977C26.3496 19.9865 26.3244 19.9979 26.3 20.0111C26.1738 20.0681 25.9932 20.1593 25.7729 20.2778C24.973 20.7108 23.6837 21.4765 22.8367 22.0462C22.6372 22.1807 22.4602 22.306 22.3247 22.4109C22.2325 22.4838 22.1572 22.5476 22.1026 22.5977C22.0819 22.6205 22.0631 22.6456 22.0443 22.6707C22.0005 22.7341 21.9759 22.8137 21.9746 22.8963Z" fill="#FF835D"/>
    <path d="M21.835 23.2812C21.8519 23.8327 22.3319 24.2565 22.9097 24.2338C23.0937 24.2293 23.2744 24.1748 23.4386 24.0742H23.4499C23.6022 23.9847 23.7321 23.8479 23.8264 23.6777C23.9029 23.5365 23.9416 23.3702 23.9374 23.2014C23.936 23.1366 23.9278 23.0723 23.9129 23.01C23.8075 22.5542 23.3746 22.226 22.8627 22.2465C22.6745 22.2519 22.4898 22.3087 22.3225 22.4129C22.2421 22.4634 22.1675 22.5262 22.1004 22.5998C22.0797 22.6225 22.0608 22.6476 22.042 22.6727C22.0124 22.7111 21.9854 22.7522 21.9611 22.7957C21.8785 22.9378 21.8345 23.1074 21.835 23.2812Z" fill="#D2654B"/>
    <path d="M21.8744 23.3222C21.8895 23.8372 22.3375 24.2338 22.8758 24.211C23.0472 24.2062 23.2156 24.1556 23.3689 24.0628C23.5094 23.9781 23.6289 23.85 23.7153 23.6914C23.7857 23.5599 23.8217 23.4059 23.8188 23.2493C23.8171 23.1891 23.8095 23.1295 23.7962 23.0715C23.6964 22.6476 23.2936 22.34 22.8174 22.3582C22.6417 22.3643 22.4693 22.418 22.313 22.5154C22.2374 22.5619 22.1672 22.6202 22.1041 22.6886C22.0856 22.7095 22.068 22.7316 22.0514 22.7547C22.0235 22.7908 21.9983 22.8296 21.9761 22.871C21.9052 23.0054 21.8697 23.1628 21.8744 23.3222Z" fill="#FF835D"/>
    <path d="M21.2852 19.7967C22.1792 19.3728 25.1174 17.6659 25.379 17.2511C25.453 17.1686 25.5117 17.0681 25.5513 16.9562C25.5909 16.8442 25.6104 16.7234 25.6086 16.6016C25.6089 16.5342 25.6 16.4672 25.5823 16.4033C25.5763 16.594 25.526 16.7788 25.4373 16.9366C25.4138 16.9716 25.3886 17.0051 25.362 17.0369C25.1467 17.2697 24.9053 17.4646 24.6449 17.6157C23.8111 18.1809 22.4597 18.9649 21.6597 19.3865C21.5649 19.5587 21.4362 19.6996 21.2852 19.7967Z" fill="#D2654B"/>
    <path d="M23.5137 16.6612C23.5287 17.2104 24.0106 17.6388 24.5903 17.616C24.6072 17.6185 24.6242 17.6185 24.6411 17.616C24.9015 17.4649 25.1429 17.2701 25.3583 17.0372C25.3848 17.0054 25.41 16.972 25.4335 16.9369C25.5191 16.8219 25.5737 16.678 25.5898 16.5244V16.3877C25.529 16.1917 25.4249 16.0197 25.2888 15.8907C25.1526 15.7616 24.9898 15.6805 24.8181 15.6562C24.6514 15.6172 24.4802 15.6172 24.3136 15.6562C24.2495 15.6701 24.1866 15.6906 24.1254 15.7177C23.9548 15.7779 23.8041 15.9013 23.6944 16.0705C23.5847 16.2397 23.5215 16.4463 23.5137 16.6612Z" fill="#FF835D"/>
    <path d="M19.8096 18.6093C19.8096 18.9853 20.1653 19.4981 20.5512 19.7488C20.7166 19.8715 20.9143 19.9139 21.1045 19.8673C21.1621 19.8468 21.2186 19.8224 21.2739 19.7944H21.2852C21.4376 19.704 21.5675 19.5664 21.6617 19.3956C22.4616 18.9739 23.8131 18.19 24.6469 17.6248C24.9072 17.4737 25.1487 17.2788 25.364 17.046C25.3906 17.0142 25.4157 16.9807 25.4393 16.9457C25.4344 16.8963 25.4263 16.8476 25.4148 16.7998C25.2944 16.2757 24.7937 15.5966 24.3194 15.6718C24.2823 15.6765 24.2458 15.6857 24.2102 15.6991L24.1368 15.7333C24.0088 15.7903 23.8281 15.8837 23.6079 15.9999C22.8098 16.4329 21.5186 17.1986 20.6716 17.7707C20.4721 17.9051 20.2952 18.0282 20.1597 18.1353C20.0674 18.2082 19.9921 18.2698 19.9376 18.3222L19.8792 18.3928C19.8372 18.4539 19.8128 18.5299 19.8096 18.6093Z" fill="#FF835D"/>
    <path d="M19.6699 18.997C19.6869 19.5485 20.1668 19.9746 20.7466 19.9518C20.9298 19.946 21.1097 19.8916 21.2736 19.7923H21.2849C21.4373 19.702 21.5671 19.5644 21.6613 19.3935C21.7376 19.2521 21.777 19.0861 21.7742 18.9172C21.7719 18.8533 21.7637 18.7898 21.7498 18.7281C21.6425 18.2723 21.2096 17.9418 20.6976 17.9623C20.5094 17.9687 20.3247 18.0263 20.1574 18.131C20.0763 18.18 20.0015 18.2429 19.9353 18.3178L19.877 18.3885C19.8474 18.4277 19.8203 18.4696 19.796 18.5138C19.7142 18.6555 19.6702 18.8241 19.6699 18.997Z" fill="#D2654B"/>
    <path d="M19.7093 19.0356C19.7263 19.5483 20.1724 19.9471 20.7126 19.9244C20.8832 19.9185 21.0508 19.868 21.2038 19.7762C21.3443 19.6915 21.4638 19.5634 21.5502 19.4048C21.6214 19.2729 21.6575 19.1178 21.6537 18.9604C21.6518 18.9003 21.6443 18.8406 21.6311 18.7826C21.5313 18.3587 21.1285 18.0533 20.6523 18.0716C20.477 18.076 20.3049 18.1299 20.1498 18.2288C20.0743 18.2753 20.0046 18.3344 19.9427 18.4043C19.9232 18.4246 19.9049 18.4467 19.8881 18.4704C19.8604 18.5065 19.8353 18.5454 19.8129 18.5866C19.7411 18.7199 19.705 18.8766 19.7093 19.0356Z" fill="#FF835D"/>
    <path d="M26.3262 22.5796C25.2514 22.4246 21.6489 21.5677 21.263 21.1962C21.1621 21.1286 21.0736 21.0367 21.003 20.9262C20.9325 20.8157 20.8813 20.6889 20.8527 20.5536C20.8369 20.4792 20.8306 20.4024 20.8338 20.3257C20.8893 20.5415 20.9936 20.7342 21.135 20.8817C21.1687 20.9125 21.2039 20.9406 21.2404 20.9661C21.5302 21.1493 21.8401 21.2813 22.1608 21.358C23.2036 21.6908 24.8599 22.0827 25.8311 22.2696C25.9734 22.4192 26.1431 22.5255 26.3262 22.5796Z" fill="#D2654B"/>
    <path d="M23.1395 19.8904C23.26 20.508 22.844 21.1552 22.1984 21.3352L22.1438 21.3489C21.8231 21.2722 21.5131 21.1402 21.2234 20.9569C21.1869 20.9315 21.1516 20.9033 21.118 20.8726C21.0022 20.7747 20.9121 20.6387 20.8582 20.4806L20.8281 20.328C20.8435 20.0899 20.913 19.8617 21.0289 19.6686C21.1449 19.4756 21.3028 19.3251 21.485 19.2341C21.5794 19.1767 21.6793 19.1338 21.7824 19.1064C21.8645 19.0822 21.9483 19.0677 22.0327 19.0631C22.1041 19.0551 22.1759 19.0551 22.2473 19.0631C22.4486 19.0717 22.6426 19.156 22.8025 19.3043C22.9624 19.4525 23.0802 19.6574 23.1395 19.8904Z" fill="#FF835D"/>
    <path d="M27.6337 20.7472C27.7334 21.1597 27.468 21.8616 27.1104 22.2741C26.9635 22.4664 26.7616 22.5838 26.5457 22.6022C26.4968 22.6022 26.429 22.6022 26.3424 22.5794H26.3312C26.1445 22.5304 25.9718 22.4227 25.8305 22.2672C24.8593 22.0804 23.1954 21.6884 22.1602 21.3556C21.8394 21.279 21.5295 21.1469 21.2397 20.9637C21.2032 20.9382 21.168 20.9101 21.1343 20.8794C21.1275 20.8227 21.1238 20.7656 21.123 20.7084C21.123 20.084 21.4995 19.1474 22.0322 19.0653C22.0741 19.0596 22.1164 19.0596 22.1583 19.0653L22.2467 19.079C22.3973 19.0972 22.6232 19.1337 22.8829 19.1884C23.856 19.3866 25.4427 19.7809 26.5006 20.1159C26.7509 20.1957 26.9711 20.2709 27.1462 20.3438C27.2647 20.3917 27.3626 20.435 27.4341 20.4714C27.4624 20.4897 27.4868 20.5102 27.5132 20.5307C27.5712 20.5857 27.6133 20.6615 27.6337 20.7472Z" fill="#FF835D"/>
    <path d="M27.8845 21.1254C28.0031 21.7452 27.589 22.3879 26.9547 22.5679C26.7534 22.6237 26.5443 22.6237 26.343 22.5679H26.3317C26.1451 22.5189 25.9724 22.4112 25.831 22.2557C25.7134 22.1243 25.6303 21.9539 25.592 21.7657C25.5782 21.6909 25.5713 21.6145 25.5713 21.5378C25.5713 20.9932 25.9628 20.4736 26.5124 20.3141C26.7186 20.256 26.933 20.256 27.1392 20.3141C27.2395 20.3408 27.3363 20.3837 27.4272 20.4417C27.4554 20.4599 27.4799 20.4804 27.5062 20.5009C27.548 20.5337 27.5876 20.5703 27.6248 20.6103C27.7536 20.745 27.8444 20.9251 27.8845 21.1254Z" fill="#D2654B"/>
    <path d="M27.8448 21.1847C27.954 21.7613 27.5681 22.3606 26.979 22.527C26.7931 22.5782 26.6002 22.5782 26.4143 22.527H26.403C26.2289 22.4815 26.0678 22.3808 25.9362 22.2353C25.8261 22.1138 25.7487 21.955 25.7141 21.7795C25.7015 21.7122 25.6952 21.6434 25.6953 21.5744C25.6953 21.0662 26.0586 20.5831 26.58 20.4349C26.7717 20.3791 26.9717 20.3791 27.1634 20.4349C27.2572 20.4604 27.3478 20.501 27.4326 20.5557L27.506 20.6104C27.5454 20.6407 27.5825 20.675 27.6171 20.713C27.731 20.8383 27.8105 21.003 27.8448 21.1847Z" fill="#FF835D"/>
    <path d="M27.1318 21.6678C28.0259 21.2439 30.964 19.5369 31.2257 19.1222C31.3014 19.0396 31.3617 18.9382 31.4022 18.825C31.4428 18.7117 31.4629 18.5893 31.4609 18.4658C31.4613 18.3984 31.4524 18.3315 31.4346 18.2676C31.4285 18.4646 31.3756 18.6553 31.2821 18.8168C31.2586 18.8519 31.2334 18.8853 31.2068 18.9171C30.9919 19.1505 30.7504 19.3454 30.4897 19.4959C29.6559 20.0611 28.3045 20.8451 27.5045 21.2667C27.4093 21.4353 27.2813 21.573 27.1318 21.6678Z" fill="#D2654B"/>
    <path d="M29.3633 18.5411C29.3783 19.0903 29.8602 19.5187 30.4399 19.4959H30.4907C30.7514 19.3454 30.9929 19.1505 31.2079 18.9171C31.2344 18.8853 31.2596 18.8519 31.2831 18.8168C31.3688 18.7018 31.4233 18.5579 31.4394 18.4043V18.2676C31.3789 18.0722 31.2754 17.9007 31.14 17.7717C31.0045 17.6427 30.8425 17.5612 30.6714 17.536C30.5048 17.4971 30.3336 17.4971 30.167 17.536C30.1029 17.5499 30.0399 17.5705 29.9788 17.5976C29.8075 17.657 29.656 17.78 29.5455 17.9493C29.4351 18.1186 29.3714 18.3256 29.3633 18.5411Z" fill="#FF835D"/>
    <path d="M25.6592 20.4805C25.6592 20.8565 26.0149 21.3693 26.4008 21.62C26.5663 21.7425 26.7639 21.7848 26.9541 21.7385C26.9956 21.7225 27.0539 21.6997 27.1236 21.6655H27.1348C27.2872 21.5752 27.4171 21.4376 27.5113 21.2667C28.3112 20.8451 29.6627 20.0612 30.4965 19.496C30.7571 19.3455 30.9986 19.1506 31.2136 18.9171C31.2402 18.8854 31.2653 18.8519 31.2889 18.8169C31.2842 18.7675 31.276 18.7187 31.2644 18.671C31.144 18.1468 30.6433 17.4677 30.169 17.5315C30.1317 17.534 30.0949 17.5433 30.0598 17.5589L29.9864 17.5931C29.8584 17.65 29.6777 17.7435 29.4575 17.8597C28.6594 18.2927 27.3682 19.0584 26.5212 19.6304C26.3217 19.7649 26.1448 19.888 26.0093 19.9951C25.917 20.068 25.8418 20.1295 25.7872 20.1819C25.7665 20.2047 25.7476 20.2275 25.7288 20.2526C25.6849 20.3168 25.6603 20.3971 25.6592 20.4805Z" fill="#FF835D"/>
    <path d="M25.5205 20.8769C25.5374 21.4284 26.0174 21.8545 26.5971 21.8317C26.7802 21.8248 26.9599 21.7704 27.1242 21.6722H27.1355C27.2878 21.5819 27.4177 21.4443 27.5119 21.2734C27.5882 21.132 27.6276 20.966 27.6248 20.7971C27.6225 20.7331 27.6143 20.6697 27.6004 20.6079C27.4931 20.1521 27.0602 19.8217 26.5482 19.8422C26.36 19.8486 26.1753 19.9062 26.008 20.0109C25.9269 20.0599 25.8521 20.1228 25.7859 20.1977C25.7652 20.2205 25.7464 20.2433 25.7276 20.2684C25.6984 20.3072 25.6714 20.3484 25.6466 20.3914C25.5651 20.5341 25.5211 20.7033 25.5205 20.8769Z" fill="#D2654B"/>
    <path d="M25.5601 20.9158C25.577 21.4285 26.0231 21.8274 26.5633 21.8046C26.7341 21.7979 26.9017 21.7466 27.0545 21.6542C27.195 21.5695 27.3145 21.4413 27.4009 21.2827C27.4721 21.1509 27.5082 20.9958 27.5044 20.8383C27.5025 20.7782 27.495 20.7185 27.4818 20.6605C27.382 20.2367 26.9792 19.9313 26.503 19.9495C26.328 19.9546 26.1562 20.0075 26.0005 20.1045C25.9251 20.151 25.8554 20.2101 25.7934 20.28L25.7389 20.346C25.7111 20.3822 25.686 20.4211 25.6636 20.4623C25.5911 20.5968 25.5549 20.7553 25.5601 20.9158Z" fill="#FF835D"/>
    <path d="M29.5029 22.103C30.5363 21.7201 33.9563 20.1021 34.2819 19.6531C34.3713 19.5652 34.4448 19.4559 34.4976 19.3319C34.5504 19.208 34.5814 19.0722 34.5887 18.933C34.5942 18.8566 34.5898 18.7797 34.5755 18.7051C34.5542 18.9295 34.4797 19.1416 34.3609 19.3158C34.3326 19.3544 34.3017 19.3902 34.2687 19.4229C34.0111 19.6658 33.7258 19.8623 33.4217 20.0064C32.4448 20.5579 30.8713 21.3031 29.9434 21.6928C29.8265 21.8711 29.6753 22.012 29.5029 22.103Z" fill="#D2654B"/>
    <path d="M32.2432 18.7736C32.2168 19.4049 32.7213 19.9518 33.3725 19.9928H33.429C33.7331 19.8488 34.0183 19.6523 34.276 19.4094C34.309 19.3767 34.3398 19.3409 34.3682 19.3023C34.4737 19.1789 34.5465 19.0202 34.5771 18.8465V18.6893C34.5268 18.4606 34.4255 18.2529 34.2845 18.089C34.1435 17.9251 33.968 17.8111 33.7772 17.7595C33.6753 17.7248 33.5705 17.7042 33.4647 17.6979C33.3806 17.6914 33.2961 17.6952 33.2125 17.7093C33.1412 17.7188 33.0707 17.7356 33.0017 17.7595C32.8034 17.811 32.6236 17.9365 32.4874 18.1185C32.3513 18.3005 32.2659 18.5296 32.2432 18.7736Z" fill="#FF835D"/>
    <path d="M27.946 20.583C27.9084 21.0114 28.2735 21.6427 28.6857 21.9731C28.8607 22.131 29.0787 22.2027 29.2956 22.1737C29.3426 22.16 29.4085 22.1395 29.4838 22.1076H29.4951C29.6767 22.0206 29.8354 21.8757 29.9544 21.6883C30.8823 21.2986 32.4558 20.5488 33.4327 20.0018C33.7368 19.8578 34.0221 19.6613 34.2797 19.4184C34.3127 19.3857 34.3436 19.3499 34.3719 19.3113C34.3705 19.2547 34.3654 19.1983 34.3569 19.1427C34.2628 18.5274 33.7583 17.6887 33.2276 17.7206C33.1857 17.7211 33.144 17.7272 33.1033 17.7388L33.0167 17.7707C32.8718 17.8209 32.661 17.9052 32.4069 18.0146C31.4771 18.4202 29.9751 19.1541 28.9831 19.7078C28.7497 19.84 28.5427 19.9608 28.3808 20.0679C28.2717 20.1408 28.1813 20.2024 28.1173 20.2571C28.0928 20.2803 28.0695 20.3054 28.0477 20.3323C27.9905 20.3988 27.9545 20.4875 27.946 20.583Z" fill="#FF835D"/>
    <path d="M27.7617 21.0093C27.7354 21.6428 28.2379 22.1875 28.8911 22.2262C29.0974 22.2412 29.3039 22.1999 29.4953 22.1055H29.5066C29.6838 22.017 29.8384 21.8731 29.9545 21.6884C30.0515 21.5342 30.1084 21.3486 30.1183 21.1551C30.1209 21.0788 30.1165 21.0024 30.1051 20.9272C30.0223 20.3917 29.5649 19.9655 28.9908 19.9291C28.7795 19.9142 28.5682 19.9587 28.3735 20.059C28.2787 20.1066 28.1899 20.1703 28.1099 20.2481C28.0854 20.2713 28.0621 20.2964 28.0403 20.3233C28.0035 20.364 27.9695 20.4082 27.9387 20.4555C27.8338 20.6135 27.772 20.807 27.7617 21.0093Z" fill="#D2654B"/>
    <path d="M27.8016 21.0592C27.779 21.6494 28.2458 22.1553 28.8518 22.1986C29.0448 22.2144 29.2382 22.1754 29.4165 22.0847H29.4278C29.5925 22.0016 29.7365 21.8681 29.8457 21.6973C29.9353 21.5533 29.9877 21.3804 29.9962 21.2004C29.999 21.131 29.9952 21.0614 29.9849 20.9931C29.9078 20.4963 29.4805 20.0974 28.946 20.0633C28.7495 20.0491 28.5529 20.0905 28.3719 20.184C28.2837 20.2293 28.2009 20.2883 28.1253 20.3595L28.0594 20.4302C28.0262 20.4683 27.9954 20.5095 27.9672 20.5532C27.8718 20.6982 27.8141 20.8743 27.8016 21.0592Z" fill="#FF835D"/>
    <path d="M32.415 23.7734C33.4503 23.3928 36.8703 21.7725 37.1959 21.3235C37.2849 21.235 37.3582 21.1256 37.4113 21.0018C37.4643 20.878 37.4961 20.7425 37.5046 20.6034C37.509 20.527 37.5045 20.4503 37.4914 20.3755C37.4683 20.6004 37.3932 20.8129 37.2749 20.9885C37.2467 21.0258 37.2165 21.0608 37.1846 21.0934C36.9263 21.3351 36.6412 21.5315 36.3376 21.6768C35.3588 22.2305 33.7872 22.9735 32.8592 23.3632C32.7413 23.542 32.5887 23.6829 32.415 23.7734Z" fill="#D2654B"/>
    <path d="M35.1554 20.4441C35.1272 21.0753 35.6316 21.6245 36.2848 21.6656H36.3431C36.6467 21.5203 36.9319 21.3239 37.1901 21.0822C37.222 21.0496 37.2522 21.0146 37.2805 20.9773C37.3861 20.854 37.4588 20.6953 37.4894 20.5215V20.3643C37.4388 20.1356 37.3372 19.9281 37.1958 19.7645C37.0544 19.601 36.8786 19.4876 36.6876 19.4368C36.586 19.3999 36.481 19.3784 36.3751 19.373C36.2909 19.3676 36.2065 19.3714 36.1229 19.3843C36.0516 19.3942 35.9811 19.411 35.9121 19.4345C35.715 19.4867 35.5362 19.612 35.4006 19.793C35.265 19.9739 35.1793 20.2015 35.1554 20.4441Z" fill="#FF835D"/>
    <path d="M30.8604 22.2537C30.8208 22.6821 31.186 23.3134 31.5982 23.6439C31.7726 23.8032 31.991 23.8751 32.208 23.8444C32.2551 23.8307 32.321 23.8102 32.3963 23.7783H32.4075C32.5848 23.691 32.7395 23.5478 32.8555 23.3635C33.7835 22.9738 35.3551 22.2241 36.3339 21.6771C36.6375 21.5319 36.9226 21.3355 37.1809 21.0937C37.2128 21.0611 37.243 21.0261 37.2712 20.9889C37.2705 20.9316 37.2661 20.8744 37.258 20.818C37.1639 20.2026 36.6576 19.364 36.1287 19.3959C36.0867 19.396 36.0449 19.4029 36.0045 19.4164C35.9751 19.424 35.9462 19.4339 35.9179 19.446C35.773 19.4962 35.5622 19.5828 35.3081 19.6922C34.3801 20.0955 32.8762 20.8316 31.8843 21.3831C31.6509 21.5153 31.4457 21.6361 31.2839 21.7432C31.1747 21.8161 31.0862 21.88 31.0204 21.9324C30.9958 21.9556 30.9725 21.9807 30.9507 22.0076C30.8986 22.075 30.8667 22.1617 30.8604 22.2537Z" fill="#FF835D"/>
    <path d="M30.6737 22.6795C30.6492 23.3154 31.1499 23.8577 31.803 23.8988C32.0095 23.9132 32.216 23.8711 32.4072 23.7757H32.4185C32.5958 23.6884 32.7505 23.5452 32.8665 23.3609C32.9626 23.2072 33.0189 23.0224 33.0284 22.8299C33.0316 22.7537 33.0278 22.6773 33.0171 22.602C32.9324 22.0688 32.475 21.6403 31.9028 21.6039C31.6915 21.589 31.4802 21.6335 31.2854 21.7338C31.1909 21.782 31.1023 21.8457 31.0219 21.9229C30.9974 21.9461 30.9741 21.9713 30.9523 21.9981C30.9156 22.0382 30.8822 22.0825 30.8525 22.1303C30.7481 22.2871 30.6857 22.4787 30.6737 22.6795Z" fill="#D2654B"/>
    <path d="M30.7079 22.7296C30.6835 23.3222 31.1522 23.8258 31.7563 23.8691C31.9493 23.8843 32.1426 23.8453 32.321 23.7552H32.3323C32.4969 23.6729 32.6404 23.5392 32.7483 23.3677C32.8379 23.2238 32.8903 23.0509 32.8989 22.8709C32.9027 22.8023 32.8989 22.7333 32.8876 22.6658C32.8104 22.1667 32.3831 21.7679 31.8505 21.7337C31.6532 21.7171 31.4554 21.7561 31.2726 21.8477C31.1849 21.8925 31.1025 21.9515 31.0279 22.0232C31.0035 22.0459 30.9828 22.071 30.962 22.0938C30.9277 22.1322 30.8963 22.1741 30.8679 22.2191C30.7728 22.3655 30.7169 22.5437 30.7079 22.7296Z" fill="#FF835D"/>
    <path d="M23.6289 25.761C22.5541 25.6083 18.9515 24.7492 18.5657 24.38C18.4648 24.3128 18.3764 24.2214 18.3058 24.1112C18.2352 24.0011 18.184 23.8746 18.1554 23.7396C18.1397 23.6652 18.1333 23.5884 18.1365 23.5117C18.191 23.7281 18.2955 23.921 18.4377 24.0678C18.4709 24.0993 18.5062 24.1275 18.5431 24.1521C18.8325 24.3364 19.1426 24.4685 19.4635 24.5441C20.5063 24.8791 22.1626 25.2711 23.1338 25.4557C23.2755 25.6053 23.4456 25.7102 23.6289 25.761Z" fill="#D2654B"/>
    <path d="M20.4418 23.0741C20.5623 23.6894 20.1463 24.3366 19.5007 24.5167L19.4461 24.5304C19.1252 24.4548 18.8151 24.3227 18.5257 24.1384C18.4888 24.1137 18.4535 24.0856 18.4203 24.0541C18.2987 23.9565 18.2042 23.8167 18.1493 23.653L18.1191 23.498C18.1351 23.2623 18.2043 23.0364 18.3192 22.8451C18.434 22.6538 18.5901 22.5044 18.7704 22.4132C18.8647 22.3551 18.9646 22.3114 19.0678 22.2833C19.15 22.2601 19.2338 22.2457 19.3181 22.24C19.3895 22.2331 19.4613 22.2331 19.5327 22.24C19.7377 22.2445 19.9362 22.3277 20.0996 22.4776C20.263 22.6275 20.3828 22.8364 20.4418 23.0741Z" fill="#FF835D"/>
    <path d="M24.9364 23.9284C25.0361 24.3432 24.7708 25.0428 24.4131 25.4553C24.2662 25.6476 24.0643 25.765 23.8485 25.7835C23.7995 25.7835 23.7318 25.7766 23.6452 25.7629H23.6339C23.447 25.7148 23.2741 25.607 23.1332 25.4507C22.162 25.2661 20.4981 24.8742 19.4629 24.5392C19.1419 24.4636 18.8318 24.3315 18.5425 24.1472C18.5055 24.1225 18.4703 24.0943 18.4371 24.0629C18.4304 24.007 18.4266 23.9507 18.4258 23.8942C18.4258 23.2675 18.8022 22.3331 19.3349 22.2488C19.3767 22.2419 19.4192 22.2419 19.461 22.2488C19.4874 22.2488 19.5156 22.2488 19.5495 22.2602C19.7 22.2784 19.9259 22.3172 20.1857 22.3696C21.1588 22.5679 22.7455 22.9621 23.8033 23.2994C24.0536 23.3769 24.2738 23.4521 24.4489 23.5273C24.5675 23.5774 24.6653 23.6185 24.7369 23.6572C24.7651 23.6754 24.7896 23.6959 24.8159 23.7165C24.8738 23.7696 24.916 23.8439 24.9364 23.9284Z" fill="#FF835D"/>
    <path d="M25.1814 24.3091C25.3 24.929 24.8859 25.5694 24.2516 25.7494C24.0503 25.8051 23.8412 25.8051 23.6399 25.7494H23.6286C23.4417 25.7013 23.2688 25.5935 23.1279 25.4372C23.0104 25.3066 22.9272 25.137 22.8889 24.9495C22.8753 24.8746 22.8684 24.7982 22.8682 24.7216C22.8682 24.1792 23.2597 23.6596 23.8187 23.5001C24.0249 23.442 24.2393 23.442 24.4455 23.5001C24.5458 23.5276 24.6427 23.5713 24.7334 23.63C24.7617 23.6482 24.7861 23.6687 24.8125 23.6892C24.8547 23.7213 24.8944 23.7579 24.9311 23.7986C25.0561 23.9334 25.1436 24.1117 25.1814 24.3091Z" fill="#D2654B"/>
    <path d="M25.1476 24.3662C25.2567 24.9451 24.8709 25.5422 24.2817 25.7108C24.0958 25.761 23.903 25.761 23.7171 25.7108H23.7058C23.5318 25.6661 23.3707 25.5662 23.239 25.4214C23.1294 25.2994 23.0521 25.1408 23.0169 24.9656C23.0041 24.8976 22.9978 24.828 22.9981 24.7582C22.9981 24.2523 23.3613 23.7669 23.8827 23.6187C24.0747 23.5652 24.2742 23.5652 24.4662 23.6187C24.5602 23.6432 24.6509 23.6839 24.7353 23.7395C24.7606 23.7561 24.7851 23.7744 24.8088 23.7942C24.8481 23.8238 24.8852 23.8573 24.9198 23.8945C25.0338 24.0198 25.1133 24.1845 25.1476 24.3662Z" fill="#FF835D"/>
    <path d="M14.2773 23.0966C15.3107 22.7161 18.7307 21.0957 19.0563 20.6468C19.146 20.559 19.2197 20.4497 19.2729 20.3258C19.326 20.2019 19.3574 20.066 19.365 19.9266C19.3703 19.8503 19.3659 19.7734 19.3518 19.6987C19.3286 19.9232 19.2543 20.1354 19.1372 20.3118C19.1084 20.349 19.0775 20.384 19.045 20.4166C18.7874 20.6595 18.5021 20.856 18.198 21C17.223 21.5492 15.6495 22.3036 14.7234 22.6819C14.6055 22.8629 14.4522 23.0055 14.2773 23.0966Z" fill="#D2654B"/>
    <path d="M17.0166 19.7671C16.9903 20.3984 17.4947 20.9476 18.1459 20.9886H18.2024C18.5065 20.8446 18.7918 20.6481 19.0494 20.4052C19.0819 20.3726 19.1128 20.3376 19.1416 20.3004C19.2458 20.176 19.3177 20.0176 19.3487 19.8446V19.6873C19.2983 19.4586 19.1971 19.251 19.0561 19.087C18.915 18.9231 18.7396 18.8091 18.5487 18.7575C18.4468 18.7229 18.342 18.7022 18.2363 18.696C18.1521 18.6894 18.0676 18.6932 17.9841 18.7074C17.9128 18.7168 17.8422 18.7336 17.7733 18.7575C17.5764 18.8104 17.3979 18.9359 17.2624 19.1167C17.1269 19.2975 17.041 19.5247 17.0166 19.7671Z" fill="#FF835D"/>
    <path d="M12.7214 21.5765C12.6838 22.0049 13.0471 22.6362 13.4612 22.9666C13.6348 23.1261 13.8527 23.1979 14.0691 23.1672C14.118 23.1535 14.1839 23.133 14.2573 23.1011H14.2705C14.4472 23.0137 14.6013 22.8704 14.7166 22.6863C15.6445 22.2966 17.2162 21.5468 18.1949 20.9999C18.499 20.8558 18.7843 20.6593 19.0419 20.4165C19.0745 20.3839 19.1053 20.3489 19.1342 20.3116C19.1328 20.2543 19.1278 20.1971 19.1191 20.1407C19.025 19.5254 18.5206 18.6868 17.9898 18.7187C17.9472 18.7189 17.9048 18.7258 17.8637 18.7392C17.835 18.7471 17.8067 18.757 17.779 18.7688C17.6322 18.8189 17.4232 18.9033 17.1672 19.0149C16.2393 19.4183 14.7373 20.1544 13.7454 20.7059C13.5101 20.8381 13.3049 20.9589 13.1431 21.066C13.0339 21.1389 12.9435 21.2004 12.8795 21.2551C12.854 21.2777 12.8301 21.3029 12.808 21.3303C12.7577 21.3987 12.7273 21.4852 12.7214 21.5765Z" fill="#FF835D"/>
    <path d="M12.535 22.0029C12.5106 22.6365 13.0131 23.1811 13.6644 23.2222C13.8702 23.2364 14.0761 23.1943 14.2667 23.0991H14.2799C14.4566 23.0117 14.6106 22.8685 14.7259 22.6843C14.8228 22.5311 14.8792 22.346 14.8878 22.1533C14.892 22.0771 14.8882 22.0005 14.8765 21.9255C14.7918 21.3922 14.3326 20.966 13.7679 20.9364C13.5566 20.9215 13.3453 20.966 13.1505 21.0663C13.0555 21.1134 12.9667 21.1771 12.887 21.2554C12.8615 21.278 12.8375 21.3032 12.8155 21.3306C12.7798 21.3719 12.7465 21.4161 12.7157 21.4628C12.6118 21.6166 12.5488 21.8049 12.535 22.0029Z" fill="#D2654B"/>
    <path d="M12.576 22.0529C12.5534 22.6454 13.0202 23.1491 13.6263 23.1924C13.8192 23.208 14.0126 23.1689 14.1909 23.0784H14.2022C14.367 22.9967 14.5107 22.8629 14.6182 22.691C14.7085 22.5473 14.7616 22.3744 14.7707 22.1942C14.7725 22.1248 14.7687 22.0553 14.7594 21.9868C14.6803 21.49 14.2549 21.0912 13.7204 21.057C13.5239 21.0426 13.3273 21.084 13.1463 21.1778C13.0582 21.2231 12.9753 21.282 12.8997 21.3533L12.8338 21.4239C12.8001 21.4623 12.7693 21.5043 12.7416 21.5492C12.6443 21.6921 12.5864 21.8682 12.576 22.0529Z" fill="#FF835D"/>
    <path d="M15.6758 20.5258C16.7091 20.143 20.1291 18.5226 20.4547 18.076C20.5442 17.9881 20.6176 17.8787 20.6704 17.7548C20.7232 17.6309 20.7543 17.495 20.7615 17.3558C20.7671 17.2795 20.7627 17.2026 20.7484 17.1279C20.7279 17.3485 20.6569 17.5577 20.5432 17.7318C20.5143 17.7698 20.4835 17.8056 20.451 17.839C20.1931 18.0844 19.9072 18.2833 19.6021 18.4292C18.6233 18.9807 17.0517 19.7236 16.1237 20.1156C16.0048 20.2952 15.8509 20.4361 15.6758 20.5258Z" fill="#D2654B"/>
    <path d="M18.415 17.1967C18.3887 17.828 18.8931 18.3749 19.5444 18.4159H19.6027C19.9068 18.2719 20.1921 18.0754 20.4497 17.8325C20.4823 17.7992 20.5131 17.7634 20.542 17.7254C20.6471 17.602 20.7192 17.4432 20.749 17.2696V17.1124C20.6986 16.8837 20.5974 16.676 20.4564 16.5121C20.3153 16.3482 20.1399 16.2342 19.9491 16.1826C19.8472 16.1479 19.7423 16.1273 19.6366 16.1211C19.5528 16.1107 19.4682 16.1107 19.3844 16.1211C19.3131 16.1305 19.2426 16.1473 19.1736 16.1712C18.9742 16.2239 18.7936 16.3514 18.6574 16.5355C18.5213 16.7196 18.4365 16.951 18.415 17.1967Z" fill="#FF835D"/>
    <path d="M14.1199 19.0035C14.0822 19.4342 14.4455 20.0655 14.8596 20.3959C15.0323 20.5522 15.2476 20.6231 15.4619 20.5942C15.5256 20.5774 15.5885 20.5561 15.6501 20.5304H15.6633C15.8396 20.4422 15.9935 20.2991 16.1094 20.1156C17.0373 19.7236 18.609 18.9762 19.5877 18.4292C19.8918 18.2852 20.1771 18.0887 20.4347 17.8458C20.4673 17.8125 20.4981 17.7767 20.527 17.7387C20.5255 17.6821 20.5204 17.6257 20.5119 17.57C20.4178 16.9547 19.9134 16.1138 19.3826 16.148C19.3407 16.1473 19.2989 16.1534 19.2583 16.1662L19.1718 16.1981C19.0249 16.2483 18.816 16.3326 18.56 16.442C17.6321 16.8476 16.1301 17.5814 15.1382 18.1352C14.9029 18.2674 14.6977 18.3882 14.5358 18.4953C14.4267 18.5682 14.3363 18.6298 14.2723 18.6822C14.2479 18.7072 14.2234 18.7323 14.2008 18.7597C14.1528 18.8282 14.1244 18.9138 14.1199 19.0035Z" fill="#FF835D"/>
    <path d="M13.9335 19.4323C13.909 20.0659 14.4116 20.6083 15.0628 20.6493C15.2685 20.6645 15.4744 20.6232 15.6651 20.5285H15.6783C15.8546 20.4404 16.0085 20.2973 16.1244 20.1137C16.2227 19.9564 16.2786 19.7662 16.2844 19.5691C16.2887 19.4928 16.2849 19.4162 16.2731 19.3412C16.1903 18.8056 15.731 18.3772 15.1588 18.343C14.9474 18.3271 14.736 18.3716 14.5414 18.4729C14.4471 18.5206 14.3584 18.5835 14.2779 18.6598C14.2535 18.6848 14.229 18.7099 14.2064 18.7373C14.1707 18.7785 14.1374 18.8227 14.1066 18.8694C14.0018 19.0306 13.9412 19.2274 13.9335 19.4323Z" fill="#D2654B"/>
    <path d="M13.9744 19.4821C13.9518 20.0723 14.4186 20.5783 15.0247 20.6216C15.2176 20.6348 15.4105 20.5959 15.5894 20.5076H15.6007C15.7654 20.4268 15.909 20.2937 16.0166 20.1225C16.107 19.9788 16.16 19.8059 16.1691 19.6257C16.1711 19.5563 16.1673 19.4868 16.1578 19.4183C16.0806 18.9215 15.6534 18.5227 15.1188 18.4885C14.9254 18.4761 14.7323 18.5174 14.5541 18.6093C14.4657 18.6537 14.3827 18.7127 14.3076 18.7847L14.2417 18.8554C14.208 18.893 14.1771 18.9342 14.1495 18.9784C14.05 19.1207 13.9889 19.2965 13.9744 19.4821Z" fill="#FF835D"/>
    <path d="M30.7906 20.6762C29.7177 20.5213 26.1133 19.6644 25.7274 19.2952C25.6258 19.2291 25.5366 19.1383 25.4654 19.0285C25.3941 18.9187 25.3424 18.7922 25.3133 18.6571C25.2967 18.5829 25.2897 18.506 25.2926 18.4292C25.3471 18.6456 25.4516 18.8385 25.5938 18.9853C25.6275 19.016 25.6627 19.0441 25.6992 19.0696C25.9891 19.2524 26.299 19.3844 26.6196 19.4616C27.6624 19.7943 29.3187 20.1885 30.2899 20.3731C30.4339 20.5221 30.6058 20.6261 30.7906 20.6762Z" fill="#D2654B"/>
    <path d="M27.6062 17.9872C27.7267 18.6048 27.3107 19.2521 26.6764 19.4321L26.6199 19.4458C26.2993 19.3686 25.9894 19.2366 25.6995 19.0538C25.663 19.0283 25.6278 19.0002 25.5941 18.9695C25.4719 18.8716 25.3774 18.7308 25.3231 18.5661L25.293 18.4134C25.3088 18.1773 25.3779 17.9511 25.4928 17.7594C25.6076 17.5677 25.7638 17.4179 25.9442 17.3263C26.0389 17.27 26.1387 17.2271 26.2416 17.1987C26.3237 17.1746 26.4075 17.1601 26.4919 17.1554C26.5633 17.1474 26.6351 17.1474 26.7065 17.1554C26.9094 17.1631 27.1052 17.2475 27.2665 17.3966C27.4279 17.5458 27.5466 17.7523 27.6062 17.9872Z" fill="#FF835D"/>
    <path d="M32.0985 18.8442C32.1983 19.2567 31.9329 19.9586 31.5752 20.3711C31.4283 20.5635 31.2264 20.6808 31.0106 20.6993C30.9616 20.6993 30.8939 20.6993 30.8073 20.6765C30.8073 20.6765 30.8073 20.6765 30.796 20.6765C30.6092 20.6279 30.4365 20.5201 30.2953 20.3643C29.3241 20.1797 27.6602 19.7854 26.625 19.4527C26.3044 19.3756 25.9945 19.2436 25.7046 19.0607C25.668 19.0353 25.6328 19.0071 25.5992 18.9764C25.5924 18.9198 25.5886 18.8627 25.5879 18.8055C25.5879 18.1811 25.9643 17.2467 26.497 17.1624C26.5388 17.1555 26.5813 17.1555 26.6231 17.1624C26.6526 17.1595 26.6821 17.1595 26.7116 17.1624C26.8622 17.1806 27.088 17.2194 27.3497 17.2718C28.3228 17.47 29.9076 17.8643 30.9654 18.1993C31.2157 18.2791 31.436 18.3543 31.611 18.4272C31.7296 18.4751 31.8275 18.5184 31.899 18.5571C31.9274 18.5738 31.9545 18.5936 31.9799 18.6164C32.0391 18.6745 32.0807 18.7546 32.0985 18.8442Z" fill="#FF835D"/>
    <path d="M32.3435 19.2225C32.4621 19.8424 32.048 20.485 31.4137 20.6651C31.2124 20.7208 31.0033 20.7208 30.802 20.6651C30.802 20.6651 30.802 20.6651 30.7907 20.6651C30.6039 20.6164 30.4312 20.5087 30.29 20.3529C30.1721 20.2218 30.0889 20.0513 30.051 19.8629C30.0372 19.7881 30.0302 19.7117 30.0303 19.635C30.0303 19.0903 30.4218 18.5707 30.9714 18.4135C31.1775 18.3544 31.3921 18.3544 31.5982 18.4135C31.6986 18.4407 31.7955 18.4844 31.8861 18.5434C31.9146 18.5601 31.9417 18.5799 31.9671 18.6026C32.0083 18.6345 32.0473 18.6703 32.0838 18.7098C32.2129 18.8432 32.3038 19.0227 32.3435 19.2225Z" fill="#D2654B"/>
    <path d="M32.3116 19.282C32.4208 19.8585 32.0349 20.4579 31.4458 20.6243C31.2599 20.6755 31.067 20.6755 30.8811 20.6243C30.8811 20.6243 30.8811 20.6243 30.8698 20.6243C30.6954 20.5797 30.5341 20.4789 30.403 20.3326C30.2934 20.2106 30.2161 20.0519 30.1809 19.8768C30.1682 19.8095 30.1619 19.7407 30.1621 19.6717C30.1621 19.1635 30.5273 18.6803 31.0468 18.5322C31.2386 18.4776 31.4384 18.4776 31.6302 18.5322C31.7238 18.5587 31.8142 18.5992 31.8994 18.653L31.9728 18.7077C32.0117 18.7387 32.0488 18.773 32.0839 18.8102C32.1978 18.9356 32.2773 19.1002 32.3116 19.282Z" fill="#FF835D"/>
    <path d="M25.1855 18.4293C26.1417 18.5341 29.3998 18.5957 29.7876 18.3655C29.8838 18.3312 29.973 18.273 30.0495 18.1945C30.126 18.116 30.1881 18.019 30.2318 17.9097C30.257 17.8497 30.2735 17.785 30.2807 17.7183C30.2051 17.8837 30.0922 18.0197 29.9551 18.1102C29.9214 18.1293 29.8868 18.146 29.8516 18.1604C29.5724 18.2512 29.2842 18.2949 28.9952 18.2903C28.0409 18.345 26.5483 18.3153 25.6712 18.2584C25.5239 18.3643 25.3568 18.4232 25.1855 18.4293Z" fill="#D2654B"/>
    <path d="M28.3322 16.834C28.144 17.3331 28.415 17.9735 28.942 18.2721C28.9572 18.2812 28.9729 18.2888 28.9891 18.2948C29.2781 18.2995 29.5663 18.2558 29.8455 18.1649C29.8808 18.1506 29.9153 18.1339 29.949 18.1148C30.0677 18.0587 30.1695 17.9601 30.2408 17.8322L30.2878 17.7069C30.3058 17.4997 30.2765 17.2905 30.2032 17.1021C30.1299 16.9136 30.0153 16.7532 29.8719 16.6381C29.7979 16.5676 29.717 16.5087 29.6309 16.4626C29.5623 16.4244 29.4911 16.3932 29.4182 16.3691C29.3564 16.3492 29.2935 16.3347 29.23 16.3258C29.0553 16.286 28.8746 16.3136 28.7135 16.4048C28.5524 16.496 28.419 16.6462 28.3322 16.834Z" fill="#FF835D"/>
    <path d="M24.3078 16.5673C24.1628 16.8978 24.3078 17.5541 24.5524 17.9848C24.6558 18.1837 24.817 18.3285 25.0042 18.3905C25.0634 18.4025 25.1231 18.4109 25.183 18.4156H25.1943C25.3623 18.415 25.5272 18.3608 25.6724 18.2583C26.5438 18.3153 28.0421 18.3449 28.9964 18.2902C29.2854 18.2949 29.5736 18.2512 29.8528 18.1603C29.888 18.146 29.9226 18.1292 29.9563 18.1102C29.9701 18.0642 29.9808 18.017 29.9883 17.9689C30.0749 17.4333 29.8773 16.5537 29.4236 16.3736C29.3885 16.3572 29.3518 16.3457 29.3145 16.3395H29.2354C29.1018 16.3235 28.906 16.3075 28.6708 16.2939C27.7955 16.2483 26.3594 16.2346 25.3919 16.2939C25.1642 16.3075 24.9609 16.3235 24.799 16.344C24.688 16.3577 24.5976 16.3736 24.5299 16.3896C24.5035 16.3986 24.4777 16.41 24.4527 16.4238C24.3924 16.4506 24.3414 16.5012 24.3078 16.5673Z" fill="#FF835D"/>
    <path d="M24.0332 16.834C23.8449 17.3354 24.1179 17.9735 24.643 18.2675C24.8097 18.3621 24.9916 18.4111 25.1757 18.411H25.187C25.355 18.4105 25.5199 18.3562 25.6651 18.2538C25.7855 18.1694 25.8814 18.042 25.9399 17.8891C25.9623 17.8311 25.9788 17.7698 25.9888 17.7068C26.0622 17.251 25.8006 16.7132 25.3319 16.4534C25.1609 16.3577 24.9744 16.3094 24.7861 16.3121C24.695 16.3121 24.6044 16.3274 24.5169 16.3577C24.4905 16.3667 24.4647 16.3781 24.4397 16.3919C24.3989 16.4102 24.3592 16.4323 24.3211 16.458C24.1948 16.5433 24.0939 16.675 24.0332 16.834Z" fill="#D2654B"/>
    <path d="M24.0517 16.8933C23.8766 17.3604 24.1288 17.9553 24.6163 18.2287C24.7712 18.3168 24.9402 18.3627 25.1113 18.3632H25.1226C25.2792 18.3636 25.433 18.3141 25.5687 18.2196C25.6802 18.1399 25.7693 18.0217 25.8247 17.88C25.8451 17.8246 25.8603 17.7665 25.8699 17.7068C25.9376 17.2738 25.6817 16.7816 25.2563 16.54C25.0973 16.4501 24.9235 16.4049 24.7481 16.4078C24.6641 16.4093 24.5806 16.4238 24.4996 16.4511L24.4262 16.4831C24.3885 16.4998 24.352 16.5204 24.3171 16.5446C24.2007 16.6244 24.1079 16.7463 24.0517 16.8933Z" fill="#FF835D"/>
    <path d="M27.3723 17.6274C27.4344 17.7003 27.4325 17.739 27.4099 17.7641C27.3874 17.7892 27.3535 17.7937 27.2914 17.7208C27.2293 17.6479 27.1954 17.5681 27.218 17.543C27.2405 17.518 27.3083 17.5544 27.3723 17.6274Z" fill="#F4E3D0"/>
    <path d="M23.5688 17.2718C23.6328 17.3448 23.629 17.3835 23.6064 17.4108C23.5838 17.4382 23.5519 17.4405 23.4879 17.3675C23.4239 17.2946 23.3919 17.2149 23.4145 17.1875C23.437 17.1602 23.5048 17.1989 23.5688 17.2718Z" fill="#F4E3D0"/>
    <path d="M26.5953 17.0415C26.6386 17.1327 26.6254 17.1692 26.5953 17.1874C26.5652 17.2056 26.5351 17.1874 26.4937 17.1008C26.4522 17.0142 26.4409 16.9208 26.4673 16.9025C26.4937 16.8843 26.5539 16.9481 26.5953 17.0415Z" fill="#F4E3D0"/>
    <path d="M26.3374 17.9278C26.3788 18.0213 26.3676 18.0577 26.3374 18.0737C26.3073 18.0896 26.2772 18.0737 26.2339 17.9894C26.1906 17.905 26.1812 17.807 26.2094 17.7911C26.2377 17.7751 26.296 17.8367 26.3374 17.9278Z" fill="#F4E3D0"/>
    <path d="M23.026 18.1241C23.0674 18.2176 23.0542 18.254 23.026 18.27C22.9977 18.2859 22.9657 18.27 22.9243 18.1856C22.8829 18.1013 22.8716 18.0033 22.898 17.9874C22.9243 17.9714 22.9902 18.033 23.026 18.1241Z" fill="#F4E3D0"/>
    <path d="M22.2109 17.9236C22.2222 18.0284 22.1996 18.058 22.1695 18.0603C22.1394 18.0626 22.1092 18.0421 22.098 17.9372C22.0867 17.8324 22.098 17.7435 22.1337 17.7413C22.1695 17.739 22.1996 17.8187 22.2109 17.9236Z" fill="#F4E3D0"/>
    <path d="M22.9249 17.1736C22.938 17.2784 22.9154 17.3057 22.8834 17.3103C22.8515 17.3148 22.8251 17.2898 22.8138 17.1849C22.8025 17.0801 22.8138 16.9935 22.8477 16.989C22.8816 16.9844 22.9136 17.0619 22.9249 17.1736Z" fill="#F4E3D0"/>
    <path d="M24.3889 19.225C24.451 19.2979 24.4491 19.3367 24.4265 19.364C24.404 19.3914 24.3701 19.3914 24.308 19.3207C24.2459 19.2501 24.212 19.1658 24.2346 19.1407C24.2571 19.1156 24.3249 19.1521 24.3889 19.225Z" fill="#F4E3D0"/>
    <path d="M23.8451 20.0773C23.8884 20.1708 23.8753 20.2072 23.8451 20.2232C23.815 20.2391 23.7849 20.2232 23.7435 20.1388C23.7021 20.0545 23.6889 19.9565 23.7172 19.9406C23.7454 19.9246 23.8037 19.9839 23.8451 20.0773Z" fill="#F4E3D0"/>
    <path d="M23.7439 19.1267C23.7552 19.2292 23.7326 19.2588 23.7025 19.2634C23.6724 19.268 23.6442 19.2429 23.631 19.1381C23.6178 19.0332 23.631 18.9466 23.6667 18.9421C23.7025 18.9375 23.7439 19.0218 23.7439 19.1267Z" fill="#F4E3D0"/>
    <path d="M26.352 18.965C26.416 19.038 26.4122 19.0767 26.3915 19.104C26.3708 19.1314 26.3351 19.1337 26.2711 19.0607C26.2071 18.9878 26.1751 18.9081 26.1977 18.8807C26.2202 18.8534 26.2899 18.8853 26.352 18.965Z" fill="#F4E3D0"/>
    <path d="M29.1342 17.6044C29.1982 17.6773 29.1963 17.7161 29.1737 17.7412C29.1512 17.7662 29.1173 17.7708 29.0533 17.6979C28.9893 17.6249 28.9573 17.5452 28.9799 17.5201C29.0025 17.495 29.0721 17.5315 29.1342 17.6044Z" fill="#F4E3D0"/>
    <path d="M28.1154 18.9422C28.1775 19.0152 28.1757 19.0539 28.1531 19.0813C28.1305 19.1086 28.0966 19.1109 28.0345 19.038C27.9724 18.965 27.9385 18.8853 27.9592 18.8579C27.9799 18.8306 28.0514 18.8693 28.1154 18.9422Z" fill="#F4E3D0"/>
    <path d="M25.8135 19.8175C25.8549 19.9109 25.8417 19.9474 25.8135 19.9633C25.7853 19.9793 25.7514 19.9633 25.71 19.879C25.6686 19.7947 25.6573 19.6967 25.6855 19.6807C25.7137 19.6648 25.7664 19.7263 25.8135 19.8175Z" fill="#F4E3D0"/>
    <path d="M30.0569 18.6141C30.1209 18.687 30.1171 18.7258 30.0945 18.7531C30.0719 18.7805 30.038 18.7828 29.9759 18.7098C29.9138 18.6369 29.8799 18.5571 29.9025 18.5298C29.9251 18.5024 29.9929 18.5412 30.0569 18.6141Z" fill="#F4E3D0"/>
    <path d="M29.5142 19.4664C29.5556 19.5598 29.5425 19.5963 29.5142 19.6123C29.486 19.6282 29.454 19.6123 29.4126 19.5279C29.3712 19.4436 29.3599 19.3456 29.3862 19.3297C29.4126 19.3137 29.4709 19.3752 29.5142 19.4664Z" fill="#F4E3D0"/>
    <path d="M25.7081 18.8669C25.7212 18.9717 25.6986 18.9991 25.6667 19.0036C25.6347 19.0082 25.6083 18.9831 25.597 18.8783C25.5857 18.7735 25.597 18.6869 25.6309 18.6823C25.6648 18.6777 25.6968 18.7621 25.7081 18.8669Z" fill="#F4E3D0"/>
    <path d="M20.6379 22.037C20.6699 22.135 20.6529 22.1715 20.6247 22.1829C20.5964 22.1943 20.5626 22.1829 20.5306 22.0826C20.4986 21.9823 20.4967 21.8957 20.5306 21.8821C20.5644 21.8684 20.6059 21.939 20.6379 22.037Z" fill="#F4E3D0"/>
    <path d="M19.8493 22.5314C19.8493 22.6363 19.8305 22.6636 19.7985 22.6636C19.7665 22.6636 19.742 22.6385 19.7363 22.5337C19.7307 22.4289 19.7495 22.3423 19.7815 22.3423C19.8135 22.3423 19.8418 22.4289 19.8493 22.5314Z" fill="#F4E3D0"/>
    <path d="M20.0883 20.4803C20.0619 20.5828 20.0318 20.5965 20.0017 20.5851C19.9716 20.5737 19.9565 20.5372 19.981 20.4347C20.0054 20.3321 20.0525 20.2638 20.0807 20.2752C20.109 20.2866 20.1127 20.38 20.0883 20.4803Z" fill="#F4E3D0"/>
    <path d="M17.5193 19.6147C17.4873 19.7149 17.5042 19.7491 17.5325 19.7605C17.5607 19.7719 17.5946 19.7605 17.6266 19.6602C17.6586 19.56 17.6605 19.4734 17.6266 19.4597C17.5927 19.446 17.5513 19.5167 17.5193 19.6147Z" fill="#F4E3D0"/>
    <path d="M18.3076 20.1135C18.3076 20.2183 18.3264 20.2456 18.3566 20.2456C18.3867 20.2456 18.4149 20.2206 18.4206 20.1157C18.4262 20.0109 18.4055 19.9243 18.3754 19.9243C18.3453 19.9243 18.3133 20.0064 18.3076 20.1135Z" fill="#F4E3D0"/>
    <path d="M18.0688 19.1976C18.0951 19.3001 18.1252 19.3138 18.1535 19.3024C18.1817 19.291 18.2005 19.2545 18.1742 19.152C18.1478 19.0494 18.1045 18.9811 18.0763 18.9924C18.0481 19.0038 18.0424 19.0973 18.0688 19.1976Z" fill="#F4E3D0"/>
    <path d="M19.2581 17.7002C19.2261 17.7981 19.2412 17.8323 19.2713 17.8437C19.3014 17.8551 19.3315 17.8437 19.3635 17.7457C19.3955 17.6477 19.3974 17.5566 19.3635 17.5452C19.3296 17.5338 19.2901 17.6022 19.2581 17.7002Z" fill="#F4E3D0"/>
    <path d="M20.5439 18.9538C20.5439 19.0586 20.5628 19.086 20.5929 19.086C20.623 19.086 20.6512 19.0609 20.6569 18.9561C20.6625 18.8512 20.6418 18.7646 20.6117 18.7646C20.5816 18.7646 20.5439 18.8467 20.5439 18.9538Z" fill="#F4E3D0"/>
    <path d="M19.8078 17.2898C19.8323 17.39 19.8624 17.406 19.8925 17.3923C19.9226 17.3786 19.9396 17.3445 19.9132 17.2442C19.8869 17.1439 19.8436 17.071 19.8134 17.0847C19.7833 17.0983 19.7909 17.1827 19.8078 17.2898Z" fill="#F4E3D0"/>
    <path d="M26.9429 17.518C27.0319 17.4353 27.0908 17.3137 27.1069 17.1793C27.1231 17.0448 27.0953 16.908 27.0295 16.7979C26.9839 16.6716 26.8991 16.5721 26.7935 16.5209C26.6878 16.4697 26.5697 16.471 26.4648 16.5244C26.3755 16.608 26.3165 16.7303 26.3004 16.8656C26.2842 17.0008 26.3121 17.1383 26.3782 17.2491C26.424 17.375 26.5091 17.4739 26.6148 17.5243C26.7206 17.5746 26.8385 17.5724 26.9429 17.518ZM26.4723 16.5882C26.5654 16.5443 26.6689 16.5453 26.7614 16.5911C26.8538 16.6369 26.9283 16.724 26.9692 16.8344C27.029 16.9344 27.0542 17.0587 27.0394 17.1808C27.0246 17.303 26.9711 17.4133 26.8902 17.4884C26.7954 17.5362 26.6889 17.5375 26.5934 17.492C26.4978 17.4465 26.4207 17.3578 26.3782 17.2446C26.3195 17.1435 26.2955 17.0188 26.3114 16.8968C26.3272 16.7748 26.3815 16.665 26.4629 16.5905L26.4723 16.5882Z" fill="#18A018"/>
    <path d="M21.0667 18.06C21.0074 17.944 20.9879 17.8046 21.0121 17.6714C21.0364 17.5383 21.1025 17.4218 21.1966 17.3467C21.2753 17.2498 21.3822 17.1941 21.4945 17.1915C21.6067 17.1889 21.7153 17.2397 21.797 17.333C21.8568 17.4482 21.8769 17.5872 21.853 17.7202C21.829 17.8531 21.763 17.9694 21.669 18.044C21.59 18.1409 21.4829 18.1967 21.3705 18.1997C21.2581 18.2027 21.1491 18.1526 21.0667 18.06ZM21.7782 17.39C21.7039 17.3055 21.6053 17.2594 21.5033 17.2615C21.4014 17.2636 21.3042 17.3138 21.2323 17.4014C21.1477 17.4698 21.0885 17.5753 21.067 17.6957C21.0456 17.8161 21.0637 17.9418 21.1175 18.0463C21.1916 18.1314 21.2903 18.1779 21.3924 18.1757C21.4944 18.1736 21.5917 18.123 21.6633 18.0349C21.7483 17.9669 21.8079 17.8613 21.8294 17.7408C21.8508 17.6202 21.8324 17.4943 21.7782 17.39Z" fill="#18A018"/>
    <path d="M22.4969 19.6873C22.4962 19.5906 22.5209 19.4962 22.5675 19.4177C22.614 19.3391 22.68 19.2805 22.7558 19.2503C22.8316 19.2201 22.9134 19.2199 22.9894 19.2497C23.0653 19.2795 23.1315 19.3378 23.1783 19.4161C23.1802 19.5139 23.1559 19.6099 23.1092 19.6899C23.0625 19.7698 22.9958 19.8294 22.9189 19.8598C22.8421 19.8902 22.7592 19.8899 22.6825 19.8588C22.6058 19.8277 22.5394 19.7676 22.4932 19.6873H22.4969ZM23.1538 19.4594C23.1144 19.3819 23.0546 19.3228 22.9841 19.2915C22.9136 19.2601 22.8364 19.2584 22.765 19.2865C22.6936 19.3146 22.632 19.371 22.5902 19.4466C22.5484 19.5221 22.5288 19.6125 22.5346 19.7032C22.574 19.7806 22.6338 19.8398 22.7043 19.8711C22.7748 19.9025 22.852 19.9042 22.9234 19.8761C22.9948 19.848 23.0564 19.7916 23.0982 19.716C23.14 19.6404 23.1596 19.55 23.1538 19.4594Z" fill="#18A018"/>
    <path d="M23.1256 16.6338C23.1116 16.7351 23.1304 16.839 23.1781 16.9239C23.2258 17.0088 23.2987 17.0681 23.3816 17.0896C23.4597 17.132 23.5483 17.136 23.6287 17.1007C23.7092 17.0654 23.7751 16.9936 23.8126 16.9004C23.8266 16.7992 23.8078 16.6953 23.7601 16.6104C23.7124 16.5255 23.6396 16.4661 23.5566 16.4447C23.4786 16.4022 23.3899 16.3982 23.3095 16.4335C23.229 16.4688 23.1631 16.5407 23.1256 16.6338ZM23.7844 16.8617C23.7513 16.9468 23.6918 17.0126 23.6189 17.0451C23.546 17.0775 23.4655 17.0738 23.3948 17.0349C23.3192 17.0151 23.253 16.9605 23.2102 16.8827C23.1673 16.8049 23.1512 16.7099 23.1651 16.6179C23.2 16.5348 23.2599 16.4712 23.3324 16.4402C23.405 16.4092 23.4846 16.4133 23.5548 16.4515C23.6303 16.4713 23.6965 16.5259 23.7393 16.6037C23.7822 16.6815 23.7984 16.7765 23.7844 16.8685V16.8617Z" fill="#18A018"/>
    <path d="M24.8724 20.1138C24.8312 20.0231 24.8203 19.9167 24.842 19.8166C24.8637 19.7165 24.9164 19.6303 24.9891 19.5759C25.0473 19.5005 25.1271 19.4549 25.2122 19.4485C25.2973 19.4422 25.3811 19.4755 25.4465 19.5418C25.4873 19.6325 25.4979 19.7387 25.4762 19.8387C25.4545 19.9386 25.4022 20.0248 25.3298 20.0796C25.2716 20.1551 25.1918 20.2007 25.1067 20.207C25.0217 20.2134 24.9378 20.18 24.8724 20.1138ZM25.4371 19.5873C25.3785 19.5263 25.3027 19.495 25.2255 19.5001C25.1483 19.5052 25.0757 19.5463 25.023 19.6147C24.9573 19.6643 24.9098 19.7426 24.8905 19.8334C24.8713 19.9242 24.8816 20.0206 24.9195 20.1024C24.9785 20.1626 25.0543 20.1932 25.1314 20.1877C25.2085 20.1821 25.2808 20.141 25.3336 20.0728C25.397 20.0211 25.4416 19.942 25.4584 19.8518C25.4752 19.7615 25.4629 19.6669 25.4239 19.5873H25.4371Z" fill="#18A018"/>
    <path d="M19.6626 20.8701C19.4555 20.8701 19.2861 20.9841 19.2861 21.1276C19.2861 21.2712 19.4555 21.3852 19.6626 21.3852C19.8696 21.3852 20.039 21.2712 20.039 21.1276C20.039 20.9841 19.8715 20.8701 19.6626 20.8701ZM19.6626 21.2461C19.4875 21.2461 19.3426 21.1732 19.3426 21.0843C19.3426 20.9955 19.4875 20.9225 19.6626 20.9225C19.8376 20.9225 19.9826 20.9955 19.9826 21.0843C19.9826 21.1732 19.8395 21.2461 19.6626 21.2461Z" fill="#20A05A"/>
    <path d="M23.8227 21.5036C24.0317 21.5036 24.1992 21.3897 24.1992 21.2461C24.1992 21.1026 24.0298 20.9863 23.8227 20.9863C23.6157 20.9863 23.4463 21.1026 23.4463 21.2461C23.4463 21.3897 23.6157 21.5036 23.8227 21.5036ZM23.8227 21.1276C23.9997 21.1276 24.1427 21.2005 24.1427 21.2894C24.1427 21.3783 23.9997 21.4512 23.8227 21.4512C23.6458 21.4512 23.5028 21.3783 23.5028 21.2894C23.5028 21.2005 23.6477 21.1276 23.8227 21.1276Z" fill="#20A05A"/>
    <path d="M21.5434 22.6499C21.3364 22.6499 21.167 22.7661 21.167 22.9074C21.167 23.0487 21.3364 23.1672 21.5434 23.1672C21.7505 23.1672 21.9199 23.051 21.9199 22.9074C21.9199 22.7638 21.7524 22.6499 21.5434 22.6499ZM21.5434 23.0259C21.3684 23.0259 21.2253 22.953 21.2253 22.8641C21.2253 22.7752 21.3684 22.7023 21.5434 22.7023C21.7185 22.7023 21.8634 22.7752 21.8634 22.8641C21.8634 22.953 21.7204 23.0259 21.5434 23.0259Z" fill="#20A05A"/>
    <path d="M18.3071 17.9575C18.0982 17.9575 17.9307 18.0715 17.9307 18.215C17.9307 18.3586 18.1001 18.4748 18.3071 18.4748C18.5142 18.4748 18.6836 18.3586 18.6836 18.215C18.6836 18.0715 18.516 17.9575 18.3071 17.9575ZM18.3071 18.3335C18.1302 18.3335 17.9871 18.2606 17.9871 18.1717C17.9871 18.0829 18.1302 18.0099 18.3071 18.0099C18.484 18.0099 18.6271 18.0829 18.6271 18.1717C18.6271 18.2606 18.484 18.3335 18.3071 18.3335Z" fill="#20A05A"/>
    <path d="M25.8364 16.1641C25.6275 16.1641 25.46 16.278 25.46 16.4216C25.46 16.5652 25.6275 16.6814 25.8364 16.6814C26.0453 16.6814 26.2128 16.5652 26.2128 16.4216C26.2128 16.278 26.0453 16.1641 25.8364 16.1641ZM25.8364 16.5401C25.6595 16.5401 25.5164 16.4672 25.5164 16.3783C25.5164 16.2894 25.6595 16.2165 25.8364 16.2165C26.0133 16.2165 26.1564 16.2894 26.1564 16.3783C26.1564 16.4672 26.0133 16.5401 25.8364 16.5401Z" fill="#20A05A"/>
  </g>
  <defs>
    <clipPath id="clip0_1803_29792">
      <rect width="48" height="48" fill="white" transform="translate(0.200195)"/>
    </clipPath>
  </defs>
</svg>
