<svg width="72" height="82" viewBox="0 0 72 82" fill="none"
  xmlns="http://www.w3.org/2000/svg">
  <g filter="url(#filter0_d_1293_17570)">
    <rect x="8" y="8" width="56" height="56" rx="28" fill="white" shape-rendering="crispEdges"/>
    <path d="M36.0002 25.95C36.7182 25.95 37.3002 26.532 37.3002 27.25V34.7H44.7502C45.4682 34.7 46.0502 35.282 46.0502 36C46.0502 36.718 45.4682 37.3 44.7502 37.3H37.3002V44.75C37.3002 45.468 36.7182 46.05 36.0002 46.05C35.2822 46.05 34.7002 45.468 34.7002 44.75V37.3H27.2502C26.5322 37.3 25.9502 36.718 25.9502 36C25.9502 35.282 26.5322 34.7 27.2502 34.7H34.7002V27.25C34.7002 26.532 35.2822 25.95 36.0002 25.95Z" fill="black" fill-opacity="0.85"/>
  </g>
  <defs>
    <filter id="filter0_d_1293_17570" x="-10" y="-10" width="92" height="92" filterUnits="userSpaceOnUse" color-interpolation-filters="sRGB">
      <feFlood flood-opacity="0" result="BackgroundImageFix"/>
      <feColorMatrix in="SourceAlpha" type="matrix" values="0 0 0 0 0 0 0 0 0 0 0 0 0 0 0 0 0 0 127 0" result="hardAlpha"/>
      <feOffset/>
      <feGaussianBlur stdDeviation="9"/>
      <feComposite in2="hardAlpha" operator="out"/>
      <feColorMatrix type="matrix" values="0 0 0 0 0 0 0 0 0 0 0 0 0 0 0 0 0 0 0.1 0"/>
      <feBlend mode="normal" in2="BackgroundImageFix" result="effect1_dropShadow_1293_17570"/>
      <feBlend mode="normal" in="SourceGraphic" in2="effect1_dropShadow_1293_17570" result="shape"/>
    </filter>
  </defs>
</svg>
