<svg width="52" height="52" viewBox="0 0 52 52" fill="none"
  xmlns="http://www.w3.org/2000/svg">
  <path fill-rule="evenodd" clip-rule="evenodd" d="M49.3055 36.0988L49.3049 36.1015C48.678 39.2381 47.0894 42.835 45.3739 45.0684C42.2504 49.1147 38.0827 50.6698 33.4511 49.5839C30.6714 48.9213 27.3524 46.9598 25.4245 44.8403C19.5698 48.1261 12.1634 48.2367 7.34761 43.0924C5.3259 40.927 3.99917 38.6866 3.02208 35.7238C2.04288 32.7562 1.83819 30.1179 2.35623 26.6893C2.86965 23.2912 4.12176 21.0652 5.36836 19.1018C6.68654 17.0257 7.76502 15.8589 9.54308 14.2768C9.92237 13.9393 10.4352 13.5339 10.8587 13.209C10.9968 13.1031 11.1245 13.0065 11.2337 12.9244L15.3423 19.2512C15.0908 19.4529 14.713 19.7662 14.1804 20.2326L14.1789 20.2339L14.1774 20.2352C10.1989 23.7849 8.111 28.1391 8.7369 32.1523L8.73713 32.1537C8.84607 32.8424 9.10881 33.6655 9.43788 34.4443C9.76767 35.2248 10.1815 36.002 10.614 36.5917C12.2785 38.8615 14.5298 40.2422 16.8042 40.3372C18.3551 40.4155 19.9223 39.9439 21.2548 39.1993C20.3774 36.9609 20.2671 37.4195 19.0583 32.4081L19.0579 32.4059C18.5257 29.434 18.6131 26.4374 19.2087 23.8898C19.8168 21.289 21.11 18.7391 23.4055 17.2736C26.3037 15.4235 29.5365 15.8905 32.4084 18.9072C35.006 21.6356 35.4602 25.6494 35.2072 27.8183C34.9542 29.9872 34.5683 31.6082 33.8178 33.8732C32.9033 36.633 30.2212 39.8891 30.2212 39.8891C30.2212 39.8891 31.3735 40.9725 31.7662 41.2003C32.6381 41.7062 34.1942 42.4441 35.7922 42.3299C37.291 42.2228 38.3873 41.6031 39.2879 40.7913C41.5215 38.7613 43.2345 34.8815 43.4526 30.5952C43.7231 25.5058 41.9419 19.2454 39.0138 14.985C38.8117 14.6862 38.4694 14.2018 38.4694 14.2018L43.1869 9.41694C43.1869 9.41694 43.5932 9.94301 43.8304 10.2807C49.0159 17.9331 51.0563 27.5448 49.3055 36.0988ZM25.9065 34.088C27.1934 32.2769 28.4783 30.3765 28.7399 27.8887C28.792 27.393 28.7966 26.6918 28.6626 26.0267C28.5324 25.3804 28.2374 24.6165 27.5865 24.2388C27.3837 24.1212 27.1643 24.0483 26.9367 24.0587C26.707 24.0691 26.5061 24.1627 26.3343 24.3091C26.0101 24.5854 25.7659 25.0711 25.5526 25.6615C24.6077 28.2771 25.1024 31.3233 25.9065 34.088Z" fill="#FF5967"/>
  <path d="M28.3872 47.3039C27.5013 46.7277 26.1175 45.6402 25.4245 44.8403C27.1221 43.7019 30.2212 39.8891 30.2212 39.8891C30.2212 39.8891 31.2001 40.8201 31.6192 41.1023C30.8271 43.2224 29.8245 45.3984 28.3872 47.3039Z" fill="#FD3049"/>
  <path d="M24.2722 10.2807C24.2722 12.771 22.2674 14.7898 19.7943 14.7898C17.3212 14.7898 15.3164 12.771 15.3164 10.2807C15.3164 7.7904 17.3212 5.77162 19.7943 5.77162C22.2674 5.77162 24.2722 7.7904 24.2722 10.2807Z" fill="#FF5967"/>
  <path d="M39.2879 6.58917C39.2879 9.07947 37.2831 11.0983 34.81 11.0983C32.337 11.0983 30.3321 9.07947 30.3321 6.58917C30.3321 4.09887 32.337 2.08008 34.81 2.08008C37.2831 2.08008 39.2879 4.09887 39.2879 6.58917Z" fill="#FF5967"/>
</svg>
